%TF.GenerationSoftware,KiCad,Pcbnew,8.0.0*%
%TF.CreationDate,2024-02-29T19:57:34+01:00*%
%TF.ProjectId,ZX Spectrum_ BUS Expander,5a582053-7065-4637-9472-756d2c204255,rev?*%
%TF.SameCoordinates,Original*%
%TF.FileFunction,Copper,L2,Bot*%
%TF.FilePolarity,Positive*%
%FSLAX46Y46*%
G04 Gerber Fmt 4.6, Leading zero omitted, Abs format (unit mm)*
G04 Created by KiCad (PCBNEW 8.0.0) date 2024-02-29 19:57:34*
%MOMM*%
%LPD*%
G01*
G04 APERTURE LIST*
G04 Aperture macros list*
%AMRoundRect*
0 Rectangle with rounded corners*
0 $1 Rounding radius*
0 $2 $3 $4 $5 $6 $7 $8 $9 X,Y pos of 4 corners*
0 Add a 4 corners polygon primitive as box body*
4,1,4,$2,$3,$4,$5,$6,$7,$8,$9,$2,$3,0*
0 Add four circle primitives for the rounded corners*
1,1,$1+$1,$2,$3*
1,1,$1+$1,$4,$5*
1,1,$1+$1,$6,$7*
1,1,$1+$1,$8,$9*
0 Add four rect primitives between the rounded corners*
20,1,$1+$1,$2,$3,$4,$5,0*
20,1,$1+$1,$4,$5,$6,$7,0*
20,1,$1+$1,$6,$7,$8,$9,0*
20,1,$1+$1,$8,$9,$2,$3,0*%
G04 Aperture macros list end*
%TA.AperFunction,ComponentPad*%
%ADD10C,1.524000*%
%TD*%
%TA.AperFunction,SMDPad,CuDef*%
%ADD11RoundRect,0.762000X0.000000X-1.738000X0.000000X-1.738000X0.000000X1.738000X0.000000X1.738000X0*%
%TD*%
%TA.AperFunction,SMDPad,CuDef*%
%ADD12R,1.524000X7.620000*%
%TD*%
%TA.AperFunction,Conductor*%
%ADD13C,0.250000*%
%TD*%
G04 APERTURE END LIST*
D10*
%TO.P,J1,*%
%TO.N,*%
X115646200Y-80010000D03*
X115646200Y-82550000D03*
%TO.P,J1,A1,Pin_a1*%
%TO.N,A15*%
X105486200Y-82550000D03*
%TO.P,J1,A2,Pin_a2*%
%TO.N,A13*%
X108026200Y-82550000D03*
%TO.P,J1,A3,Pin_a3*%
%TO.N,D7*%
X110566200Y-82550000D03*
%TO.P,J1,A4,Pin_a4*%
%TO.N,~{OEM_ROM1}*%
X113106200Y-82550000D03*
%TO.P,J1,A6,Pin_a6*%
%TO.N,D0*%
X118186200Y-82550000D03*
%TO.P,J1,A7,Pin_a7*%
%TO.N,D1*%
X120726200Y-82550000D03*
%TO.P,J1,A8,Pin_a8*%
%TO.N,D2*%
X123266200Y-82550000D03*
%TO.P,J1,A9,Pin_a9*%
%TO.N,D6*%
X125806200Y-82550000D03*
%TO.P,J1,A10,Pin_a10*%
%TO.N,D5*%
X128346200Y-82550000D03*
%TO.P,J1,A11,Pin_a11*%
%TO.N,D3*%
X130886200Y-82550000D03*
%TO.P,J1,A12,Pin_a12*%
%TO.N,D4*%
X133426200Y-82550000D03*
%TO.P,J1,A13,Pin_a13*%
%TO.N,~{INT}*%
X135966200Y-82550000D03*
%TO.P,J1,A14,Pin_a14*%
%TO.N,~{NMI}*%
X138506200Y-82550000D03*
%TO.P,J1,A15,Pin_a15*%
%TO.N,~{HALT}*%
X141046200Y-82550000D03*
%TO.P,J1,A16,Pin_a16*%
%TO.N,~{MREQ}*%
X143586200Y-82550000D03*
%TO.P,J1,A17,Pin_a17*%
%TO.N,~{IORQ}*%
X146126200Y-82550000D03*
%TO.P,J1,A18,Pin_a18*%
%TO.N,~{RD}*%
X148666200Y-82550000D03*
%TO.P,J1,A19,Pin_a19*%
%TO.N,~{WR}*%
X151206200Y-82550000D03*
%TO.P,J1,A20,Pin_a20*%
%TO.N,-5V*%
X153746200Y-82550000D03*
%TO.P,J1,A21,Pin_a21*%
%TO.N,~{WAIT}*%
X156286200Y-82550000D03*
%TO.P,J1,A22,Pin_a22*%
%TO.N,+12V*%
X158826200Y-82550000D03*
%TO.P,J1,A23,Pin_a23*%
%TO.N,12VAC*%
X161366200Y-82550000D03*
%TO.P,J1,A24,Pin_a24*%
%TO.N,~{M1}*%
X163906200Y-82550000D03*
%TO.P,J1,A25,Pin_a25*%
%TO.N,~{RFSH}*%
X166446200Y-82550000D03*
%TO.P,J1,A26,Pin_a26*%
%TO.N,A8*%
X168986200Y-82550000D03*
%TO.P,J1,A27,Pin_a27*%
%TO.N,A10*%
X171526200Y-82550000D03*
%TO.P,J1,A28,Pin_a28*%
%TO.N,RESET{slash}NC*%
X174066200Y-82550000D03*
%TO.P,J1,B1,Pin_b1*%
%TO.N,A14*%
X105486200Y-80010000D03*
%TO.P,J1,B2,Pin_b2*%
%TO.N,A12*%
X108026200Y-80010000D03*
%TO.P,J1,B3,Pin_b3*%
%TO.N,+5V*%
X110566200Y-80010000D03*
%TO.P,J1,B4,Pin_b4*%
%TO.N,+9V*%
X113106200Y-80010000D03*
%TO.P,J1,B6,Pin_b6*%
%TO.N,GND*%
X118186200Y-80010000D03*
%TO.P,J1,B7,Pin_b7*%
X120726200Y-80010000D03*
%TO.P,J1,B8,Pin_b8*%
%TO.N,~{CLK}*%
X123266200Y-80010000D03*
%TO.P,J1,B9,Pin_b9*%
%TO.N,A0*%
X125806200Y-80010000D03*
%TO.P,J1,B10,Pin_b10*%
%TO.N,A1*%
X128346200Y-80010000D03*
%TO.P,J1,B11,Pin_b11*%
%TO.N,A2*%
X130886200Y-80010000D03*
%TO.P,J1,B12,Pin_b12*%
%TO.N,A3*%
X133426200Y-80010000D03*
%TO.P,J1,B13,Pin_b13*%
%TO.N,~{IORQGE}*%
X135966200Y-80010000D03*
%TO.P,J1,B14,Pin_b14*%
%TO.N,GND*%
X138506200Y-80010000D03*
%TO.P,J1,B15,Pin_b15*%
%TO.N,~{OE_ROM2{slash}VIDEO}*%
X141046200Y-80010000D03*
%TO.P,J1,B16,Pin_b16*%
%TO.N,~{Y}*%
X143586200Y-80010000D03*
%TO.P,J1,B17,Pin_b17*%
%TO.N,V*%
X146126200Y-80010000D03*
%TO.P,J1,B18,Pin_b18*%
%TO.N,U*%
X148666200Y-80010000D03*
%TO.P,J1,B19,Pin_b19*%
%TO.N,~{BUSRQ}*%
X151206200Y-80010000D03*
%TO.P,J1,B20,Pin_b20*%
%TO.N,~{RESET}*%
X153746200Y-80010000D03*
%TO.P,J1,B21,Pin_b21*%
%TO.N,A7*%
X156286200Y-80010000D03*
%TO.P,J1,B22,Pin_b22*%
%TO.N,A6*%
X158826200Y-80010000D03*
%TO.P,J1,B23,Pin_b23*%
%TO.N,A5*%
X161366200Y-80010000D03*
%TO.P,J1,B24,Pin_b24*%
%TO.N,A4*%
X163906200Y-80010000D03*
%TO.P,J1,B25,Pin_b25*%
%TO.N,~{ROMCS}*%
X166446200Y-80010000D03*
%TO.P,J1,B26,Pin_b26*%
%TO.N,~{BUSACK}*%
X168986200Y-80010000D03*
%TO.P,J1,B27,Pin_b27*%
%TO.N,A9*%
X171526200Y-80010000D03*
%TO.P,J1,B28,Pin_b28*%
%TO.N,A11*%
X174066200Y-80010000D03*
%TD*%
D11*
%TO.P,Z1,B1,A14*%
%TO.N,A14*%
X105486200Y-136398000D03*
%TO.P,Z1,B2,A12*%
%TO.N,A12*%
X108026200Y-136398000D03*
%TO.P,Z1,B3,+5v*%
%TO.N,+5V*%
X110566200Y-136398000D03*
%TO.P,Z1,B4,+9V*%
%TO.N,+9V*%
X113106200Y-136398000D03*
%TO.P,Z1,B6,GND*%
%TO.N,GND*%
X118186200Y-136398000D03*
%TO.P,Z1,B7,GND*%
X120726200Y-136398000D03*
%TO.P,Z1,B8,~{CLK}*%
%TO.N,~{CLK}*%
X123266200Y-136398000D03*
%TO.P,Z1,B9,A0*%
%TO.N,A0*%
X125806200Y-136398000D03*
%TO.P,Z1,B10,A1*%
%TO.N,A1*%
X128346200Y-136398000D03*
%TO.P,Z1,B11,A2*%
%TO.N,A2*%
X130886200Y-136398000D03*
%TO.P,Z1,B12,A3*%
%TO.N,A3*%
X133426200Y-136398000D03*
%TO.P,Z1,B13,~{IORQGE}*%
%TO.N,~{IORQGE}*%
X135966200Y-136398000D03*
%TO.P,Z1,B14,GND*%
%TO.N,GND*%
X138506200Y-136398000D03*
%TO.P,Z1,B15,~{OE_ROM2}*%
%TO.N,~{OE_ROM2{slash}VIDEO}*%
X141046200Y-136398000D03*
%TO.P,Z1,B16,~{Y}*%
%TO.N,~{Y}*%
X143586200Y-136398000D03*
%TO.P,Z1,B17,V*%
%TO.N,V*%
X146126200Y-136398000D03*
%TO.P,Z1,B18,U*%
%TO.N,U*%
X148666200Y-136398000D03*
%TO.P,Z1,B19,~{BUSRQ}*%
%TO.N,~{BUSRQ}*%
X151206200Y-136398000D03*
%TO.P,Z1,B20,~{RESET}*%
%TO.N,~{RESET}*%
X153746200Y-136398000D03*
%TO.P,Z1,B21,A7*%
%TO.N,A7*%
X156286200Y-136398000D03*
%TO.P,Z1,B22,A6*%
%TO.N,A6*%
X158826200Y-136398000D03*
%TO.P,Z1,B23,A5*%
%TO.N,A5*%
X161366200Y-136398000D03*
%TO.P,Z1,B24,A4*%
%TO.N,A4*%
X163906200Y-136398000D03*
%TO.P,Z1,B25,~{ROMCS}*%
%TO.N,~{ROMCS}*%
X166446200Y-136398000D03*
%TO.P,Z1,B26,~{BUSACK}*%
%TO.N,~{BUSACK}*%
X168986200Y-136398000D03*
%TO.P,Z1,B27,A9*%
%TO.N,A9*%
X171526200Y-136398000D03*
%TO.P,Z1,B28,A11*%
%TO.N,A11*%
X174066200Y-136398000D03*
%TD*%
D10*
%TO.P,J2,*%
%TO.N,*%
X115646200Y-116840000D03*
X115646200Y-119380000D03*
%TO.P,J2,A1,Pin_a1*%
%TO.N,A15*%
X105486200Y-119380000D03*
%TO.P,J2,A2,Pin_a2*%
%TO.N,A13*%
X108026200Y-119380000D03*
%TO.P,J2,A3,Pin_a3*%
%TO.N,D7*%
X110566200Y-119380000D03*
%TO.P,J2,A4,Pin_a4*%
%TO.N,~{OEM_ROM1}*%
X113106200Y-119380000D03*
%TO.P,J2,A6,Pin_a6*%
%TO.N,D0*%
X118186200Y-119380000D03*
%TO.P,J2,A7,Pin_a7*%
%TO.N,D1*%
X120726200Y-119380000D03*
%TO.P,J2,A8,Pin_a8*%
%TO.N,D2*%
X123266200Y-119380000D03*
%TO.P,J2,A9,Pin_a9*%
%TO.N,D6*%
X125806200Y-119380000D03*
%TO.P,J2,A10,Pin_a10*%
%TO.N,D5*%
X128346200Y-119380000D03*
%TO.P,J2,A11,Pin_a11*%
%TO.N,D3*%
X130886200Y-119380000D03*
%TO.P,J2,A12,Pin_a12*%
%TO.N,D4*%
X133426200Y-119380000D03*
%TO.P,J2,A13,Pin_a13*%
%TO.N,~{INT}*%
X135966200Y-119380000D03*
%TO.P,J2,A14,Pin_a14*%
%TO.N,~{NMI}*%
X138506200Y-119380000D03*
%TO.P,J2,A15,Pin_a15*%
%TO.N,~{HALT}*%
X141046200Y-119380000D03*
%TO.P,J2,A16,Pin_a16*%
%TO.N,~{MREQ}*%
X143586200Y-119380000D03*
%TO.P,J2,A17,Pin_a17*%
%TO.N,~{IORQ}*%
X146126200Y-119380000D03*
%TO.P,J2,A18,Pin_a18*%
%TO.N,~{RD}*%
X148666200Y-119380000D03*
%TO.P,J2,A19,Pin_a19*%
%TO.N,~{WR}*%
X151206200Y-119380000D03*
%TO.P,J2,A20,Pin_a20*%
%TO.N,-5V*%
X153746200Y-119380000D03*
%TO.P,J2,A21,Pin_a21*%
%TO.N,~{WAIT}*%
X156286200Y-119380000D03*
%TO.P,J2,A22,Pin_a22*%
%TO.N,+12V*%
X158826200Y-119380000D03*
%TO.P,J2,A23,Pin_a23*%
%TO.N,12VAC*%
X161366200Y-119380000D03*
%TO.P,J2,A24,Pin_a24*%
%TO.N,~{M1}*%
X163906200Y-119380000D03*
%TO.P,J2,A25,Pin_a25*%
%TO.N,~{RFSH}*%
X166446200Y-119380000D03*
%TO.P,J2,A26,Pin_a26*%
%TO.N,A8*%
X168986200Y-119380000D03*
%TO.P,J2,A27,Pin_a27*%
%TO.N,A10*%
X171526200Y-119380000D03*
%TO.P,J2,A28,Pin_a28*%
%TO.N,RESET{slash}NC*%
X174066200Y-119380000D03*
%TO.P,J2,B1,Pin_b1*%
%TO.N,A14*%
X105486200Y-116840000D03*
%TO.P,J2,B2,Pin_b2*%
%TO.N,A12*%
X108026200Y-116840000D03*
%TO.P,J2,B3,Pin_b3*%
%TO.N,+5V*%
X110566200Y-116840000D03*
%TO.P,J2,B4,Pin_b4*%
%TO.N,+9V*%
X113106200Y-116840000D03*
%TO.P,J2,B6,Pin_b6*%
%TO.N,GND*%
X118186200Y-116840000D03*
%TO.P,J2,B7,Pin_b7*%
X120726200Y-116840000D03*
%TO.P,J2,B8,Pin_b8*%
%TO.N,~{CLK}*%
X123266200Y-116840000D03*
%TO.P,J2,B9,Pin_b9*%
%TO.N,A0*%
X125806200Y-116840000D03*
%TO.P,J2,B10,Pin_b10*%
%TO.N,A1*%
X128346200Y-116840000D03*
%TO.P,J2,B11,Pin_b11*%
%TO.N,A2*%
X130886200Y-116840000D03*
%TO.P,J2,B12,Pin_b12*%
%TO.N,A3*%
X133426200Y-116840000D03*
%TO.P,J2,B13,Pin_b13*%
%TO.N,~{IORQGE}*%
X135966200Y-116840000D03*
%TO.P,J2,B14,Pin_b14*%
%TO.N,GND*%
X138506200Y-116840000D03*
%TO.P,J2,B15,Pin_b15*%
%TO.N,~{OE_ROM2{slash}VIDEO}*%
X141046200Y-116840000D03*
%TO.P,J2,B16,Pin_b16*%
%TO.N,~{Y}*%
X143586200Y-116840000D03*
%TO.P,J2,B17,Pin_b17*%
%TO.N,V*%
X146126200Y-116840000D03*
%TO.P,J2,B18,Pin_b18*%
%TO.N,U*%
X148666200Y-116840000D03*
%TO.P,J2,B19,Pin_b19*%
%TO.N,~{BUSRQ}*%
X151206200Y-116840000D03*
%TO.P,J2,B20,Pin_b20*%
%TO.N,~{RESET}*%
X153746200Y-116840000D03*
%TO.P,J2,B21,Pin_b21*%
%TO.N,A7*%
X156286200Y-116840000D03*
%TO.P,J2,B22,Pin_b22*%
%TO.N,A6*%
X158826200Y-116840000D03*
%TO.P,J2,B23,Pin_b23*%
%TO.N,A5*%
X161366200Y-116840000D03*
%TO.P,J2,B24,Pin_b24*%
%TO.N,A4*%
X163906200Y-116840000D03*
%TO.P,J2,B25,Pin_b25*%
%TO.N,~{ROMCS}*%
X166446200Y-116840000D03*
%TO.P,J2,B26,Pin_b26*%
%TO.N,~{BUSACK}*%
X168986200Y-116840000D03*
%TO.P,J2,B27,Pin_b27*%
%TO.N,A9*%
X171526200Y-116840000D03*
%TO.P,J2,B28,Pin_b28*%
%TO.N,A11*%
X174066200Y-116840000D03*
%TD*%
D12*
%TO.P,Z2,B1,A14*%
%TO.N,A14*%
X105486200Y-55753000D03*
%TO.P,Z2,B2,A12*%
%TO.N,A12*%
X108026200Y-55753000D03*
%TO.P,Z2,B3,+5v*%
%TO.N,+5V*%
X110566200Y-55753000D03*
%TO.P,Z2,B4,+9V*%
%TO.N,+9V*%
X113106200Y-55753000D03*
%TO.P,Z2,B6,GND*%
%TO.N,GND*%
X118186200Y-55753000D03*
%TO.P,Z2,B7,GND*%
X120726200Y-55753000D03*
%TO.P,Z2,B8,~{CLK}*%
%TO.N,~{CLK}*%
X123266200Y-55753000D03*
%TO.P,Z2,B9,A0*%
%TO.N,A0*%
X125806200Y-55753000D03*
%TO.P,Z2,B10,A1*%
%TO.N,A1*%
X128346200Y-55753000D03*
%TO.P,Z2,B11,A2*%
%TO.N,A2*%
X130886200Y-55753000D03*
%TO.P,Z2,B12,A3*%
%TO.N,A3*%
X133426200Y-55753000D03*
%TO.P,Z2,B13,~{IORQGE}*%
%TO.N,~{IORQGE}*%
X135966200Y-55753000D03*
%TO.P,Z2,B14,GND*%
%TO.N,GND*%
X138506200Y-55753000D03*
%TO.P,Z2,B15,~{OE_ROM2}*%
%TO.N,~{OE_ROM2{slash}VIDEO}*%
X141046200Y-55753000D03*
%TO.P,Z2,B16,~{Y}*%
%TO.N,~{Y}*%
X143586200Y-55753000D03*
%TO.P,Z2,B17,V*%
%TO.N,V*%
X146126200Y-55753000D03*
%TO.P,Z2,B18,U*%
%TO.N,U*%
X148666200Y-55753000D03*
%TO.P,Z2,B19,~{BUSRQ}*%
%TO.N,~{BUSRQ}*%
X151206200Y-55753000D03*
%TO.P,Z2,B20,~{RESET}*%
%TO.N,~{RESET}*%
X153746200Y-55753000D03*
%TO.P,Z2,B21,A7*%
%TO.N,A7*%
X156286200Y-55753000D03*
%TO.P,Z2,B22,A6*%
%TO.N,A6*%
X158826200Y-55753000D03*
%TO.P,Z2,B23,A5*%
%TO.N,A5*%
X161366200Y-55753000D03*
%TO.P,Z2,B24,A4*%
%TO.N,A4*%
X163906200Y-55753000D03*
%TO.P,Z2,B25,~{ROMCS}*%
%TO.N,~{ROMCS}*%
X166446200Y-55753000D03*
%TO.P,Z2,B26,~{BUSACK}*%
%TO.N,~{BUSACK}*%
X168986200Y-55753000D03*
%TO.P,Z2,B27,A9*%
%TO.N,A9*%
X171526200Y-55753000D03*
%TO.P,Z2,B28,A11*%
%TO.N,A11*%
X174066200Y-55753000D03*
%TD*%
D13*
%TO.N,A9*%
X171248436Y-117117761D02*
X171178936Y-117187261D01*
X172012346Y-116353852D02*
X171942902Y-116423296D01*
X171942902Y-116423296D02*
X171873458Y-116492740D01*
X171439392Y-116926805D02*
X171335254Y-117030942D01*
X171803987Y-116562211D02*
X171734523Y-116631674D01*
X171717177Y-116649021D02*
X171613021Y-116753177D01*
X171317936Y-117048261D02*
X171248436Y-117117761D01*
X171109465Y-117256733D02*
X171040021Y-117326176D01*
X171022646Y-117343552D02*
X170987915Y-117378284D01*
X171873449Y-116492749D02*
X171803987Y-116562211D01*
X171178908Y-117187290D02*
X171109465Y-117256733D01*
X172064437Y-116301762D02*
X172029712Y-116336487D01*
%TO.N,~{BUSACK}*%
X169551101Y-116275098D02*
X169550504Y-116275693D01*
X169545430Y-116280766D02*
X169543042Y-116283154D01*
X169547817Y-116278379D02*
X169545430Y-116280766D01*
X169539162Y-116287033D02*
X169538564Y-116287630D01*
X169539759Y-116286436D02*
X169539162Y-116287033D01*
X169549907Y-116276290D02*
X169549310Y-116276887D01*
X169527522Y-116298674D02*
X169517972Y-116308225D01*
X169549310Y-116276887D02*
X169548712Y-116277484D01*
X169536775Y-116289421D02*
X169533790Y-116292406D01*
X169543042Y-116283154D02*
X169540655Y-116285541D01*
X169533790Y-116292406D02*
X169530805Y-116295391D01*
%TO.N,A9*%
X172012346Y-116353852D02*
X172029712Y-116336487D01*
X171040021Y-117326176D02*
X171022646Y-117343552D01*
X171873458Y-116492740D02*
X171873449Y-116492749D01*
X171178936Y-117187261D02*
X171178908Y-117187290D01*
X171439392Y-116926805D02*
X171613021Y-116753177D01*
%TO.N,~{BUSACK}*%
X169527522Y-116298674D02*
X169530805Y-116295391D01*
X169538564Y-116287630D02*
X169536775Y-116289421D01*
X169547817Y-116278379D02*
X169548712Y-116277484D01*
X169539759Y-116286436D02*
X169540655Y-116285541D01*
X169550504Y-116275693D02*
X169549907Y-116276290D01*
%TO.N,A9*%
X171335254Y-117030942D02*
X171317936Y-117048261D01*
X171734523Y-116631674D02*
X171717177Y-116649021D01*
%TO.N,~{BUSACK}*%
X169268801Y-80292599D02*
G75*
G02*
X168986183Y-79610343I682299J682299D01*
G01*
%TO.N,~{ROMCS}*%
X166446200Y-79617096D02*
G75*
G02*
X166168386Y-80287836I-948600J-4D01*
G01*
%TO.N,A4*%
X163906200Y-79611085D02*
G75*
G02*
X163624140Y-80292090I-963100J-15D01*
G01*
%TO.N,A5*%
X161088375Y-117117825D02*
G75*
G03*
X161088375Y-116562175I-277875J277825D01*
G01*
X161366200Y-79611085D02*
G75*
G02*
X161084140Y-80292090I-963100J-15D01*
G01*
%TO.N,A6*%
X158553850Y-117112350D02*
G75*
G03*
X158553850Y-116567650I-272350J272350D01*
G01*
%TO.N,A7*%
X156008375Y-117117825D02*
G75*
G03*
X156008375Y-116562175I-277875J277825D01*
G01*
X156004125Y-80292075D02*
G75*
G03*
X156286179Y-79611085I-681025J680975D01*
G01*
%TO.N,~{BUSRQ}*%
X150928375Y-117117825D02*
G75*
G03*
X150928375Y-116562175I-277875J277825D01*
G01*
%TO.N,U*%
X148666200Y-79611085D02*
G75*
G02*
X148384140Y-80292090I-963100J-15D01*
G01*
%TO.N,V*%
X145848375Y-117117825D02*
G75*
G03*
X145848375Y-116562175I-277875J277825D01*
G01*
%TO.N,~{Y}*%
X143308375Y-116562175D02*
G75*
G02*
X143308375Y-117117825I-277875J-277825D01*
G01*
%TO.N,~{OE_ROM2{slash}VIDEO}*%
X140764125Y-80292075D02*
G75*
G03*
X141046179Y-79611085I-681025J680975D01*
G01*
%TO.N,~{IORQGE}*%
X136248275Y-80292075D02*
G75*
G02*
X135966221Y-79611085I681025J680975D01*
G01*
%TO.N,A1*%
X128624000Y-116562200D02*
G75*
G03*
X128624000Y-117117800I277800J-277800D01*
G01*
X128346200Y-79611085D02*
G75*
G03*
X128628260Y-80292090I963100J-15D01*
G01*
%TO.N,A0*%
X126084000Y-116562200D02*
G75*
G03*
X126084000Y-117117800I277800J-277800D01*
G01*
X126088275Y-80292075D02*
G75*
G02*
X125806221Y-79611085I681025J680975D01*
G01*
%TO.N,~{CLK}*%
X123548275Y-80292075D02*
G75*
G02*
X123266221Y-79611085I681025J680975D01*
G01*
%TO.N,+9V*%
X113106200Y-79625086D02*
G75*
G03*
X113378361Y-80282189I929300J-14D01*
G01*
%TO.N,+5V*%
X110566200Y-79617944D02*
G75*
G03*
X110843448Y-80287202I946500J44D01*
G01*
%TO.N,A12*%
X108303425Y-117117225D02*
G75*
G02*
X108303425Y-116562775I277175J277225D01*
G01*
%TO.N,A14*%
X105769451Y-80293249D02*
G75*
G02*
X105486191Y-79609424I683849J683849D01*
G01*
%TO.N,A15*%
X104396600Y-84410063D02*
X104396600Y-117519936D01*
X104941400Y-118835200D02*
X105486200Y-119380000D01*
X104941400Y-83094800D02*
X105486200Y-82550000D01*
X104941400Y-83094800D02*
G75*
G03*
X104396556Y-84410063I1315200J-1315300D01*
G01*
X104941400Y-118835200D02*
G75*
G02*
X104396585Y-117519936I1315300J1315300D01*
G01*
%TO.N,A13*%
X108026200Y-114223823D02*
X108026200Y-82550000D01*
X106997357Y-115981742D02*
X106965300Y-116013800D01*
X107512149Y-115464849D02*
X106998842Y-115978157D01*
X106932500Y-117512937D02*
X106932500Y-116092986D01*
X107479350Y-118833150D02*
X108026200Y-119380000D01*
X106932500Y-117512937D02*
G75*
G03*
X107479361Y-118833139I1867100J37D01*
G01*
X106965301Y-116013801D02*
G75*
G03*
X106932495Y-116092986I79199J-79199D01*
G01*
X107512149Y-115464849D02*
G75*
G03*
X108026208Y-114223823I-1241049J1241049D01*
G01*
X106998100Y-115979950D02*
G75*
G02*
X106998825Y-115978140I2500J50D01*
G01*
X106998100Y-115979950D02*
G75*
G02*
X106997326Y-115981709I-2500J50D01*
G01*
%TO.N,D7*%
X110306621Y-118386221D02*
X110006608Y-118086208D01*
X109474900Y-116502865D02*
X109474900Y-116802550D01*
X109794699Y-115730799D02*
X110113757Y-115411742D01*
X110115242Y-115408157D02*
X110340349Y-115183049D01*
X110566200Y-119012900D02*
X110566200Y-119380000D01*
X110566200Y-114637799D02*
X110566200Y-82550000D01*
X110566200Y-114637799D02*
G75*
G02*
X110340350Y-115183050I-771100J-1D01*
G01*
X109474900Y-116802550D02*
G75*
G03*
X110006576Y-118086240I1815400J-50D01*
G01*
X110115242Y-115408157D02*
G75*
G03*
X110114525Y-115409949I1758J-1743D01*
G01*
X110566200Y-119012900D02*
G75*
G03*
X110306630Y-118386212I-886300J0D01*
G01*
X110114500Y-115409950D02*
G75*
G02*
X110113726Y-115411709I-2500J50D01*
G01*
X109474900Y-116502865D02*
G75*
G02*
X109794710Y-115730810I1091900J-35D01*
G01*
%TO.N,~{OEM_ROM1}*%
X113106200Y-114552452D02*
X113106200Y-82550000D01*
X113106200Y-119061600D02*
X113106200Y-119380000D01*
X112274349Y-115791149D02*
X112533057Y-115532442D01*
X112534542Y-115528857D02*
X112820000Y-115243400D01*
X112014900Y-116880234D02*
X112014900Y-116417517D01*
X112881057Y-118518057D02*
X112560550Y-118197550D01*
X112819999Y-115243399D02*
G75*
G03*
X113106150Y-114552452I-690999J690899D01*
G01*
X112014900Y-116880234D02*
G75*
G03*
X112560560Y-118197540I1863000J34D01*
G01*
X112881056Y-118518058D02*
G75*
G02*
X113106195Y-119061600I-543556J-543542D01*
G01*
X112014900Y-116417517D02*
G75*
G02*
X112274345Y-115791145I885800J17D01*
G01*
X112533800Y-115530650D02*
G75*
G02*
X112534525Y-115528840I2500J50D01*
G01*
X112533800Y-115530650D02*
G75*
G02*
X112533026Y-115532409I-2500J50D01*
G01*
%TO.N,D0*%
X117074900Y-84447107D02*
X117074900Y-117482892D01*
X117630550Y-83105650D02*
X118186200Y-82550000D01*
X117630550Y-118824350D02*
X118186200Y-119380000D01*
X117074900Y-84447107D02*
G75*
G02*
X117630548Y-83105648I1897100J7D01*
G01*
X117630551Y-118824349D02*
G75*
G02*
X117074904Y-117482892I1341449J1341449D01*
G01*
%TO.N,D1*%
X119614900Y-84447107D02*
X119614900Y-117482892D01*
X120170550Y-118824350D02*
X120726200Y-119380000D01*
X120170550Y-83105650D02*
X120726200Y-82550000D01*
X119614900Y-84447107D02*
G75*
G02*
X120170548Y-83105648I1897100J7D01*
G01*
X119614900Y-117482892D02*
G75*
G03*
X120170548Y-118824352I1897100J-8D01*
G01*
%TO.N,D2*%
X122710550Y-83105650D02*
X123266200Y-82550000D01*
X122710550Y-118824350D02*
X123266200Y-119380000D01*
X122154900Y-117482892D02*
X122154900Y-84447107D01*
X122154900Y-84447107D02*
G75*
G02*
X122710548Y-83105648I1897100J7D01*
G01*
X122154900Y-117482892D02*
G75*
G03*
X122710548Y-118824352I1897100J-8D01*
G01*
%TO.N,D6*%
X125246608Y-118086208D02*
X125546621Y-118386221D01*
X125246608Y-115518891D02*
X125260550Y-115504950D01*
X125806200Y-114187634D02*
X125806200Y-82550000D01*
X125806200Y-119012900D02*
X125806200Y-119380000D01*
X125806200Y-119012900D02*
G75*
G03*
X125546630Y-118386212I-886300J0D01*
G01*
X125246609Y-115518892D02*
G75*
G03*
X124714945Y-116802550I1283691J-1283608D01*
G01*
X125806200Y-114187634D02*
G75*
G02*
X125260540Y-115504940I-1863000J34D01*
G01*
X124714900Y-116802550D02*
G75*
G03*
X125246576Y-118086240I1815400J-50D01*
G01*
%TO.N,D5*%
X128086621Y-118386221D02*
X127786608Y-118086208D01*
X127786608Y-115518891D02*
X127800550Y-115504950D01*
X128346200Y-119012900D02*
X128346200Y-119380000D01*
X128346200Y-114187634D02*
X128346200Y-82550000D01*
X127786608Y-118086208D02*
G75*
G02*
X127254945Y-116802550I1283692J1283608D01*
G01*
X127786609Y-115518892D02*
G75*
G03*
X127254945Y-116802550I1283691J-1283608D01*
G01*
X127800550Y-115504950D02*
G75*
G03*
X128346214Y-114187634I-1317350J1317350D01*
G01*
X128346200Y-119012900D02*
G75*
G03*
X128086630Y-118386212I-886300J0D01*
G01*
%TO.N,D3*%
X130326608Y-115518891D02*
X130340549Y-115504949D01*
X130886200Y-114187634D02*
X130886200Y-82550000D01*
X130326608Y-118086208D02*
X130626621Y-118386221D01*
X130886200Y-119012900D02*
X130886200Y-119380000D01*
X130886200Y-119012900D02*
G75*
G03*
X130626630Y-118386212I-886300J0D01*
G01*
X129794900Y-116802550D02*
G75*
G03*
X130326576Y-118086240I1815400J-50D01*
G01*
X129794900Y-116802550D02*
G75*
G02*
X130326577Y-115518860I1815400J50D01*
G01*
X130886200Y-114187634D02*
G75*
G02*
X130340540Y-115504940I-1863000J34D01*
G01*
%TO.N,D4*%
X133426200Y-114187634D02*
X133426200Y-82550000D01*
X132866608Y-118086208D02*
X133166621Y-118386221D01*
X133426200Y-119012900D02*
X133426200Y-119380000D01*
X132880549Y-115504949D02*
X132866608Y-115518891D01*
X132334900Y-116802550D02*
G75*
G03*
X132866576Y-118086240I1815400J-50D01*
G01*
X132334900Y-116802550D02*
G75*
G02*
X132866577Y-115518860I1815400J50D01*
G01*
X133426200Y-114187634D02*
G75*
G02*
X132880540Y-115504940I-1863000J34D01*
G01*
X133166621Y-118386221D02*
G75*
G02*
X133426187Y-119012900I-626721J-626679D01*
G01*
%TO.N,~{INT}*%
X135966200Y-119012900D02*
X135966200Y-119380000D01*
X135966200Y-114187634D02*
X135966200Y-82550000D01*
X135420549Y-115504949D02*
X135406608Y-115518891D01*
X135706621Y-118386221D02*
X135406608Y-118086208D01*
X135966200Y-114187634D02*
G75*
G02*
X135420540Y-115504940I-1863000J34D01*
G01*
X134874900Y-116802550D02*
G75*
G02*
X135406577Y-115518860I1815400J50D01*
G01*
X135966200Y-119012900D02*
G75*
G03*
X135706630Y-118386212I-886300J0D01*
G01*
X134874900Y-116802550D02*
G75*
G03*
X135406576Y-118086240I1815400J-50D01*
G01*
%TO.N,~{NMI}*%
X138281057Y-118518057D02*
X137960550Y-118197550D01*
X138506200Y-119061600D02*
X138506200Y-119380000D01*
X138506200Y-114187634D02*
X138506200Y-82550000D01*
X137414900Y-116822265D02*
X137414900Y-116880234D01*
X138281056Y-118518058D02*
G75*
G02*
X138506195Y-119061600I-543556J-543542D01*
G01*
X137960550Y-118197550D02*
G75*
G02*
X137414886Y-116880234I1317350J1317350D01*
G01*
X137960550Y-115504950D02*
G75*
G03*
X138506214Y-114187634I-1317350J1317350D01*
G01*
X137414900Y-116822265D02*
G75*
G02*
X137960560Y-115504960I1863000J-35D01*
G01*
%TO.N,~{HALT}*%
X141046200Y-114265037D02*
X141046200Y-82550000D01*
X141609074Y-115601274D02*
X141593050Y-115585250D01*
X141276999Y-118496400D02*
X141609074Y-118164325D01*
X141046200Y-119053600D02*
X141046200Y-119380000D01*
X141046200Y-114265037D02*
G75*
G03*
X141593061Y-115585239I1867100J37D01*
G01*
X141609074Y-115601274D02*
G75*
G02*
X142139885Y-116882800I-1281574J-1281526D01*
G01*
X142139900Y-116882800D02*
G75*
G02*
X141609085Y-118164336I-1812400J0D01*
G01*
X141046200Y-119053600D02*
G75*
G02*
X141276999Y-118496400I788000J0D01*
G01*
%TO.N,~{MREQ}*%
X143586200Y-114265037D02*
X143586200Y-82550000D01*
X144133050Y-115585250D02*
X144149074Y-115601274D01*
X143586200Y-119053600D02*
X143586200Y-119380000D01*
X144149074Y-118164324D02*
X143816999Y-118496400D01*
X143586200Y-114265037D02*
G75*
G03*
X144133061Y-115585239I1867100J37D01*
G01*
X144679900Y-116882800D02*
G75*
G02*
X144149085Y-118164335I-1812400J0D01*
G01*
X144679900Y-116882800D02*
G75*
G03*
X144149084Y-115601264I-1812400J0D01*
G01*
X143816999Y-118496400D02*
G75*
G03*
X143586200Y-119053600I557201J-557200D01*
G01*
%TO.N,~{IORQ}*%
X146126200Y-119053600D02*
X146126200Y-119380000D01*
X146356999Y-118496400D02*
X146689074Y-118164324D01*
X146689074Y-115601274D02*
X146673050Y-115585250D01*
X146126200Y-114265037D02*
X146126200Y-82550000D01*
X146126200Y-114265037D02*
G75*
G03*
X146673061Y-115585239I1867100J37D01*
G01*
X146356999Y-118496400D02*
G75*
G03*
X146126200Y-119053600I557201J-557200D01*
G01*
X146689073Y-118164323D02*
G75*
G03*
X147219883Y-116882800I-1281573J1281523D01*
G01*
X146689074Y-115601274D02*
G75*
G02*
X147219885Y-116882800I-1281574J-1281526D01*
G01*
%TO.N,~{RD}*%
X148666200Y-119053600D02*
X148666200Y-119380000D01*
X148896999Y-118496400D02*
X149229074Y-118164324D01*
X149229074Y-115601274D02*
X149213050Y-115585250D01*
X148666200Y-114265037D02*
X148666200Y-82550000D01*
X148896999Y-118496400D02*
G75*
G03*
X148666200Y-119053600I557201J-557200D01*
G01*
X148666200Y-114265037D02*
G75*
G03*
X149213061Y-115585239I1867100J37D01*
G01*
X149759900Y-116882800D02*
G75*
G02*
X149229085Y-118164335I-1812400J0D01*
G01*
X149229074Y-115601274D02*
G75*
G02*
X149759885Y-116882800I-1281574J-1281526D01*
G01*
%TO.N,~{WR}*%
X151206200Y-119053600D02*
X151206200Y-119380000D01*
X151769074Y-118164325D02*
X151436999Y-118496400D01*
X151206200Y-114265037D02*
X151206200Y-82550000D01*
X151753050Y-115585250D02*
X151769074Y-115601274D01*
X151753050Y-115585250D02*
G75*
G02*
X151206185Y-114265037I1320250J1320250D01*
G01*
X151206200Y-119053600D02*
G75*
G02*
X151436999Y-118496400I788000J0D01*
G01*
X151769074Y-115601274D02*
G75*
G02*
X152299885Y-116882800I-1281574J-1281526D01*
G01*
X151769074Y-118164325D02*
G75*
G03*
X152299884Y-116882800I-1281574J1281525D01*
G01*
%TO.N,RESET{slash}NC*%
X174611000Y-118835200D02*
X174066200Y-119380000D01*
X175155800Y-84410063D02*
X175155800Y-117519936D01*
X174611000Y-83094800D02*
X174066200Y-82550000D01*
X174611000Y-118835200D02*
G75*
G03*
X175155815Y-117519936I-1315300J1315300D01*
G01*
X175155800Y-84410063D02*
G75*
G03*
X174610989Y-83094811I-1860100J-37D01*
G01*
%TO.N,A14*%
X105486200Y-79609424D02*
X105486200Y-55753000D01*
X106034300Y-135849900D02*
X105486200Y-136398000D01*
X106052700Y-80576500D02*
X105769450Y-80293250D01*
X106034300Y-118034300D02*
X105714666Y-117714666D01*
X106052699Y-116273499D02*
X105714666Y-116611533D01*
X106619200Y-81944151D02*
X106619200Y-114905848D01*
X106582400Y-119357530D02*
X106582400Y-134526669D01*
X105486200Y-117163100D02*
G75*
G03*
X105714673Y-117714659I780000J0D01*
G01*
X105486200Y-117163100D02*
G75*
G02*
X105714673Y-116611540I780000J0D01*
G01*
X106052699Y-116273499D02*
G75*
G03*
X106619218Y-114905848I-1367699J1367699D01*
G01*
X106582400Y-134526669D02*
G75*
G02*
X106034309Y-135849909I-1871300J-31D01*
G01*
X106034300Y-118034300D02*
G75*
G02*
X106582387Y-119357530I-1323200J-1323200D01*
G01*
X106052699Y-80576501D02*
G75*
G02*
X106619219Y-81944151I-1367699J-1367699D01*
G01*
%TO.N,A12*%
X108581800Y-135842400D02*
X108026200Y-136398000D01*
X109135100Y-81903010D02*
X109135100Y-114946989D01*
X109137400Y-118736937D02*
X109137400Y-134501062D01*
X108026200Y-79225889D02*
X108026200Y-55753000D01*
X108303425Y-117117225D02*
X108581800Y-117395600D01*
X108580650Y-116285550D02*
X108303425Y-116562775D01*
X108580650Y-116285550D02*
G75*
G03*
X109135095Y-114946989I-1338550J1338550D01*
G01*
X108580650Y-80564450D02*
G75*
G02*
X108026205Y-79225889I1338550J1338550D01*
G01*
X108580650Y-80564450D02*
G75*
G02*
X109135095Y-81903010I-1338550J-1338550D01*
G01*
X108581800Y-135842400D02*
G75*
G03*
X109137384Y-134501062I-1341300J1341300D01*
G01*
X108581800Y-117395600D02*
G75*
G02*
X109137384Y-118736937I-1341300J-1341300D01*
G01*
%TO.N,+5V*%
X110566942Y-116839257D02*
X111120650Y-116285550D01*
X110566200Y-79617944D02*
X110566200Y-55753000D01*
X110566942Y-116842842D02*
X111121800Y-117397700D01*
X111677400Y-118739037D02*
X111677400Y-134501062D01*
X111675100Y-114946989D02*
X111675100Y-81903010D01*
X111121800Y-135842400D02*
X110566200Y-136398000D01*
X111120650Y-80564450D02*
X110843425Y-80287225D01*
X111121800Y-135842400D02*
G75*
G03*
X111677384Y-134501062I-1341300J1341300D01*
G01*
X111675100Y-81903010D02*
G75*
G03*
X111120653Y-80564447I-1893000J10D01*
G01*
X111675100Y-114946989D02*
G75*
G02*
X111120653Y-116285553I-1893000J-11D01*
G01*
X110566943Y-116842841D02*
G75*
G02*
X110566226Y-116841051I1757J1741D01*
G01*
X110566200Y-116841050D02*
G75*
G02*
X110566925Y-116839240I2500J50D01*
G01*
X111677400Y-118739037D02*
G75*
G03*
X111121811Y-117397689I-1896900J37D01*
G01*
%TO.N,+9V*%
X113661800Y-117395600D02*
X113650550Y-117384350D01*
X113106200Y-79625086D02*
X113106200Y-55753000D01*
X113378375Y-80282175D02*
X113650550Y-80554350D01*
X114217400Y-118736937D02*
X114217400Y-134501062D01*
X113661800Y-135842400D02*
X113106200Y-136398000D01*
X114194900Y-81868527D02*
X114194900Y-114981472D01*
X114194900Y-81868527D02*
G75*
G03*
X113650558Y-80554342I-1858500J27D01*
G01*
X114217400Y-118736937D02*
G75*
G03*
X113661811Y-117395589I-1896900J37D01*
G01*
X113661800Y-135842400D02*
G75*
G03*
X114217384Y-134501062I-1341300J1341300D01*
G01*
X113650550Y-116295650D02*
G75*
G03*
X113650550Y-117384350I544350J-544350D01*
G01*
X113650549Y-116295649D02*
G75*
G03*
X114194888Y-114981472I-1314149J1314149D01*
G01*
%TO.N,~{CLK}*%
X124377400Y-134501062D02*
X124377400Y-118736937D01*
X123821800Y-116284400D02*
X123830350Y-116275850D01*
X123821800Y-135842400D02*
X123266200Y-136398000D01*
X123830350Y-80574150D02*
X123548275Y-80292075D01*
X124394500Y-81936128D02*
X124394500Y-114913871D01*
X123266200Y-79611085D02*
X123266200Y-55753000D01*
X123821800Y-117395600D02*
G75*
G02*
X124377384Y-118736937I-1341300J-1341300D01*
G01*
X124377400Y-134501062D02*
G75*
G02*
X123821811Y-135842411I-1896900J-38D01*
G01*
X123821800Y-117395600D02*
G75*
G02*
X123821800Y-116284400I555600J555600D01*
G01*
X124394500Y-81936128D02*
G75*
G03*
X123830358Y-80574142I-1926100J28D01*
G01*
X124394500Y-114913871D02*
G75*
G02*
X123830358Y-116275858I-1926100J-29D01*
G01*
%TO.N,A0*%
X126917400Y-118736937D02*
X126917400Y-134501062D01*
X126370350Y-116275850D02*
X126084000Y-116562200D01*
X126934500Y-114913871D02*
X126934500Y-81936128D01*
X126361800Y-135842400D02*
X125806200Y-136398000D01*
X126370350Y-80574150D02*
X126088275Y-80292075D01*
X126361800Y-117395600D02*
X126084000Y-117117800D01*
X125806200Y-79611085D02*
X125806200Y-55753000D01*
X126370350Y-80574150D02*
G75*
G02*
X126934488Y-81936128I-1361950J-1361950D01*
G01*
X126370350Y-116275850D02*
G75*
G03*
X126934488Y-114913871I-1361950J1361950D01*
G01*
X126917400Y-118736937D02*
G75*
G03*
X126361811Y-117395589I-1896900J37D01*
G01*
X126361800Y-135842400D02*
G75*
G03*
X126917384Y-134501062I-1341300J1341300D01*
G01*
%TO.N,A1*%
X128910350Y-80574150D02*
X128628275Y-80292075D01*
X128346200Y-79611085D02*
X128346200Y-55753000D01*
X129474500Y-114913871D02*
X129474500Y-81936128D01*
X128901800Y-117395600D02*
X128624000Y-117117800D01*
X128624000Y-116562200D02*
X128910350Y-116275850D01*
X128901800Y-135842400D02*
X128346200Y-136398000D01*
X129457400Y-134501062D02*
X129457400Y-118736937D01*
X128901800Y-117395600D02*
G75*
G02*
X129457384Y-118736937I-1341300J-1341300D01*
G01*
X128901800Y-135842400D02*
G75*
G03*
X129457384Y-134501062I-1341300J1341300D01*
G01*
X129474500Y-114913871D02*
G75*
G02*
X128910358Y-116275858I-1926100J-29D01*
G01*
X128910350Y-80574150D02*
G75*
G02*
X129474488Y-81936128I-1361950J-1361950D01*
G01*
%TO.N,A2*%
X131450350Y-116275850D02*
X131441800Y-116284400D01*
X131441800Y-135842400D02*
X130886200Y-136398000D01*
X130886200Y-79212171D02*
X130886200Y-55753000D01*
X131997400Y-118736937D02*
X131997400Y-134501062D01*
X132014500Y-114913871D02*
X132014500Y-81936128D01*
X131997400Y-118736937D02*
G75*
G03*
X131441811Y-117395589I-1896900J37D01*
G01*
X131450350Y-80574150D02*
G75*
G02*
X132014488Y-81936128I-1361950J-1361950D01*
G01*
X131441800Y-135842400D02*
G75*
G03*
X131997384Y-134501062I-1341300J1341300D01*
G01*
X131441800Y-116284400D02*
G75*
G03*
X131441800Y-117395600I555600J-555600D01*
G01*
X130886200Y-79212171D02*
G75*
G03*
X131450342Y-80574158I1926100J-29D01*
G01*
X131450350Y-116275850D02*
G75*
G03*
X132014488Y-114913871I-1361950J1361950D01*
G01*
%TO.N,A3*%
X134554500Y-81936128D02*
X134554500Y-114913871D01*
X133426200Y-79212171D02*
X133426200Y-55753000D01*
X134537400Y-118736937D02*
X134537400Y-134501062D01*
X133981800Y-135842400D02*
X133426200Y-136398000D01*
X133981800Y-116284400D02*
X133990350Y-116275850D01*
X134554500Y-81936128D02*
G75*
G03*
X133990358Y-80574142I-1926100J28D01*
G01*
X133426200Y-79212171D02*
G75*
G03*
X133990342Y-80574158I1926100J-29D01*
G01*
X133981800Y-116284400D02*
G75*
G03*
X133981800Y-117395600I555600J-555600D01*
G01*
X133981800Y-135842400D02*
G75*
G03*
X134537384Y-134501062I-1341300J1341300D01*
G01*
X133990350Y-116275850D02*
G75*
G03*
X134554488Y-114913871I-1361950J1361950D01*
G01*
X134537400Y-118736937D02*
G75*
G03*
X133981811Y-117395589I-1896900J37D01*
G01*
%TO.N,~{IORQGE}*%
X135966942Y-116842842D02*
X136521800Y-117397700D01*
X136248275Y-80292075D02*
X136530350Y-80574150D01*
X135966200Y-79611085D02*
X135966200Y-55753000D01*
X136530350Y-116275850D02*
X135966942Y-116839257D01*
X137077400Y-118739037D02*
X137077400Y-134501062D01*
X136521800Y-135842400D02*
X135966200Y-136398000D01*
X137094500Y-81936128D02*
X137094500Y-114913871D01*
X135966942Y-116839257D02*
G75*
G03*
X135966225Y-116841049I1758J-1743D01*
G01*
X136530350Y-116275850D02*
G75*
G03*
X137094488Y-114913871I-1361950J1361950D01*
G01*
X136521800Y-135842400D02*
G75*
G03*
X137077384Y-134501062I-1341300J1341300D01*
G01*
X136521800Y-117397700D02*
G75*
G02*
X137077384Y-118739037I-1341300J-1341300D01*
G01*
X135966943Y-116842841D02*
G75*
G02*
X135966226Y-116841051I1757J1741D01*
G01*
X137094500Y-81936128D02*
G75*
G03*
X136530358Y-80574142I-1926100J28D01*
G01*
%TO.N,~{OE_ROM2{slash}VIDEO}*%
X139917900Y-81936128D02*
X139917900Y-114913871D01*
X140482050Y-116275850D02*
X140490550Y-116284350D01*
X141046200Y-79611085D02*
X141046200Y-55753000D01*
X139934900Y-134500892D02*
X139934900Y-118737107D01*
X140764125Y-80292075D02*
X140482050Y-80574150D01*
X140490550Y-135842350D02*
X141046200Y-136398000D01*
X140490551Y-135842349D02*
G75*
G02*
X139934904Y-134500892I1341449J1341449D01*
G01*
X140490551Y-117395651D02*
G75*
G03*
X139934904Y-118737107I1341449J-1341449D01*
G01*
X140482050Y-80574150D02*
G75*
G03*
X139917912Y-81936128I1361950J-1361950D01*
G01*
X140482050Y-116275850D02*
G75*
G02*
X139917912Y-114913871I1361950J1361950D01*
G01*
X140490549Y-116284351D02*
G75*
G02*
X140490549Y-117395649I-555649J-555649D01*
G01*
%TO.N,~{Y}*%
X143030550Y-117395650D02*
X143308375Y-117117825D01*
X143308375Y-116562175D02*
X143022050Y-116275850D01*
X142457900Y-114913871D02*
X142457900Y-81936128D01*
X143586200Y-79212171D02*
X143586200Y-55753000D01*
X142474900Y-118737107D02*
X142474900Y-134500892D01*
X143030550Y-135842350D02*
X143586200Y-136398000D01*
X142457900Y-114913871D02*
G75*
G03*
X143022042Y-116275858I1926100J-29D01*
G01*
X143030551Y-117395651D02*
G75*
G03*
X142474904Y-118737107I1341449J-1341449D01*
G01*
X143030551Y-135842349D02*
G75*
G02*
X142474904Y-134500892I1341449J1341449D01*
G01*
X142457900Y-81936128D02*
G75*
G02*
X143022042Y-80574142I1926100J28D01*
G01*
X143586200Y-79212171D02*
G75*
G02*
X143022058Y-80574158I-1926100J-29D01*
G01*
%TO.N,V*%
X145014900Y-134500892D02*
X145014900Y-118737107D01*
X145848375Y-116562175D02*
X145562050Y-116275850D01*
X144997900Y-81936128D02*
X144997900Y-114913871D01*
X146126200Y-79212171D02*
X146126200Y-55753000D01*
X145570550Y-135842350D02*
X146126200Y-136398000D01*
X145848375Y-117117825D02*
X145570550Y-117395650D01*
X145562050Y-80574150D02*
G75*
G03*
X146126188Y-79212171I-1361950J1361950D01*
G01*
X144997900Y-81936128D02*
G75*
G02*
X145562042Y-80574142I1926100J28D01*
G01*
X145570551Y-117395651D02*
G75*
G03*
X145014904Y-118737107I1341449J-1341449D01*
G01*
X145562050Y-116275850D02*
G75*
G02*
X144997912Y-114913871I1361950J1361950D01*
G01*
X145570551Y-135842349D02*
G75*
G02*
X145014904Y-134500892I1341449J1341449D01*
G01*
%TO.N,U*%
X148110550Y-135842350D02*
X148666200Y-136398000D01*
X148110550Y-116284350D02*
X148102050Y-116275850D01*
X148666200Y-79611085D02*
X148666200Y-55753000D01*
X147537900Y-81936128D02*
X147537900Y-114913871D01*
X148384125Y-80292075D02*
X148102050Y-80574150D01*
X147554900Y-118737107D02*
X147554900Y-134500892D01*
X148110549Y-116284351D02*
G75*
G02*
X148110549Y-117395649I-555649J-555649D01*
G01*
X148110551Y-135842349D02*
G75*
G02*
X147554904Y-134500892I1341449J1341449D01*
G01*
X147537900Y-81936128D02*
G75*
G02*
X148102042Y-80574142I1926100J28D01*
G01*
X147537900Y-114913871D02*
G75*
G03*
X148102042Y-116275858I1926100J-29D01*
G01*
X148110551Y-117395651D02*
G75*
G03*
X147554904Y-118737107I1341449J-1341449D01*
G01*
%TO.N,~{BUSRQ}*%
X150642050Y-116275850D02*
X150928375Y-116562175D01*
X151206200Y-79212171D02*
X151206200Y-55753000D01*
X150928375Y-117117825D02*
X150650550Y-117395650D01*
X150650550Y-135842350D02*
X151206200Y-136398000D01*
X150094900Y-134500892D02*
X150094900Y-118737107D01*
X150077900Y-81936128D02*
X150077900Y-114913871D01*
X150650551Y-117395651D02*
G75*
G03*
X150094904Y-118737107I1341449J-1341449D01*
G01*
X150642050Y-116275850D02*
G75*
G02*
X150077912Y-114913871I1361950J1361950D01*
G01*
X150077900Y-81936128D02*
G75*
G02*
X150642042Y-80574142I1926100J28D01*
G01*
X150650551Y-135842349D02*
G75*
G02*
X150094904Y-134500892I1341449J1341449D01*
G01*
X150642050Y-80574150D02*
G75*
G03*
X151206188Y-79212171I-1361950J1361950D01*
G01*
%TO.N,~{RESET}*%
X152634900Y-134500892D02*
X152634900Y-118737107D01*
X153190550Y-116284350D02*
X153182050Y-116275850D01*
X152617900Y-114913871D02*
X152617900Y-81936128D01*
X153190550Y-135842350D02*
X153746200Y-136398000D01*
X153746200Y-79212171D02*
X153746200Y-55753000D01*
X153182050Y-80574150D02*
G75*
G03*
X152617912Y-81936128I1361950J-1361950D01*
G01*
X153182050Y-116275850D02*
G75*
G02*
X152617912Y-114913871I1361950J1361950D01*
G01*
X153190551Y-117395651D02*
G75*
G03*
X152634904Y-118737107I1341449J-1341449D01*
G01*
X153746200Y-79212171D02*
G75*
G02*
X153182058Y-80574158I-1926100J-29D01*
G01*
X153190549Y-116284351D02*
G75*
G02*
X153190549Y-117395649I-555649J-555649D01*
G01*
X152634900Y-134500892D02*
G75*
G03*
X153190548Y-135842352I1897100J-8D01*
G01*
%TO.N,A7*%
X155174900Y-134500892D02*
X155174900Y-118737107D01*
X155730550Y-135842350D02*
X156286200Y-136398000D01*
X156004125Y-80292075D02*
X155722050Y-80574150D01*
X155157900Y-114913871D02*
X155157900Y-81936128D01*
X155722050Y-116275850D02*
X156008375Y-116562175D01*
X156286200Y-79611085D02*
X156286200Y-55753000D01*
X155730550Y-117395650D02*
X156008375Y-117117825D01*
X155174900Y-134500892D02*
G75*
G03*
X155730548Y-135842352I1897100J-8D01*
G01*
X155157900Y-114913871D02*
G75*
G03*
X155722042Y-116275858I1926100J-29D01*
G01*
X155722050Y-80574150D02*
G75*
G03*
X155157912Y-81936128I1361950J-1361950D01*
G01*
X155730551Y-117395651D02*
G75*
G03*
X155174904Y-118737107I1341449J-1341449D01*
G01*
%TO.N,A6*%
X158281500Y-116295300D02*
X158553850Y-116567650D01*
X158270550Y-135842350D02*
X158826200Y-136398000D01*
X157736800Y-81869722D02*
X157736800Y-114980277D01*
X157714900Y-134500892D02*
X157714900Y-118737107D01*
X158826200Y-79239677D02*
X158826200Y-55753000D01*
X158270550Y-117395650D02*
X158553850Y-117112350D01*
X157714900Y-134500892D02*
G75*
G03*
X158270548Y-135842352I1897100J-8D01*
G01*
X157736800Y-81869722D02*
G75*
G02*
X158281494Y-80554694I1859700J22D01*
G01*
X158270551Y-117395651D02*
G75*
G03*
X157714904Y-118737107I1341449J-1341449D01*
G01*
X158281501Y-116295299D02*
G75*
G02*
X157736810Y-114980277I1314999J1314999D01*
G01*
X158826200Y-79239677D02*
G75*
G02*
X158281506Y-80554706I-1859700J-23D01*
G01*
%TO.N,A5*%
X161084125Y-80292075D02*
X160802050Y-80574150D01*
X160254900Y-134500892D02*
X160254900Y-118737107D01*
X161366200Y-79611085D02*
X161366200Y-55753000D01*
X161088375Y-116562175D02*
X160802050Y-116275850D01*
X161088375Y-117117825D02*
X160810550Y-117395650D01*
X160237900Y-81936128D02*
X160237900Y-114913871D01*
X160810550Y-135842350D02*
X161366200Y-136398000D01*
X160254900Y-118737107D02*
G75*
G02*
X160810548Y-117395648I1897100J7D01*
G01*
X160254900Y-134500892D02*
G75*
G03*
X160810548Y-135842352I1897100J-8D01*
G01*
X160237900Y-81936128D02*
G75*
G02*
X160802042Y-80574142I1926100J28D01*
G01*
X160802050Y-116275850D02*
G75*
G02*
X160237912Y-114913871I1361950J1361950D01*
G01*
%TO.N,A4*%
X162794900Y-118737107D02*
X162794900Y-134500892D01*
X163350550Y-116284350D02*
X163342050Y-116275850D01*
X163350550Y-135842350D02*
X163906200Y-136398000D01*
X163342050Y-80574150D02*
X163624125Y-80292075D01*
X163906200Y-79611085D02*
X163906200Y-55753000D01*
X162777900Y-81936128D02*
X162777900Y-114913871D01*
X163350549Y-116284351D02*
G75*
G02*
X163350549Y-117395649I-555649J-555649D01*
G01*
X162777900Y-81936128D02*
G75*
G02*
X163342042Y-80574142I1926100J28D01*
G01*
X162794900Y-118737107D02*
G75*
G02*
X163350548Y-117395648I1897100J7D01*
G01*
X162777900Y-114913871D02*
G75*
G03*
X163342042Y-116275858I1926100J-29D01*
G01*
X163350551Y-135842349D02*
G75*
G02*
X162794904Y-134500892I1341449J1341449D01*
G01*
%TO.N,~{ROMCS}*%
X165334900Y-118737107D02*
X165334900Y-134500892D01*
X166446200Y-79617096D02*
X166446200Y-55753000D01*
X165890550Y-80565650D02*
X166168375Y-80287825D01*
X165890550Y-135842350D02*
X166446200Y-136398000D01*
X165334900Y-81907107D02*
X165334900Y-114942892D01*
X165890549Y-116284351D02*
G75*
G02*
X165890549Y-117395649I-555649J-555649D01*
G01*
X165334900Y-118737107D02*
G75*
G02*
X165890548Y-117395648I1897100J7D01*
G01*
X165334900Y-81907107D02*
G75*
G02*
X165890548Y-80565648I1897100J7D01*
G01*
X165890551Y-135842349D02*
G75*
G02*
X165334904Y-134500892I1341449J1341449D01*
G01*
X165890551Y-116284349D02*
G75*
G02*
X165334904Y-114942892I1341449J1341449D01*
G01*
%TO.N,~{BUSACK}*%
X167874900Y-118737107D02*
X167874900Y-134500892D01*
X168430550Y-117395650D02*
X169517972Y-116308225D01*
X170116600Y-81939713D02*
X170116600Y-114910286D01*
X168430550Y-135842350D02*
X168986200Y-136398000D01*
X169268800Y-80292600D02*
X169551400Y-80575200D01*
X169551101Y-116275098D02*
X169551400Y-116274800D01*
X168986200Y-79610343D02*
X168986200Y-55753000D01*
X168430551Y-135842349D02*
G75*
G02*
X167874904Y-134500892I1341449J1341449D01*
G01*
X170116600Y-81939713D02*
G75*
G03*
X169551404Y-80575196I-1929700J13D01*
G01*
X169551400Y-116274800D02*
G75*
G03*
X170116594Y-114910286I-1364500J1364500D01*
G01*
X168430551Y-117395651D02*
G75*
G03*
X167874904Y-118737107I1341449J-1341449D01*
G01*
%TO.N,A9*%
X172081800Y-116284400D02*
X172064437Y-116301762D01*
X170970550Y-135842350D02*
X171526200Y-136398000D01*
X170987915Y-117378284D02*
X170970550Y-117395650D01*
X172637400Y-81906937D02*
X172637400Y-114943062D01*
X171526200Y-79224262D02*
X171526200Y-55753000D01*
X170414900Y-134500892D02*
X170414900Y-118737107D01*
X172081800Y-80565600D02*
G75*
G02*
X172637384Y-81906937I-1341300J-1341300D01*
G01*
X172081800Y-116284400D02*
G75*
G03*
X172637384Y-114943062I-1341300J1341300D01*
G01*
X170970551Y-117395651D02*
G75*
G03*
X170414904Y-118737107I1341449J-1341449D01*
G01*
X170414900Y-134500892D02*
G75*
G03*
X170970548Y-135842352I1897100J-8D01*
G01*
X172081800Y-80565600D02*
G75*
G02*
X171526216Y-79224262I1341300J1341300D01*
G01*
%TO.N,A11*%
X173510550Y-135842350D02*
X174066200Y-136398000D01*
X174066200Y-55753000D02*
X174066200Y-80010000D01*
X173510550Y-117395650D02*
X174066200Y-116840000D01*
X172954900Y-134500892D02*
X172954900Y-118737107D01*
X172954900Y-134500892D02*
G75*
G03*
X173510548Y-135842352I1897100J-8D01*
G01*
X173510551Y-117395651D02*
G75*
G03*
X172954904Y-118737107I1341449J-1341449D01*
G01*
%TD*%
%TA.AperFunction,Conductor*%
%TO.N,GND*%
G36*
X122064065Y-119833435D02*
G01*
X122108582Y-119884811D01*
X122168664Y-120013658D01*
X122168668Y-120013666D01*
X122295370Y-120194615D01*
X122295375Y-120194621D01*
X122451578Y-120350824D01*
X122451584Y-120350829D01*
X122632533Y-120477531D01*
X122632535Y-120477532D01*
X122632538Y-120477534D01*
X122832750Y-120570894D01*
X123046132Y-120628070D01*
X123203323Y-120641822D01*
X123266198Y-120647323D01*
X123266200Y-120647323D01*
X123266202Y-120647323D01*
X123321217Y-120642509D01*
X123486268Y-120628070D01*
X123595809Y-120598718D01*
X123665655Y-120600381D01*
X123723518Y-120639543D01*
X123751023Y-120703771D01*
X123751900Y-120718493D01*
X123751900Y-133321301D01*
X123732215Y-133388340D01*
X123679411Y-133434095D01*
X123610253Y-133444039D01*
X123597602Y-133441543D01*
X123464497Y-133408003D01*
X123331041Y-133397500D01*
X123331040Y-133397500D01*
X123201368Y-133397500D01*
X123201352Y-133397501D01*
X123067897Y-133408003D01*
X122847542Y-133463528D01*
X122847539Y-133463529D01*
X122640631Y-133557512D01*
X122640625Y-133557515D01*
X122453823Y-133686931D01*
X122293131Y-133847623D01*
X122163715Y-134034425D01*
X122163714Y-134034427D01*
X122108824Y-134155270D01*
X122063176Y-134208167D01*
X121996177Y-134227988D01*
X121929098Y-134208440D01*
X121883236Y-134155729D01*
X121883026Y-134155269D01*
X121828251Y-134034677D01*
X121828250Y-134034675D01*
X121698882Y-133847944D01*
X121538255Y-133687317D01*
X121351524Y-133557949D01*
X121351522Y-133557948D01*
X121144697Y-133464004D01*
X120976200Y-133421546D01*
X120976200Y-136524000D01*
X120956515Y-136591039D01*
X120903711Y-136636794D01*
X120852200Y-136648000D01*
X116924201Y-136648000D01*
X116924201Y-138200821D01*
X116934699Y-138334217D01*
X116990204Y-138554499D01*
X117084148Y-138761322D01*
X117084149Y-138761324D01*
X117147329Y-138852519D01*
X117169326Y-138918836D01*
X117151978Y-138986517D01*
X117100792Y-139034076D01*
X117045415Y-139047135D01*
X114247397Y-139047457D01*
X114180356Y-139027780D01*
X114134595Y-138974981D01*
X114124643Y-138905824D01*
X114145455Y-138852841D01*
X114145678Y-138852519D01*
X114208686Y-138761572D01*
X114302669Y-138554663D01*
X114302711Y-138554499D01*
X114358195Y-138334305D01*
X114358195Y-138334304D01*
X114358197Y-138334297D01*
X114368700Y-138200841D01*
X114368699Y-136148000D01*
X116924200Y-136148000D01*
X117936200Y-136148000D01*
X118436200Y-136148000D01*
X120476200Y-136148000D01*
X120476200Y-133421546D01*
X120307702Y-133464004D01*
X120100877Y-133557948D01*
X120100875Y-133557949D01*
X119914144Y-133687317D01*
X119753517Y-133847944D01*
X119624150Y-134034674D01*
X119569099Y-134155873D01*
X119523452Y-134208770D01*
X119456453Y-134228591D01*
X119389373Y-134209043D01*
X119343511Y-134156332D01*
X119343301Y-134155873D01*
X119288249Y-134034674D01*
X119158882Y-133847944D01*
X118998255Y-133687317D01*
X118811524Y-133557949D01*
X118811522Y-133557948D01*
X118604697Y-133464004D01*
X118436200Y-133421546D01*
X118436200Y-136148000D01*
X117936200Y-136148000D01*
X117936200Y-133421546D01*
X117767702Y-133464004D01*
X117560877Y-133557948D01*
X117560875Y-133557949D01*
X117374144Y-133687317D01*
X117213517Y-133847944D01*
X117084149Y-134034675D01*
X117084148Y-134034677D01*
X116990204Y-134241500D01*
X116934699Y-134461782D01*
X116924200Y-134595179D01*
X116924200Y-136148000D01*
X114368699Y-136148000D01*
X114368699Y-136018200D01*
X114387705Y-135952230D01*
X114416882Y-135905793D01*
X114531650Y-135723139D01*
X114654575Y-135467878D01*
X114748146Y-135200459D01*
X114811186Y-134924244D01*
X114842902Y-134642708D01*
X114842900Y-134501049D01*
X114842900Y-134500889D01*
X114842900Y-120593071D01*
X114862585Y-120526032D01*
X114915389Y-120480277D01*
X114984547Y-120470333D01*
X115019302Y-120480688D01*
X115212750Y-120570894D01*
X115426132Y-120628070D01*
X115583323Y-120641822D01*
X115646198Y-120647323D01*
X115646200Y-120647323D01*
X115646202Y-120647323D01*
X115701217Y-120642509D01*
X115866268Y-120628070D01*
X116079650Y-120570894D01*
X116279862Y-120477534D01*
X116460820Y-120350826D01*
X116617026Y-120194620D01*
X116743734Y-120013662D01*
X116803818Y-119884811D01*
X116849990Y-119832371D01*
X116917183Y-119813219D01*
X116984065Y-119833435D01*
X117028582Y-119884811D01*
X117088664Y-120013658D01*
X117088668Y-120013666D01*
X117215370Y-120194615D01*
X117215375Y-120194621D01*
X117371578Y-120350824D01*
X117371584Y-120350829D01*
X117552533Y-120477531D01*
X117552535Y-120477532D01*
X117552538Y-120477534D01*
X117752750Y-120570894D01*
X117966132Y-120628070D01*
X118123323Y-120641822D01*
X118186198Y-120647323D01*
X118186200Y-120647323D01*
X118186202Y-120647323D01*
X118241217Y-120642509D01*
X118406268Y-120628070D01*
X118619650Y-120570894D01*
X118819862Y-120477534D01*
X119000820Y-120350826D01*
X119157026Y-120194620D01*
X119283734Y-120013662D01*
X119343818Y-119884811D01*
X119389990Y-119832371D01*
X119457183Y-119813219D01*
X119524065Y-119833435D01*
X119568582Y-119884811D01*
X119628664Y-120013658D01*
X119628668Y-120013666D01*
X119755370Y-120194615D01*
X119755375Y-120194621D01*
X119911578Y-120350824D01*
X119911584Y-120350829D01*
X120092533Y-120477531D01*
X120092535Y-120477532D01*
X120092538Y-120477534D01*
X120292750Y-120570894D01*
X120506132Y-120628070D01*
X120663323Y-120641822D01*
X120726198Y-120647323D01*
X120726200Y-120647323D01*
X120726202Y-120647323D01*
X120781217Y-120642509D01*
X120946268Y-120628070D01*
X121159650Y-120570894D01*
X121359862Y-120477534D01*
X121540820Y-120350826D01*
X121697026Y-120194620D01*
X121823734Y-120013662D01*
X121883818Y-119884811D01*
X121929990Y-119832371D01*
X121997183Y-119813219D01*
X122064065Y-119833435D01*
G37*
%TD.AperFunction*%
%TA.AperFunction,Conductor*%
G36*
X139265857Y-120498763D02*
G01*
X139304096Y-120557239D01*
X139309400Y-120593117D01*
X139309400Y-133446228D01*
X139289715Y-133513267D01*
X139236911Y-133559022D01*
X139167753Y-133568966D01*
X139134119Y-133559127D01*
X138924697Y-133464004D01*
X138756200Y-133421546D01*
X138756200Y-136524000D01*
X138736515Y-136591039D01*
X138683711Y-136636794D01*
X138632200Y-136648000D01*
X138380200Y-136648000D01*
X138313161Y-136628315D01*
X138267406Y-136575511D01*
X138256200Y-136524000D01*
X138256200Y-133421546D01*
X138087702Y-133464004D01*
X137878181Y-133559173D01*
X137809002Y-133568976D01*
X137745506Y-133539821D01*
X137707852Y-133480966D01*
X137702900Y-133446274D01*
X137702900Y-120593071D01*
X137722585Y-120526032D01*
X137775389Y-120480277D01*
X137844547Y-120470333D01*
X137879302Y-120480688D01*
X138072750Y-120570894D01*
X138286132Y-120628070D01*
X138443323Y-120641822D01*
X138506198Y-120647323D01*
X138506200Y-120647323D01*
X138506202Y-120647323D01*
X138561217Y-120642509D01*
X138726268Y-120628070D01*
X138939650Y-120570894D01*
X139132998Y-120480734D01*
X139202072Y-120470243D01*
X139265857Y-120498763D01*
G37*
%TD.AperFunction*%
%TA.AperFunction,Conductor*%
G36*
X117805200Y-80060160D02*
G01*
X117831164Y-80157061D01*
X117881324Y-80243940D01*
X117952260Y-80314876D01*
X118039139Y-80365036D01*
X118136040Y-80391000D01*
X118158753Y-80391000D01*
X117488010Y-81061740D01*
X117552789Y-81107098D01*
X117681981Y-81167342D01*
X117734420Y-81213514D01*
X117753572Y-81280708D01*
X117733356Y-81347589D01*
X117681981Y-81392106D01*
X117552540Y-81452465D01*
X117552538Y-81452466D01*
X117371577Y-81579175D01*
X117215375Y-81735377D01*
X117088666Y-81916338D01*
X117088665Y-81916340D01*
X117028582Y-82045189D01*
X116982409Y-82097628D01*
X116915216Y-82116780D01*
X116848335Y-82096564D01*
X116803818Y-82045189D01*
X116743817Y-81916517D01*
X116743734Y-81916339D01*
X116670979Y-81812433D01*
X116617027Y-81735381D01*
X116617023Y-81735377D01*
X116460820Y-81579174D01*
X116460816Y-81579171D01*
X116460815Y-81579170D01*
X116279866Y-81452468D01*
X116279858Y-81452464D01*
X116151011Y-81392382D01*
X116098571Y-81346210D01*
X116079419Y-81279017D01*
X116099635Y-81212135D01*
X116151011Y-81167618D01*
X116157002Y-81164824D01*
X116279862Y-81107534D01*
X116460820Y-80980826D01*
X116617026Y-80824620D01*
X116743734Y-80643662D01*
X116804094Y-80514218D01*
X116850266Y-80461779D01*
X116917459Y-80442627D01*
X116984341Y-80462843D01*
X117028858Y-80514219D01*
X117089098Y-80643405D01*
X117089101Y-80643411D01*
X117134458Y-80708187D01*
X117134459Y-80708188D01*
X117805200Y-80037447D01*
X117805200Y-80060160D01*
G37*
%TD.AperFunction*%
%TA.AperFunction,Conductor*%
G36*
X120345200Y-80060160D02*
G01*
X120371164Y-80157061D01*
X120421324Y-80243940D01*
X120492260Y-80314876D01*
X120579139Y-80365036D01*
X120676040Y-80391000D01*
X120698753Y-80391000D01*
X120028010Y-81061740D01*
X120092789Y-81107098D01*
X120221981Y-81167342D01*
X120274420Y-81213514D01*
X120293572Y-81280708D01*
X120273356Y-81347589D01*
X120221981Y-81392106D01*
X120092540Y-81452465D01*
X120092538Y-81452466D01*
X119911577Y-81579175D01*
X119755375Y-81735377D01*
X119628666Y-81916338D01*
X119628665Y-81916340D01*
X119568582Y-82045189D01*
X119522409Y-82097628D01*
X119455216Y-82116780D01*
X119388335Y-82096564D01*
X119343818Y-82045189D01*
X119283817Y-81916517D01*
X119283734Y-81916339D01*
X119210979Y-81812433D01*
X119157027Y-81735381D01*
X119157023Y-81735377D01*
X119000820Y-81579174D01*
X119000816Y-81579171D01*
X119000815Y-81579170D01*
X118819866Y-81452468D01*
X118819862Y-81452466D01*
X118690418Y-81392105D01*
X118637979Y-81345932D01*
X118618827Y-81278739D01*
X118639043Y-81211858D01*
X118690419Y-81167340D01*
X118819616Y-81107095D01*
X118819617Y-81107094D01*
X118884388Y-81061741D01*
X118213648Y-80391000D01*
X118236360Y-80391000D01*
X118333261Y-80365036D01*
X118420140Y-80314876D01*
X118491076Y-80243940D01*
X118541236Y-80157061D01*
X118567200Y-80060160D01*
X118567200Y-80037447D01*
X119237941Y-80708188D01*
X119283294Y-80643417D01*
X119283300Y-80643407D01*
X119343818Y-80513627D01*
X119389990Y-80461187D01*
X119457183Y-80442035D01*
X119524065Y-80462251D01*
X119568582Y-80513627D01*
X119629098Y-80643405D01*
X119629101Y-80643411D01*
X119674458Y-80708187D01*
X119674459Y-80708188D01*
X120345200Y-80037447D01*
X120345200Y-80060160D01*
G37*
%TD.AperFunction*%
%TA.AperFunction,Conductor*%
G36*
X121777941Y-80708188D02*
G01*
X121823294Y-80643417D01*
X121823295Y-80643416D01*
X121883540Y-80514219D01*
X121929712Y-80461780D01*
X121996906Y-80442627D01*
X122063787Y-80462842D01*
X122108305Y-80514218D01*
X122168666Y-80643662D01*
X122168668Y-80643666D01*
X122295370Y-80824615D01*
X122295375Y-80824621D01*
X122451578Y-80980824D01*
X122451584Y-80980829D01*
X122632533Y-81107531D01*
X122632535Y-81107532D01*
X122632538Y-81107534D01*
X122710948Y-81144097D01*
X122761389Y-81167618D01*
X122813828Y-81213790D01*
X122832980Y-81280984D01*
X122812764Y-81347865D01*
X122761389Y-81392382D01*
X122632540Y-81452465D01*
X122632538Y-81452466D01*
X122451577Y-81579175D01*
X122295375Y-81735377D01*
X122168666Y-81916338D01*
X122168665Y-81916340D01*
X122108582Y-82045189D01*
X122062409Y-82097628D01*
X121995216Y-82116780D01*
X121928335Y-82096564D01*
X121883818Y-82045189D01*
X121823817Y-81916517D01*
X121823734Y-81916339D01*
X121750979Y-81812433D01*
X121697027Y-81735381D01*
X121697023Y-81735377D01*
X121540820Y-81579174D01*
X121540816Y-81579171D01*
X121540815Y-81579170D01*
X121359866Y-81452468D01*
X121359862Y-81452466D01*
X121230418Y-81392105D01*
X121177979Y-81345932D01*
X121158827Y-81278739D01*
X121179043Y-81211858D01*
X121230419Y-81167340D01*
X121359616Y-81107095D01*
X121359617Y-81107094D01*
X121424388Y-81061741D01*
X120753648Y-80391000D01*
X120776360Y-80391000D01*
X120873261Y-80365036D01*
X120960140Y-80314876D01*
X121031076Y-80243940D01*
X121081236Y-80157061D01*
X121107200Y-80060160D01*
X121107200Y-80037447D01*
X121777941Y-80708188D01*
G37*
%TD.AperFunction*%
%TA.AperFunction,Conductor*%
G36*
X114693239Y-51708685D02*
G01*
X114738994Y-51761489D01*
X114750200Y-51813000D01*
X114750200Y-60579000D01*
X116528200Y-60579000D01*
X116528200Y-56003000D01*
X116924200Y-56003000D01*
X116924200Y-59610844D01*
X116930601Y-59670372D01*
X116930603Y-59670379D01*
X116980845Y-59805086D01*
X116980849Y-59805093D01*
X117067009Y-59920187D01*
X117067012Y-59920190D01*
X117182106Y-60006350D01*
X117182113Y-60006354D01*
X117316820Y-60056596D01*
X117316827Y-60056598D01*
X117376355Y-60062999D01*
X117376372Y-60063000D01*
X117936200Y-60063000D01*
X117936200Y-56003000D01*
X118436200Y-56003000D01*
X118436200Y-60063000D01*
X118996028Y-60063000D01*
X118996044Y-60062999D01*
X119055572Y-60056598D01*
X119055579Y-60056596D01*
X119190286Y-60006354D01*
X119190293Y-60006350D01*
X119305386Y-59920191D01*
X119356933Y-59851334D01*
X119412867Y-59809463D01*
X119482559Y-59804479D01*
X119543882Y-59837964D01*
X119555467Y-59851334D01*
X119607013Y-59920191D01*
X119722106Y-60006350D01*
X119722113Y-60006354D01*
X119856820Y-60056596D01*
X119856827Y-60056598D01*
X119916355Y-60062999D01*
X119916372Y-60063000D01*
X120476200Y-60063000D01*
X120476200Y-56003000D01*
X118436200Y-56003000D01*
X117936200Y-56003000D01*
X116924200Y-56003000D01*
X116528200Y-56003000D01*
X116528200Y-51813000D01*
X116547885Y-51745961D01*
X116600689Y-51700206D01*
X116652200Y-51689000D01*
X116808533Y-51689000D01*
X116875572Y-51708685D01*
X116921327Y-51761489D01*
X116930869Y-51827852D01*
X116931431Y-51827913D01*
X116931194Y-51830113D01*
X116931271Y-51830647D01*
X116930961Y-51832282D01*
X116924200Y-51895155D01*
X116924200Y-55503000D01*
X120852200Y-55503000D01*
X120919239Y-55522685D01*
X120964994Y-55575489D01*
X120976200Y-55627000D01*
X120976200Y-60063000D01*
X121536028Y-60063000D01*
X121536044Y-60062999D01*
X121595572Y-60056598D01*
X121595579Y-60056596D01*
X121730286Y-60006354D01*
X121730293Y-60006350D01*
X121845387Y-59920190D01*
X121845388Y-59920189D01*
X121896620Y-59851752D01*
X121952553Y-59809880D01*
X122022245Y-59804896D01*
X122083568Y-59838381D01*
X122095153Y-59851750D01*
X122095466Y-59852168D01*
X122146387Y-59920190D01*
X122146655Y-59920547D01*
X122261864Y-60006793D01*
X122261871Y-60006797D01*
X122306818Y-60023561D01*
X122396717Y-60057091D01*
X122456327Y-60063500D01*
X122516700Y-60063499D01*
X122583738Y-60083183D01*
X122629494Y-60135986D01*
X122640700Y-60187499D01*
X122640700Y-78842201D01*
X122621015Y-78909240D01*
X122587823Y-78943776D01*
X122451577Y-79039175D01*
X122295375Y-79195377D01*
X122168667Y-79376337D01*
X122108305Y-79505782D01*
X122062132Y-79558221D01*
X121994938Y-79577372D01*
X121928057Y-79557156D01*
X121883541Y-79505780D01*
X121823298Y-79376589D01*
X121823297Y-79376587D01*
X121777941Y-79311811D01*
X121777940Y-79311810D01*
X121107200Y-79982551D01*
X121107200Y-79959840D01*
X121081236Y-79862939D01*
X121031076Y-79776060D01*
X120960140Y-79705124D01*
X120873261Y-79654964D01*
X120776360Y-79629000D01*
X120753648Y-79629000D01*
X121424388Y-78958259D01*
X121424387Y-78958258D01*
X121359611Y-78912901D01*
X121359605Y-78912898D01*
X121159484Y-78819580D01*
X121159470Y-78819575D01*
X120946186Y-78762426D01*
X120946176Y-78762424D01*
X120726201Y-78743179D01*
X120726199Y-78743179D01*
X120506223Y-78762424D01*
X120506213Y-78762426D01*
X120292929Y-78819575D01*
X120292920Y-78819579D01*
X120092790Y-78912901D01*
X120028011Y-78958258D01*
X120698753Y-79629000D01*
X120676040Y-79629000D01*
X120579139Y-79654964D01*
X120492260Y-79705124D01*
X120421324Y-79776060D01*
X120371164Y-79862939D01*
X120345200Y-79959840D01*
X120345200Y-79982553D01*
X119674458Y-79311811D01*
X119629101Y-79376590D01*
X119568582Y-79506373D01*
X119522409Y-79558812D01*
X119455216Y-79577964D01*
X119388335Y-79557748D01*
X119343818Y-79506373D01*
X119283296Y-79376586D01*
X119237941Y-79311811D01*
X119237940Y-79311810D01*
X118567200Y-79982551D01*
X118567200Y-79959840D01*
X118541236Y-79862939D01*
X118491076Y-79776060D01*
X118420140Y-79705124D01*
X118333261Y-79654964D01*
X118236360Y-79629000D01*
X118213648Y-79629000D01*
X118884388Y-78958259D01*
X118884387Y-78958258D01*
X118819611Y-78912901D01*
X118819605Y-78912898D01*
X118619484Y-78819580D01*
X118619470Y-78819575D01*
X118406186Y-78762426D01*
X118406176Y-78762424D01*
X118186201Y-78743179D01*
X118186199Y-78743179D01*
X117966223Y-78762424D01*
X117966213Y-78762426D01*
X117752929Y-78819575D01*
X117752920Y-78819579D01*
X117552790Y-78912901D01*
X117488011Y-78958258D01*
X118158753Y-79629000D01*
X118136040Y-79629000D01*
X118039139Y-79654964D01*
X117952260Y-79705124D01*
X117881324Y-79776060D01*
X117831164Y-79862939D01*
X117805200Y-79959840D01*
X117805200Y-79982553D01*
X117134458Y-79311811D01*
X117089101Y-79376590D01*
X117028858Y-79505781D01*
X116982685Y-79558220D01*
X116915492Y-79577372D01*
X116848611Y-79557156D01*
X116804094Y-79505781D01*
X116746109Y-79381433D01*
X116743734Y-79376339D01*
X116617026Y-79195380D01*
X116460820Y-79039174D01*
X116460816Y-79039171D01*
X116460815Y-79039170D01*
X116279866Y-78912468D01*
X116279862Y-78912466D01*
X116229963Y-78889198D01*
X116079650Y-78819106D01*
X116079647Y-78819105D01*
X116079645Y-78819104D01*
X115866270Y-78761930D01*
X115866262Y-78761929D01*
X115646202Y-78742677D01*
X115646198Y-78742677D01*
X115426137Y-78761929D01*
X115426129Y-78761930D01*
X115212754Y-78819104D01*
X115212748Y-78819107D01*
X115012540Y-78912465D01*
X115012538Y-78912466D01*
X114831577Y-79039175D01*
X114675375Y-79195377D01*
X114548666Y-79376338D01*
X114548665Y-79376340D01*
X114488582Y-79505189D01*
X114442409Y-79557628D01*
X114375216Y-79576780D01*
X114308335Y-79556564D01*
X114263818Y-79505189D01*
X114206109Y-79381433D01*
X114203734Y-79376339D01*
X114077026Y-79195380D01*
X113920820Y-79039174D01*
X113784576Y-78943775D01*
X113740952Y-78889198D01*
X113731700Y-78842200D01*
X113731700Y-60187499D01*
X113751385Y-60120460D01*
X113804189Y-60074705D01*
X113855700Y-60063499D01*
X113916071Y-60063499D01*
X113916072Y-60063499D01*
X113975683Y-60057091D01*
X114110531Y-60006796D01*
X114225746Y-59920546D01*
X114311996Y-59805331D01*
X114362291Y-59670483D01*
X114368700Y-59610873D01*
X114368699Y-51895128D01*
X114362291Y-51835517D01*
X114361462Y-51827804D01*
X114364467Y-51827480D01*
X114367436Y-51771782D01*
X114408285Y-51715098D01*
X114473296Y-51689497D01*
X114484385Y-51689000D01*
X114626200Y-51689000D01*
X114693239Y-51708685D01*
G37*
%TD.AperFunction*%
%TA.AperFunction,Conductor*%
G36*
X138699239Y-55522685D02*
G01*
X138744994Y-55575489D01*
X138756200Y-55627000D01*
X138756200Y-60063000D01*
X139316028Y-60063000D01*
X139316044Y-60062999D01*
X139375572Y-60056598D01*
X139375579Y-60056596D01*
X139510286Y-60006354D01*
X139510293Y-60006350D01*
X139625387Y-59920190D01*
X139625388Y-59920189D01*
X139676620Y-59851752D01*
X139732553Y-59809880D01*
X139802245Y-59804896D01*
X139863568Y-59838381D01*
X139875153Y-59851750D01*
X139875466Y-59852168D01*
X139926387Y-59920190D01*
X139926655Y-59920547D01*
X140041864Y-60006793D01*
X140041871Y-60006797D01*
X140086818Y-60023561D01*
X140176717Y-60057091D01*
X140236327Y-60063500D01*
X140296700Y-60063499D01*
X140363738Y-60083183D01*
X140409494Y-60135986D01*
X140420700Y-60187499D01*
X140420700Y-78842201D01*
X140401015Y-78909240D01*
X140367823Y-78943776D01*
X140231577Y-79039175D01*
X140075375Y-79195377D01*
X139948667Y-79376337D01*
X139888305Y-79505782D01*
X139842132Y-79558221D01*
X139774938Y-79577372D01*
X139708057Y-79557156D01*
X139663541Y-79505780D01*
X139603298Y-79376589D01*
X139603297Y-79376587D01*
X139557941Y-79311811D01*
X139557940Y-79311810D01*
X138887200Y-79982550D01*
X138887200Y-79959840D01*
X138861236Y-79862939D01*
X138811076Y-79776060D01*
X138740140Y-79705124D01*
X138653261Y-79654964D01*
X138556360Y-79629000D01*
X138533648Y-79629000D01*
X139204388Y-78958259D01*
X139204387Y-78958258D01*
X139139611Y-78912901D01*
X139139605Y-78912898D01*
X138939484Y-78819580D01*
X138939470Y-78819575D01*
X138726186Y-78762426D01*
X138726176Y-78762424D01*
X138506201Y-78743179D01*
X138506199Y-78743179D01*
X138286223Y-78762424D01*
X138286213Y-78762426D01*
X138072929Y-78819575D01*
X138072920Y-78819579D01*
X137872790Y-78912901D01*
X137808011Y-78958258D01*
X138478753Y-79629000D01*
X138456040Y-79629000D01*
X138359139Y-79654964D01*
X138272260Y-79705124D01*
X138201324Y-79776060D01*
X138151164Y-79862939D01*
X138125200Y-79959840D01*
X138125200Y-79982553D01*
X137454458Y-79311811D01*
X137409101Y-79376590D01*
X137348858Y-79505781D01*
X137302685Y-79558220D01*
X137235492Y-79577372D01*
X137168611Y-79557156D01*
X137124094Y-79505781D01*
X137066109Y-79381433D01*
X137063734Y-79376339D01*
X136937026Y-79195380D01*
X136780820Y-79039174D01*
X136644576Y-78943775D01*
X136600952Y-78889198D01*
X136591700Y-78842200D01*
X136591700Y-60187499D01*
X136611385Y-60120460D01*
X136664189Y-60074705D01*
X136715700Y-60063499D01*
X136776071Y-60063499D01*
X136776072Y-60063499D01*
X136835683Y-60057091D01*
X136970531Y-60006796D01*
X137085746Y-59920546D01*
X137137247Y-59851749D01*
X137193179Y-59809880D01*
X137262871Y-59804896D01*
X137324194Y-59838381D01*
X137335779Y-59851751D01*
X137387013Y-59920190D01*
X137502106Y-60006350D01*
X137502113Y-60006354D01*
X137636820Y-60056596D01*
X137636827Y-60056598D01*
X137696355Y-60062999D01*
X137696372Y-60063000D01*
X138256200Y-60063000D01*
X138256200Y-55627000D01*
X138275885Y-55559961D01*
X138328689Y-55514206D01*
X138380200Y-55503000D01*
X138632200Y-55503000D01*
X138699239Y-55522685D01*
G37*
%TD.AperFunction*%
%TD*%
M02*
