M48
; DRILL file {KiCad 8.0.0} date 2024-02-29T19:57:37+0100
; FORMAT={-:-/ absolute / metric / decimal}
; #@! TF.CreationDate,2024-02-29T19:57:37+01:00
; #@! TF.GenerationSoftware,Kicad,Pcbnew,8.0.0
; #@! TF.FileFunction,Plated,1,2,PTH
FMAT,2
METRIC
; #@! TA.AperFunction,Plated,PTH,ComponentDrill
T1C0.762
%
G90
G05
T1
X105.486Y-80.01
X105.486Y-82.55
X105.486Y-116.84
X105.486Y-119.38
X108.026Y-80.01
X108.026Y-82.55
X108.026Y-116.84
X108.026Y-119.38
X110.566Y-80.01
X110.566Y-82.55
X110.566Y-116.84
X110.566Y-119.38
X113.106Y-80.01
X113.106Y-82.55
X113.106Y-116.84
X113.106Y-119.38
X115.646Y-80.01
X115.646Y-82.55
X115.646Y-116.84
X115.646Y-119.38
X118.186Y-80.01
X118.186Y-82.55
X118.186Y-116.84
X118.186Y-119.38
X120.726Y-80.01
X120.726Y-82.55
X120.726Y-116.84
X120.726Y-119.38
X123.266Y-80.01
X123.266Y-82.55
X123.266Y-116.84
X123.266Y-119.38
X125.806Y-80.01
X125.806Y-82.55
X125.806Y-116.84
X125.806Y-119.38
X128.346Y-80.01
X128.346Y-82.55
X128.346Y-116.84
X128.346Y-119.38
X130.886Y-80.01
X130.886Y-82.55
X130.886Y-116.84
X130.886Y-119.38
X133.426Y-80.01
X133.426Y-82.55
X133.426Y-116.84
X133.426Y-119.38
X135.966Y-80.01
X135.966Y-82.55
X135.966Y-116.84
X135.966Y-119.38
X138.506Y-80.01
X138.506Y-82.55
X138.506Y-116.84
X138.506Y-119.38
X141.046Y-80.01
X141.046Y-82.55
X141.046Y-116.84
X141.046Y-119.38
X143.586Y-80.01
X143.586Y-82.55
X143.586Y-116.84
X143.586Y-119.38
X146.126Y-80.01
X146.126Y-82.55
X146.126Y-116.84
X146.126Y-119.38
X148.666Y-80.01
X148.666Y-82.55
X148.666Y-116.84
X148.666Y-119.38
X151.206Y-80.01
X151.206Y-82.55
X151.206Y-116.84
X151.206Y-119.38
X153.746Y-80.01
X153.746Y-82.55
X153.746Y-116.84
X153.746Y-119.38
X156.286Y-80.01
X156.286Y-82.55
X156.286Y-116.84
X156.286Y-119.38
X158.826Y-80.01
X158.826Y-82.55
X158.826Y-116.84
X158.826Y-119.38
X161.366Y-80.01
X161.366Y-82.55
X161.366Y-116.84
X161.366Y-119.38
X163.906Y-80.01
X163.906Y-82.55
X163.906Y-116.84
X163.906Y-119.38
X166.446Y-80.01
X166.446Y-82.55
X166.446Y-116.84
X166.446Y-119.38
X168.986Y-80.01
X168.986Y-82.55
X168.986Y-116.84
X168.986Y-119.38
X171.526Y-80.01
X171.526Y-82.55
X171.526Y-116.84
X171.526Y-119.38
X174.066Y-80.01
X174.066Y-82.55
X174.066Y-116.84
X174.066Y-119.38
M30
