%TF.GenerationSoftware,KiCad,Pcbnew,8.0.0*%
%TF.CreationDate,2024-03-05T08:56:25+01:00*%
%TF.ProjectId,ZX Spectrum_ BUS Expander,5a582053-7065-4637-9472-756d2c204255,rev?*%
%TF.SameCoordinates,Original*%
%TF.FileFunction,Legend,Top*%
%TF.FilePolarity,Positive*%
%FSLAX46Y46*%
G04 Gerber Fmt 4.6, Leading zero omitted, Abs format (unit mm)*
G04 Created by KiCad (PCBNEW 8.0.0) date 2024-03-05 08:56:25*
%MOMM*%
%LPD*%
G01*
G04 APERTURE LIST*
%ADD10C,0.200000*%
%ADD11C,0.150000*%
%ADD12C,0.254000*%
%ADD13C,0.300000*%
%ADD14C,0.100000*%
%ADD15C,0.120000*%
%ADD16C,0.000000*%
G04 APERTURE END LIST*
D10*
X174498000Y-98806000D02*
X174498000Y-101092000D01*
D11*
X183321009Y-59379887D02*
X183368628Y-59237030D01*
X183368628Y-59237030D02*
X183416247Y-59189411D01*
X183416247Y-59189411D02*
X183511485Y-59141792D01*
X183511485Y-59141792D02*
X183654342Y-59141792D01*
X183654342Y-59141792D02*
X183749580Y-59189411D01*
X183749580Y-59189411D02*
X183797200Y-59237030D01*
X183797200Y-59237030D02*
X183844819Y-59332268D01*
X183844819Y-59332268D02*
X183844819Y-59713220D01*
X183844819Y-59713220D02*
X182844819Y-59713220D01*
X182844819Y-59713220D02*
X182844819Y-59379887D01*
X182844819Y-59379887D02*
X182892438Y-59284649D01*
X182892438Y-59284649D02*
X182940057Y-59237030D01*
X182940057Y-59237030D02*
X183035295Y-59189411D01*
X183035295Y-59189411D02*
X183130533Y-59189411D01*
X183130533Y-59189411D02*
X183225771Y-59237030D01*
X183225771Y-59237030D02*
X183273390Y-59284649D01*
X183273390Y-59284649D02*
X183321009Y-59379887D01*
X183321009Y-59379887D02*
X183321009Y-59713220D01*
X183178152Y-58808458D02*
X183844819Y-58570363D01*
X183178152Y-58332268D02*
X183844819Y-58570363D01*
X183844819Y-58570363D02*
X184082914Y-58665601D01*
X184082914Y-58665601D02*
X184130533Y-58713220D01*
X184130533Y-58713220D02*
X184178152Y-58808458D01*
X183559104Y-57237029D02*
X183559104Y-56760839D01*
X183844819Y-57332267D02*
X182844819Y-56998934D01*
X182844819Y-56998934D02*
X183844819Y-56665601D01*
X183844819Y-56332267D02*
X183178152Y-56332267D01*
X183368628Y-56332267D02*
X183273390Y-56284648D01*
X183273390Y-56284648D02*
X183225771Y-56237029D01*
X183225771Y-56237029D02*
X183178152Y-56141791D01*
X183178152Y-56141791D02*
X183178152Y-56046553D01*
X183844819Y-55570362D02*
X183797200Y-55665600D01*
X183797200Y-55665600D02*
X183701961Y-55713219D01*
X183701961Y-55713219D02*
X182844819Y-55713219D01*
X183797200Y-54808457D02*
X183844819Y-54903695D01*
X183844819Y-54903695D02*
X183844819Y-55094171D01*
X183844819Y-55094171D02*
X183797200Y-55189409D01*
X183797200Y-55189409D02*
X183701961Y-55237028D01*
X183701961Y-55237028D02*
X183321009Y-55237028D01*
X183321009Y-55237028D02*
X183225771Y-55189409D01*
X183225771Y-55189409D02*
X183178152Y-55094171D01*
X183178152Y-55094171D02*
X183178152Y-54903695D01*
X183178152Y-54903695D02*
X183225771Y-54808457D01*
X183225771Y-54808457D02*
X183321009Y-54760838D01*
X183321009Y-54760838D02*
X183416247Y-54760838D01*
X183416247Y-54760838D02*
X183511485Y-55237028D01*
X183178152Y-54427504D02*
X183844819Y-54189409D01*
X183178152Y-53951314D02*
X183844819Y-54189409D01*
X183844819Y-54189409D02*
X184082914Y-54284647D01*
X184082914Y-54284647D02*
X184130533Y-54332266D01*
X184130533Y-54332266D02*
X184178152Y-54427504D01*
X182844819Y-53284647D02*
X183559104Y-53284647D01*
X183559104Y-53284647D02*
X183701961Y-53332266D01*
X183701961Y-53332266D02*
X183797200Y-53427504D01*
X183797200Y-53427504D02*
X183844819Y-53570361D01*
X183844819Y-53570361D02*
X183844819Y-53665599D01*
X183844819Y-52808456D02*
X183178152Y-52808456D01*
X183368628Y-52808456D02*
X183273390Y-52760837D01*
X183273390Y-52760837D02*
X183225771Y-52713218D01*
X183225771Y-52713218D02*
X183178152Y-52617980D01*
X183178152Y-52617980D02*
X183178152Y-52522742D01*
D12*
X99653842Y-100947619D02*
X99714318Y-100766190D01*
X99714318Y-100766190D02*
X99714318Y-100463809D01*
X99714318Y-100463809D02*
X99653842Y-100342857D01*
X99653842Y-100342857D02*
X99593365Y-100282381D01*
X99593365Y-100282381D02*
X99472413Y-100221904D01*
X99472413Y-100221904D02*
X99351461Y-100221904D01*
X99351461Y-100221904D02*
X99230508Y-100282381D01*
X99230508Y-100282381D02*
X99170032Y-100342857D01*
X99170032Y-100342857D02*
X99109556Y-100463809D01*
X99109556Y-100463809D02*
X99049080Y-100705714D01*
X99049080Y-100705714D02*
X98988603Y-100826666D01*
X98988603Y-100826666D02*
X98928127Y-100887143D01*
X98928127Y-100887143D02*
X98807175Y-100947619D01*
X98807175Y-100947619D02*
X98686222Y-100947619D01*
X98686222Y-100947619D02*
X98565270Y-100887143D01*
X98565270Y-100887143D02*
X98504794Y-100826666D01*
X98504794Y-100826666D02*
X98444318Y-100705714D01*
X98444318Y-100705714D02*
X98444318Y-100403333D01*
X98444318Y-100403333D02*
X98504794Y-100221904D01*
X99714318Y-99012380D02*
X99714318Y-99738095D01*
X99714318Y-99375238D02*
X98444318Y-99375238D01*
X98444318Y-99375238D02*
X98625746Y-99496190D01*
X98625746Y-99496190D02*
X98746699Y-99617142D01*
X98746699Y-99617142D02*
X98807175Y-99738095D01*
D11*
X98853333Y-107204819D02*
X98520000Y-106728628D01*
X98281905Y-107204819D02*
X98281905Y-106204819D01*
X98281905Y-106204819D02*
X98662857Y-106204819D01*
X98662857Y-106204819D02*
X98758095Y-106252438D01*
X98758095Y-106252438D02*
X98805714Y-106300057D01*
X98805714Y-106300057D02*
X98853333Y-106395295D01*
X98853333Y-106395295D02*
X98853333Y-106538152D01*
X98853333Y-106538152D02*
X98805714Y-106633390D01*
X98805714Y-106633390D02*
X98758095Y-106681009D01*
X98758095Y-106681009D02*
X98662857Y-106728628D01*
X98662857Y-106728628D02*
X98281905Y-106728628D01*
X99805714Y-107204819D02*
X99234286Y-107204819D01*
X99520000Y-107204819D02*
X99520000Y-106204819D01*
X99520000Y-106204819D02*
X99424762Y-106347676D01*
X99424762Y-106347676D02*
X99329524Y-106442914D01*
X99329524Y-106442914D02*
X99234286Y-106490533D01*
X98592905Y-64716819D02*
X98592905Y-63716819D01*
X98592905Y-63716819D02*
X98831000Y-63716819D01*
X98831000Y-63716819D02*
X98973857Y-63764438D01*
X98973857Y-63764438D02*
X99069095Y-63859676D01*
X99069095Y-63859676D02*
X99116714Y-63954914D01*
X99116714Y-63954914D02*
X99164333Y-64145390D01*
X99164333Y-64145390D02*
X99164333Y-64288247D01*
X99164333Y-64288247D02*
X99116714Y-64478723D01*
X99116714Y-64478723D02*
X99069095Y-64573961D01*
X99069095Y-64573961D02*
X98973857Y-64669200D01*
X98973857Y-64669200D02*
X98831000Y-64716819D01*
X98831000Y-64716819D02*
X98592905Y-64716819D01*
X100116714Y-64716819D02*
X99545286Y-64716819D01*
X99831000Y-64716819D02*
X99831000Y-63716819D01*
X99831000Y-63716819D02*
X99735762Y-63859676D01*
X99735762Y-63859676D02*
X99640524Y-63954914D01*
X99640524Y-63954914D02*
X99545286Y-64002533D01*
X99000833Y-67774819D02*
X98667500Y-67298628D01*
X98429405Y-67774819D02*
X98429405Y-66774819D01*
X98429405Y-66774819D02*
X98810357Y-66774819D01*
X98810357Y-66774819D02*
X98905595Y-66822438D01*
X98905595Y-66822438D02*
X98953214Y-66870057D01*
X98953214Y-66870057D02*
X99000833Y-66965295D01*
X99000833Y-66965295D02*
X99000833Y-67108152D01*
X99000833Y-67108152D02*
X98953214Y-67203390D01*
X98953214Y-67203390D02*
X98905595Y-67251009D01*
X98905595Y-67251009D02*
X98810357Y-67298628D01*
X98810357Y-67298628D02*
X98429405Y-67298628D01*
X99381786Y-66870057D02*
X99429405Y-66822438D01*
X99429405Y-66822438D02*
X99524643Y-66774819D01*
X99524643Y-66774819D02*
X99762738Y-66774819D01*
X99762738Y-66774819D02*
X99857976Y-66822438D01*
X99857976Y-66822438D02*
X99905595Y-66870057D01*
X99905595Y-66870057D02*
X99953214Y-66965295D01*
X99953214Y-66965295D02*
X99953214Y-67060533D01*
X99953214Y-67060533D02*
X99905595Y-67203390D01*
X99905595Y-67203390D02*
X99334167Y-67774819D01*
X99334167Y-67774819D02*
X99953214Y-67774819D01*
%TO.C,J1*%
X104216200Y-78740000D02*
X175336200Y-78740000D01*
X104216200Y-81280000D02*
X104216200Y-78740000D01*
X104216200Y-82480000D02*
X104216200Y-83810000D01*
D13*
X104724770Y-74744290D02*
X105796200Y-75101430D01*
X104724770Y-84667140D02*
X104724770Y-85381430D01*
X104724770Y-85381430D02*
X105439060Y-85452860D01*
X104724770Y-86452860D02*
X104939060Y-86595710D01*
X104724770Y-87810000D02*
X106224770Y-87310000D01*
X104796200Y-76101430D02*
X105010490Y-76244290D01*
X104796200Y-77458570D02*
X106296200Y-76958570D01*
X104939060Y-86595710D02*
X105081910Y-86738570D01*
X105010490Y-76244290D02*
X105153340Y-76387140D01*
X105081910Y-86738570D02*
X105153340Y-86881430D01*
X105153340Y-76387140D02*
X105224770Y-76530000D01*
X105296200Y-74387140D02*
X106296200Y-74387140D01*
X105296200Y-84881430D02*
X105367630Y-84738570D01*
X105296200Y-85238570D02*
X105296200Y-84881430D01*
X105367630Y-84738570D02*
X105439060Y-84667140D01*
X105367630Y-85381430D02*
X105296200Y-85238570D01*
X105439060Y-84667140D02*
X105581910Y-84595710D01*
X105439060Y-85452860D02*
X105367630Y-85381430D01*
X105581910Y-84595710D02*
X105939060Y-84595710D01*
D11*
X105681200Y-83810000D02*
X104216200Y-83810000D01*
D13*
X105796200Y-75101430D02*
X105796200Y-74172860D01*
X105796200Y-88167140D02*
X105796200Y-87452860D01*
X105867630Y-77815720D02*
X105867630Y-77101430D01*
X105939060Y-84595710D02*
X106081910Y-84667140D01*
X106081910Y-84667140D02*
X106153340Y-84738570D01*
X106153340Y-84738570D02*
X106224770Y-84881430D01*
X106153340Y-85381430D02*
X106081910Y-85452860D01*
X106224770Y-84881430D02*
X106224770Y-85238570D01*
X106224770Y-85238570D02*
X106153340Y-85381430D01*
X106224770Y-86024290D02*
X106224770Y-86881430D01*
X106224770Y-86452860D02*
X104724770Y-86452860D01*
X106224770Y-88310000D02*
X104724770Y-87810000D01*
X106296200Y-75672860D02*
X106296200Y-76530000D01*
X106296200Y-76101430D02*
X104796200Y-76101430D01*
X106296200Y-77958570D02*
X104796200Y-77458570D01*
D11*
X106716200Y-81280000D02*
X104216200Y-81280000D01*
X106716200Y-83810000D02*
X106716200Y-81280000D01*
D13*
X107264770Y-84595710D02*
X107836200Y-85095710D01*
X107264770Y-85524290D02*
X107264770Y-84595710D01*
X107264770Y-86452860D02*
X107479060Y-86595710D01*
X107264770Y-87810000D02*
X108764770Y-87310000D01*
X107336200Y-74530000D02*
X107407630Y-74387140D01*
X107336200Y-74887140D02*
X107336200Y-74530000D01*
X107336200Y-76101430D02*
X107550490Y-76244290D01*
X107336200Y-77458570D02*
X108836200Y-76958570D01*
X107407630Y-74387140D02*
X107479060Y-74315720D01*
X107407630Y-75030000D02*
X107336200Y-74887140D01*
X107479060Y-74315720D02*
X107621920Y-74244290D01*
X107479060Y-75101430D02*
X107407630Y-75030000D01*
X107479060Y-86595710D02*
X107621910Y-86738570D01*
X107550490Y-76244290D02*
X107693340Y-76387140D01*
X107621910Y-86738570D02*
X107693340Y-86881430D01*
X107621920Y-74244290D02*
X107764770Y-74244290D01*
X107693340Y-76387140D02*
X107764770Y-76530000D01*
X107764770Y-74244290D02*
X107979060Y-74315720D01*
X107836200Y-84881430D02*
X107907630Y-84738570D01*
X107836200Y-85095710D02*
X107836200Y-84881430D01*
X107907630Y-84738570D02*
X107979060Y-84667140D01*
X107979060Y-74315720D02*
X108836200Y-75172860D01*
X107979060Y-84667140D02*
X108121910Y-84595710D01*
X108121910Y-84595710D02*
X108479060Y-84595710D01*
X108336200Y-88167140D02*
X108336200Y-87452860D01*
X108407630Y-77815720D02*
X108407630Y-77101430D01*
X108479060Y-84595710D02*
X108621910Y-84667140D01*
X108621910Y-84667140D02*
X108693340Y-84738570D01*
X108693340Y-84738570D02*
X108764770Y-84881430D01*
X108693340Y-85452860D02*
X108621910Y-85524290D01*
X108764770Y-84881430D02*
X108764770Y-85310000D01*
X108764770Y-85310000D02*
X108693340Y-85452860D01*
X108764770Y-86024290D02*
X108764770Y-86881430D01*
X108764770Y-86452860D02*
X107264770Y-86452860D01*
X108764770Y-88310000D02*
X107264770Y-87810000D01*
X108836200Y-75172860D02*
X108836200Y-74244290D01*
X108836200Y-75672860D02*
X108836200Y-76530000D01*
X108836200Y-76101430D02*
X107336200Y-76101430D01*
X108836200Y-77958570D02*
X107336200Y-77458570D01*
X109804770Y-84524290D02*
X111304770Y-85167140D01*
X109804770Y-85524290D02*
X109804770Y-84524290D01*
X109804770Y-86524290D02*
X109876200Y-86310000D01*
X109804770Y-86881430D02*
X109804770Y-86524290D01*
X109876200Y-74672860D02*
X111376200Y-74172860D01*
X109876200Y-75172860D02*
X109876200Y-75887140D01*
X109876200Y-75887140D02*
X110590490Y-75958570D01*
X109876200Y-86310000D02*
X110019060Y-86167140D01*
X110019060Y-86167140D02*
X110161910Y-86095710D01*
X110161910Y-86095710D02*
X110447630Y-86024290D01*
X110447630Y-75387140D02*
X110519060Y-75244290D01*
X110447630Y-75744290D02*
X110447630Y-75387140D01*
X110447630Y-86024290D02*
X110661910Y-86024290D01*
X110519060Y-75244290D02*
X110590490Y-75172860D01*
X110519060Y-75887140D02*
X110447630Y-75744290D01*
X110590490Y-75172860D02*
X110733340Y-75101430D01*
X110590490Y-75958570D02*
X110519060Y-75887140D01*
X110661910Y-86024290D02*
X110947630Y-86095710D01*
X110733340Y-75101430D02*
X111090490Y-75101430D01*
X110804770Y-77744290D02*
X110804770Y-76601430D01*
X110947630Y-86095710D02*
X111090490Y-86167140D01*
X111090490Y-75101430D02*
X111233340Y-75172860D01*
X111090490Y-86167140D02*
X111233340Y-86310000D01*
X111233340Y-75172860D02*
X111304770Y-75244290D01*
X111233340Y-86310000D02*
X111304770Y-86524290D01*
X111304770Y-75244290D02*
X111376200Y-75387140D01*
X111304770Y-75887140D02*
X111233340Y-75958570D01*
X111304770Y-86524290D02*
X111304770Y-86881430D01*
X111304770Y-86881430D02*
X109804770Y-86881430D01*
X111376200Y-74172860D02*
X109876200Y-73672860D01*
X111376200Y-75387140D02*
X111376200Y-75744290D01*
X111376200Y-75744290D02*
X111304770Y-75887140D01*
X111376200Y-77172860D02*
X110233340Y-77172860D01*
X111696200Y-85738570D02*
X111696200Y-84310000D01*
X111696200Y-87452860D02*
X111696200Y-85738570D01*
X111696200Y-89024290D02*
X111696200Y-87452860D01*
X111696200Y-90524290D02*
X111696200Y-89024290D01*
X111696200Y-91667140D02*
X111696200Y-90524290D01*
X111696200Y-93024290D02*
X111696200Y-91667140D01*
X111696200Y-94595710D02*
X111696200Y-93024290D01*
X112344770Y-85024290D02*
X112559060Y-85167140D01*
X112344770Y-86095710D02*
X113844770Y-86095710D01*
X112344770Y-87095710D02*
X113416200Y-86595710D01*
X112344770Y-88095710D02*
X112416200Y-87952860D01*
X112344770Y-88381430D02*
X112344770Y-88095710D01*
X112344770Y-89595710D02*
X112416200Y-89452860D01*
X112344770Y-90167140D02*
X112344770Y-89595710D01*
X112344770Y-92667140D02*
X112344770Y-91952860D01*
X112344770Y-93667140D02*
X112416200Y-93524290D01*
X112344770Y-93952860D02*
X112344770Y-93667140D01*
X112416200Y-74672860D02*
X113916200Y-74172860D01*
X112416200Y-75387140D02*
X112416200Y-75672860D01*
X112416200Y-75672860D02*
X112487630Y-75815720D01*
X112416200Y-87952860D02*
X112559060Y-87810000D01*
X112416200Y-88524290D02*
X112344770Y-88381430D01*
X112416200Y-89452860D02*
X112487630Y-89381430D01*
X112416200Y-93524290D02*
X112559060Y-93381430D01*
X112416200Y-94095710D02*
X112344770Y-93952860D01*
X112487630Y-75244290D02*
X112416200Y-75387140D01*
X112487630Y-75815720D02*
X112559060Y-75887140D01*
X112487630Y-89381430D02*
X112630490Y-89310000D01*
X112559060Y-75172860D02*
X112487630Y-75244290D01*
X112559060Y-75887140D02*
X112701920Y-75958570D01*
X112559060Y-85167140D02*
X112701910Y-85310000D01*
X112559060Y-87810000D02*
X112844770Y-87738570D01*
X112559060Y-88667140D02*
X112416200Y-88524290D01*
X112559060Y-93381430D02*
X112844770Y-93310000D01*
X112559060Y-94238570D02*
X112416200Y-94095710D01*
X112630490Y-89310000D02*
X112844770Y-89310000D01*
X112701910Y-85310000D02*
X112773340Y-85452860D01*
X112701920Y-75101430D02*
X112559060Y-75172860D01*
X112701920Y-75958570D02*
X113059060Y-75958570D01*
X112844770Y-87738570D02*
X113344770Y-87738570D01*
X112844770Y-88738570D02*
X112559060Y-88667140D01*
X112844770Y-89310000D02*
X112987630Y-89381430D01*
X112844770Y-93310000D02*
X113344770Y-93310000D01*
X112844770Y-94310000D02*
X112559060Y-94238570D01*
X112987630Y-89381430D02*
X113059060Y-89452860D01*
X113059060Y-75958570D02*
X113201920Y-75887140D01*
X113059060Y-89452860D02*
X113130490Y-89595710D01*
X113059060Y-92667140D02*
X113059060Y-92167140D01*
X113130490Y-89595710D02*
X113130490Y-90167140D01*
X113201920Y-75172860D02*
X113059060Y-75101430D01*
X113201920Y-75887140D02*
X113273340Y-75815720D01*
X113273340Y-75101430D02*
X112701920Y-75101430D01*
X113273340Y-75244290D02*
X113201920Y-75172860D01*
X113273340Y-75815720D02*
X113344770Y-75672860D01*
X113344770Y-75387140D02*
X113273340Y-75244290D01*
X113344770Y-75672860D02*
X113344770Y-75387140D01*
X113344770Y-77744290D02*
X113344770Y-76601430D01*
X113344770Y-87738570D02*
X113630490Y-87810000D01*
X113344770Y-88738570D02*
X112844770Y-88738570D01*
X113344770Y-93310000D02*
X113630490Y-93381430D01*
X113344770Y-94310000D02*
X112844770Y-94310000D01*
X113416200Y-86595710D02*
X112344770Y-86095710D01*
X113559060Y-75172860D02*
X113273340Y-75101430D01*
X113630490Y-87810000D02*
X113773340Y-87952860D01*
X113630490Y-88667140D02*
X113344770Y-88738570D01*
X113630490Y-93381430D02*
X113773340Y-93524290D01*
X113630490Y-94238570D02*
X113344770Y-94310000D01*
X113773340Y-75315720D02*
X113559060Y-75172860D01*
X113773340Y-87952860D02*
X113844770Y-88095710D01*
X113773340Y-88524290D02*
X113630490Y-88667140D01*
X113773340Y-93524290D02*
X113844770Y-93667140D01*
X113773340Y-94095710D02*
X113630490Y-94238570D01*
X113844770Y-75387140D02*
X113773340Y-75315720D01*
X113844770Y-84595710D02*
X113844770Y-85452860D01*
X113844770Y-85024290D02*
X112344770Y-85024290D01*
X113844770Y-87095710D02*
X112344770Y-87095710D01*
X113844770Y-88095710D02*
X113844770Y-88381430D01*
X113844770Y-88381430D02*
X113773340Y-88524290D01*
X113844770Y-89310000D02*
X113130490Y-89810000D01*
X113844770Y-90167140D02*
X112344770Y-90167140D01*
X113844770Y-91952860D02*
X113844770Y-92667140D01*
X113844770Y-92667140D02*
X112344770Y-92667140D01*
X113844770Y-93667140D02*
X113844770Y-93952860D01*
X113844770Y-93952860D02*
X113773340Y-94095710D01*
X113916200Y-74172860D02*
X112416200Y-73672860D01*
X113916200Y-75530000D02*
X113844770Y-75387140D01*
X113916200Y-75815720D02*
X113916200Y-75530000D01*
X113916200Y-77172860D02*
X112773340Y-77172860D01*
X113987630Y-91667140D02*
X113987630Y-90524290D01*
D11*
X114817200Y-84815000D02*
X114817200Y-94625000D01*
X114888630Y-67776430D02*
X114888630Y-77586430D01*
D13*
X115741910Y-85142430D02*
X115813340Y-85213860D01*
X115741910Y-85142430D02*
X115884770Y-85142430D01*
X115741910Y-86285290D02*
X115813340Y-86356710D01*
X115741910Y-86285290D02*
X115884770Y-86285290D01*
X115741910Y-87428140D02*
X115813340Y-87499570D01*
X115741910Y-87428140D02*
X115884770Y-87428140D01*
X115741910Y-88571000D02*
X115813340Y-88642430D01*
X115741910Y-88571000D02*
X115884770Y-88571000D01*
X115741910Y-89713860D02*
X115813340Y-89785290D01*
X115741910Y-89713860D02*
X115884770Y-89713860D01*
X115741910Y-90856710D02*
X115813340Y-90928140D01*
X115741910Y-90856710D02*
X115884770Y-90856710D01*
X115741910Y-91999570D02*
X115813340Y-92071000D01*
X115741910Y-91999570D02*
X115884770Y-91999570D01*
X115741910Y-93142430D02*
X115813340Y-93213860D01*
X115741910Y-93142430D02*
X115884770Y-93142430D01*
X115741910Y-94285290D02*
X115813340Y-94356710D01*
X115741910Y-94285290D02*
X115884770Y-94285290D01*
X115813340Y-68125140D02*
X115884770Y-68196570D01*
X115813340Y-68125140D02*
X115956200Y-68125140D01*
X115813340Y-69268000D02*
X115884770Y-69339430D01*
X115813340Y-69268000D02*
X115956200Y-69268000D01*
X115813340Y-70410860D02*
X115884770Y-70482290D01*
X115813340Y-70410860D02*
X115956200Y-70410860D01*
X115813340Y-71553720D02*
X115884770Y-71625140D01*
X115813340Y-71553720D02*
X115956200Y-71553720D01*
X115813340Y-72696570D02*
X115884770Y-72768000D01*
X115813340Y-72696570D02*
X115956200Y-72696570D01*
X115813340Y-73839430D02*
X115884770Y-73910860D01*
X115813340Y-73839430D02*
X115956200Y-73839430D01*
X115813340Y-74982290D02*
X115884770Y-75053720D01*
X115813340Y-74982290D02*
X115956200Y-74982290D01*
X115813340Y-76125140D02*
X115884770Y-76196570D01*
X115813340Y-76125140D02*
X115956200Y-76125140D01*
X115813340Y-77268000D02*
X115884770Y-77339430D01*
X115813340Y-77268000D02*
X115956200Y-77268000D01*
X115813340Y-85071000D02*
X115741910Y-85142430D01*
X115813340Y-85213860D02*
X115884770Y-85142430D01*
X115813340Y-86213860D02*
X115741910Y-86285290D01*
X115813340Y-86356710D02*
X115884770Y-86285290D01*
X115813340Y-87356710D02*
X115741910Y-87428140D01*
X115813340Y-87499570D02*
X115884770Y-87428140D01*
X115813340Y-88499570D02*
X115741910Y-88571000D01*
X115813340Y-88642430D02*
X115884770Y-88571000D01*
X115813340Y-89642430D02*
X115741910Y-89713860D01*
X115813340Y-89785290D02*
X115884770Y-89713860D01*
X115813340Y-90785290D02*
X115741910Y-90856710D01*
X115813340Y-90928140D02*
X115884770Y-90856710D01*
X115813340Y-91928140D02*
X115741910Y-91999570D01*
X115813340Y-92071000D02*
X115884770Y-91999570D01*
X115813340Y-93071000D02*
X115741910Y-93142430D01*
X115813340Y-93213860D02*
X115884770Y-93142430D01*
X115813340Y-94213860D02*
X115741910Y-94285290D01*
X115813340Y-94356710D02*
X115884770Y-94285290D01*
X115884770Y-68053720D02*
X115813340Y-68125140D01*
X115884770Y-68196570D02*
X115956200Y-68125140D01*
X115884770Y-69196570D02*
X115813340Y-69268000D01*
X115884770Y-69339430D02*
X115956200Y-69268000D01*
X115884770Y-70339430D02*
X115813340Y-70410860D01*
X115884770Y-70482290D02*
X115956200Y-70410860D01*
X115884770Y-71482290D02*
X115813340Y-71553720D01*
X115884770Y-71625140D02*
X115956200Y-71553720D01*
X115884770Y-72625140D02*
X115813340Y-72696570D01*
X115884770Y-72768000D02*
X115956200Y-72696570D01*
X115884770Y-73768000D02*
X115813340Y-73839430D01*
X115884770Y-73910860D02*
X115956200Y-73839430D01*
X115884770Y-74910860D02*
X115813340Y-74982290D01*
X115884770Y-75053720D02*
X115956200Y-74982290D01*
X115884770Y-76053720D02*
X115813340Y-76125140D01*
X115884770Y-76196570D02*
X115956200Y-76125140D01*
X115884770Y-77196570D02*
X115813340Y-77268000D01*
X115884770Y-77339430D02*
X115956200Y-77268000D01*
X115884770Y-85142430D02*
X115813340Y-85071000D01*
X115884770Y-86285290D02*
X115813340Y-86213860D01*
X115884770Y-87428140D02*
X115813340Y-87356710D01*
X115884770Y-88571000D02*
X115813340Y-88499570D01*
X115884770Y-89713860D02*
X115813340Y-89642430D01*
X115884770Y-90856710D02*
X115813340Y-90785290D01*
X115884770Y-91999570D02*
X115813340Y-91928140D01*
X115884770Y-93142430D02*
X115813340Y-93071000D01*
X115884770Y-94285290D02*
X115813340Y-94213860D01*
X115956200Y-68125140D02*
X115884770Y-68053720D01*
X115956200Y-69268000D02*
X115884770Y-69196570D01*
X115956200Y-70410860D02*
X115884770Y-70339430D01*
X115956200Y-71553720D02*
X115884770Y-71482290D01*
X115956200Y-72696570D02*
X115884770Y-72625140D01*
X115956200Y-73839430D02*
X115884770Y-73768000D01*
X115956200Y-74982290D02*
X115884770Y-74910860D01*
X115956200Y-76125140D02*
X115884770Y-76053720D01*
X115956200Y-77268000D02*
X115884770Y-77196570D01*
D11*
X116595200Y-84815000D02*
X116595200Y-94625000D01*
X116666630Y-67776430D02*
X116666630Y-77586430D01*
D13*
X117424770Y-84952860D02*
X117496200Y-84810000D01*
X117424770Y-85095710D02*
X117424770Y-84952860D01*
X117424770Y-86524290D02*
X117496200Y-86310000D01*
X117424770Y-86881430D02*
X117424770Y-86524290D01*
X117496200Y-74315720D02*
X117567630Y-74101430D01*
X117496200Y-74672860D02*
X117496200Y-74315720D01*
X117496200Y-76244290D02*
X118996200Y-75387140D01*
X117496200Y-77101430D02*
X117496200Y-77315720D01*
X117496200Y-77315720D02*
X117567630Y-77530000D01*
X117496200Y-84810000D02*
X117567630Y-84738570D01*
X117496200Y-85238570D02*
X117424770Y-85095710D01*
X117496200Y-86310000D02*
X117639060Y-86167140D01*
X117567630Y-74101430D02*
X117710490Y-73958570D01*
X117567630Y-76958570D02*
X117496200Y-77101430D01*
X117567630Y-77530000D02*
X117710490Y-77672860D01*
X117567630Y-84738570D02*
X117710490Y-84667140D01*
X117567630Y-85310000D02*
X117496200Y-85238570D01*
X117639060Y-86167140D02*
X117781910Y-86095710D01*
X117710490Y-73958570D02*
X117853340Y-73887140D01*
X117710490Y-77672860D02*
X117853340Y-77744290D01*
X117710490Y-84667140D02*
X117996200Y-84595710D01*
X117710490Y-85381430D02*
X117567630Y-85310000D01*
X117781910Y-86095710D02*
X118067630Y-86024290D01*
X117853340Y-73887140D02*
X118139060Y-73815720D01*
X117853340Y-77744290D02*
X118139060Y-77815720D01*
X117996200Y-84595710D02*
X118353340Y-84595710D01*
X117996200Y-85452860D02*
X117710490Y-85381430D01*
X118067630Y-86024290D02*
X118281910Y-86024290D01*
X118139060Y-73815720D02*
X118353340Y-73815720D01*
X118139060Y-77815720D02*
X118353340Y-77815720D01*
X118281910Y-86024290D02*
X118567630Y-86095710D01*
X118353340Y-73815720D02*
X118639060Y-73887140D01*
X118353340Y-76887140D02*
X118353340Y-77172860D01*
X118353340Y-77815720D02*
X118639060Y-77744290D01*
X118353340Y-84595710D02*
X118639060Y-84667140D01*
X118353340Y-85452860D02*
X117996200Y-85452860D01*
X118567630Y-86095710D02*
X118710490Y-86167140D01*
X118639060Y-73887140D02*
X118781920Y-73958570D01*
X118639060Y-77744290D02*
X118781920Y-77672860D01*
X118639060Y-84667140D02*
X118781910Y-84738570D01*
X118639060Y-85381430D02*
X118353340Y-85452860D01*
X118710490Y-86167140D02*
X118853340Y-86310000D01*
X118781910Y-84738570D02*
X118853340Y-84810000D01*
X118781910Y-85310000D02*
X118639060Y-85381430D01*
X118781920Y-73958570D02*
X118924770Y-74101430D01*
X118781920Y-77672860D02*
X118924770Y-77530000D01*
X118853340Y-76887140D02*
X118353340Y-76887140D01*
X118853340Y-84810000D02*
X118924770Y-84952860D01*
X118853340Y-85238570D02*
X118781910Y-85310000D01*
X118853340Y-86310000D02*
X118924770Y-86524290D01*
X118924770Y-74101430D02*
X118996200Y-74315720D01*
X118924770Y-76958570D02*
X118853340Y-76887140D01*
X118924770Y-77530000D02*
X118996200Y-77315720D01*
X118924770Y-84952860D02*
X118924770Y-85095710D01*
X118924770Y-85095710D02*
X118853340Y-85238570D01*
X118924770Y-86524290D02*
X118924770Y-86881430D01*
X118924770Y-86881430D02*
X117424770Y-86881430D01*
X118996200Y-74315720D02*
X118996200Y-74672860D01*
X118996200Y-74672860D02*
X117496200Y-74672860D01*
X118996200Y-75387140D02*
X117496200Y-75387140D01*
X118996200Y-76244290D02*
X117496200Y-76244290D01*
X118996200Y-77172860D02*
X118924770Y-76958570D01*
X118996200Y-77315720D02*
X118996200Y-77172860D01*
X119964770Y-85024290D02*
X120179060Y-85167140D01*
X119964770Y-86524290D02*
X120036200Y-86310000D01*
X119964770Y-86881430D02*
X119964770Y-86524290D01*
X120036200Y-74315720D02*
X120107630Y-74101430D01*
X120036200Y-74672860D02*
X120036200Y-74315720D01*
X120036200Y-76244290D02*
X121536200Y-75387140D01*
X120036200Y-77101430D02*
X120036200Y-77315720D01*
X120036200Y-77315720D02*
X120107630Y-77530000D01*
X120036200Y-86310000D02*
X120179060Y-86167140D01*
X120107630Y-74101430D02*
X120250490Y-73958570D01*
X120107630Y-76958570D02*
X120036200Y-77101430D01*
X120107630Y-77530000D02*
X120250490Y-77672860D01*
X120179060Y-85167140D02*
X120321910Y-85310000D01*
X120179060Y-86167140D02*
X120321910Y-86095710D01*
X120250490Y-73958570D02*
X120393340Y-73887140D01*
X120250490Y-77672860D02*
X120393340Y-77744290D01*
X120321910Y-85310000D02*
X120393340Y-85452860D01*
X120321910Y-86095710D02*
X120607630Y-86024290D01*
X120393340Y-73887140D02*
X120679060Y-73815720D01*
X120393340Y-77744290D02*
X120679060Y-77815720D01*
X120607630Y-86024290D02*
X120821910Y-86024290D01*
X120679060Y-73815720D02*
X120893340Y-73815720D01*
X120679060Y-77815720D02*
X120893340Y-77815720D01*
X120821910Y-86024290D02*
X121107630Y-86095710D01*
X120893340Y-73815720D02*
X121179060Y-73887140D01*
X120893340Y-76887140D02*
X120893340Y-77172860D01*
X120893340Y-77815720D02*
X121179060Y-77744290D01*
X121107630Y-86095710D02*
X121250490Y-86167140D01*
X121179060Y-73887140D02*
X121321920Y-73958570D01*
X121179060Y-77744290D02*
X121321920Y-77672860D01*
X121250490Y-86167140D02*
X121393340Y-86310000D01*
X121321920Y-73958570D02*
X121464770Y-74101430D01*
X121321920Y-77672860D02*
X121464770Y-77530000D01*
X121393340Y-76887140D02*
X120893340Y-76887140D01*
X121393340Y-86310000D02*
X121464770Y-86524290D01*
X121464770Y-74101430D02*
X121536200Y-74315720D01*
X121464770Y-76958570D02*
X121393340Y-76887140D01*
X121464770Y-77530000D02*
X121536200Y-77315720D01*
X121464770Y-84595710D02*
X121464770Y-85452860D01*
X121464770Y-85024290D02*
X119964770Y-85024290D01*
X121464770Y-86524290D02*
X121464770Y-86881430D01*
X121464770Y-86881430D02*
X119964770Y-86881430D01*
X121536200Y-74315720D02*
X121536200Y-74672860D01*
X121536200Y-74672860D02*
X120036200Y-74672860D01*
X121536200Y-75387140D02*
X120036200Y-75387140D01*
X121536200Y-76244290D02*
X120036200Y-76244290D01*
X121536200Y-77172860D02*
X121464770Y-76958570D01*
X121536200Y-77315720D02*
X121536200Y-77172860D01*
X121927630Y-75387140D02*
X121927630Y-73887140D01*
X121927630Y-76601430D02*
X121927630Y-75387140D01*
X121927630Y-78101430D02*
X121927630Y-76601430D01*
X122504770Y-84881430D02*
X122576200Y-84738570D01*
X122504770Y-85238570D02*
X122504770Y-84881430D01*
X122504770Y-86524290D02*
X122576200Y-86310000D01*
X122504770Y-86881430D02*
X122504770Y-86524290D01*
X122576200Y-74172860D02*
X123433340Y-75030000D01*
X122576200Y-77172860D02*
X122647630Y-76958570D01*
X122576200Y-77315720D02*
X122576200Y-77172860D01*
X122576200Y-84738570D02*
X122647630Y-84667140D01*
X122576200Y-85381430D02*
X122504770Y-85238570D01*
X122576200Y-86310000D02*
X122719060Y-86167140D01*
X122647630Y-76958570D02*
X122719060Y-76887140D01*
X122647630Y-77530000D02*
X122576200Y-77315720D01*
X122647630Y-84667140D02*
X122790490Y-84595710D01*
X122647630Y-85452860D02*
X122576200Y-85381430D01*
X122719060Y-86167140D02*
X122861910Y-86095710D01*
X122790490Y-77672860D02*
X122647630Y-77530000D01*
X122790490Y-84595710D02*
X122933340Y-84595710D01*
X122861910Y-86095710D02*
X123147630Y-86024290D01*
X122933340Y-77744290D02*
X122790490Y-77672860D01*
X122933340Y-84595710D02*
X123147630Y-84667140D01*
X123147630Y-84667140D02*
X124004770Y-85524290D01*
X123147630Y-86024290D02*
X123361910Y-86024290D01*
X123219060Y-77815720D02*
X122933340Y-77744290D01*
X123361910Y-86024290D02*
X123647630Y-86095710D01*
X123433340Y-77815720D02*
X123219060Y-77815720D01*
X123647630Y-86095710D02*
X123790490Y-86167140D01*
X123719060Y-77744290D02*
X123433340Y-77815720D01*
X123790490Y-86167140D02*
X123933340Y-86310000D01*
X123861920Y-77672860D02*
X123719060Y-77744290D01*
X123933340Y-76887140D02*
X124004770Y-76958570D01*
X123933340Y-86310000D02*
X124004770Y-86524290D01*
X124004770Y-76958570D02*
X124076200Y-77172860D01*
X124004770Y-77530000D02*
X123861920Y-77672860D01*
X124004770Y-85524290D02*
X124004770Y-84595710D01*
X124004770Y-86524290D02*
X124004770Y-86881430D01*
X124004770Y-86881430D02*
X122504770Y-86881430D01*
X124076200Y-74172860D02*
X123219060Y-74815720D01*
X124076200Y-75030000D02*
X122576200Y-75030000D01*
X124076200Y-75530000D02*
X124076200Y-76244290D01*
X124076200Y-76244290D02*
X122576200Y-76244290D01*
X124076200Y-77172860D02*
X124076200Y-77315720D01*
X124076200Y-77315720D02*
X124004770Y-77530000D01*
X125044770Y-84738570D02*
X125044770Y-85024290D01*
X125044770Y-85024290D02*
X125116200Y-85167140D01*
X125044770Y-86524290D02*
X125116200Y-86310000D01*
X125044770Y-86881430D02*
X125044770Y-86524290D01*
X125116200Y-76030000D02*
X125187630Y-75887140D01*
X125116200Y-76172860D02*
X125116200Y-76030000D01*
X125116200Y-77458570D02*
X126616200Y-76958570D01*
X125116200Y-85167140D02*
X125187630Y-85238570D01*
X125116200Y-86310000D02*
X125259060Y-86167140D01*
X125187630Y-75887140D02*
X125259060Y-75815720D01*
X125187630Y-76315720D02*
X125116200Y-76172860D01*
X125187630Y-85238570D02*
X125401910Y-85381430D01*
X125259060Y-75815720D02*
X125401920Y-75744290D01*
X125259060Y-76387140D02*
X125187630Y-76315720D01*
X125259060Y-86167140D02*
X125401910Y-86095710D01*
X125401910Y-85381430D02*
X125687630Y-85452860D01*
X125401910Y-86095710D02*
X125687630Y-86024290D01*
X125401920Y-75744290D02*
X125687630Y-75672860D01*
X125401920Y-76458570D02*
X125259060Y-76387140D01*
X125616200Y-84881430D02*
X125616200Y-85167140D01*
X125616200Y-85167140D02*
X125687630Y-85310000D01*
X125687630Y-75672860D02*
X126044770Y-75672860D01*
X125687630Y-76530000D02*
X125401920Y-76458570D01*
X125687630Y-84738570D02*
X125616200Y-84881430D01*
X125687630Y-85310000D02*
X125759060Y-85381430D01*
X125687630Y-85452860D02*
X126259060Y-85452860D01*
X125687630Y-86024290D02*
X125901910Y-86024290D01*
X125759060Y-84667140D02*
X125687630Y-84738570D01*
X125759060Y-85381430D02*
X125901910Y-85452860D01*
X125901910Y-84595710D02*
X125759060Y-84667140D01*
X125901910Y-86024290D02*
X126187630Y-86095710D01*
X126044770Y-75672860D02*
X126330490Y-75744290D01*
X126044770Y-76530000D02*
X125687630Y-76530000D01*
X126187630Y-77815720D02*
X126187630Y-77101430D01*
X126187630Y-86095710D02*
X126330490Y-86167140D01*
X126259060Y-84595710D02*
X125901910Y-84595710D01*
X126259060Y-85452860D02*
X126401910Y-85381430D01*
X126330490Y-75744290D02*
X126473340Y-75815720D01*
X126330490Y-76458570D02*
X126044770Y-76530000D01*
X126330490Y-86167140D02*
X126473340Y-86310000D01*
X126401910Y-84667140D02*
X126259060Y-84595710D01*
X126401910Y-85381430D02*
X126473340Y-85310000D01*
X126473340Y-75815720D02*
X126544770Y-75887140D01*
X126473340Y-76387140D02*
X126330490Y-76458570D01*
X126473340Y-84738570D02*
X126401910Y-84667140D01*
X126473340Y-85310000D02*
X126544770Y-85167140D01*
X126473340Y-86310000D02*
X126544770Y-86524290D01*
X126544770Y-75887140D02*
X126616200Y-76030000D01*
X126544770Y-76315720D02*
X126473340Y-76387140D01*
X126544770Y-84881430D02*
X126473340Y-84738570D01*
X126544770Y-85167140D02*
X126544770Y-84881430D01*
X126544770Y-86524290D02*
X126544770Y-86881430D01*
X126544770Y-86881430D02*
X125044770Y-86881430D01*
X126616200Y-76030000D02*
X126616200Y-76172860D01*
X126616200Y-76172860D02*
X126544770Y-76315720D01*
X126616200Y-77958570D02*
X125116200Y-77458570D01*
X127584770Y-84667140D02*
X127584770Y-85381430D01*
X127584770Y-85381430D02*
X128299060Y-85452860D01*
X127584770Y-86524290D02*
X127656200Y-86310000D01*
X127584770Y-86881430D02*
X127584770Y-86524290D01*
X127656200Y-76101430D02*
X127870490Y-76244290D01*
X127656200Y-77458570D02*
X129156200Y-76958570D01*
X127656200Y-86310000D02*
X127799060Y-86167140D01*
X127799060Y-86167140D02*
X127941910Y-86095710D01*
X127870490Y-76244290D02*
X128013340Y-76387140D01*
X127941910Y-86095710D02*
X128227630Y-86024290D01*
X128013340Y-76387140D02*
X128084770Y-76530000D01*
X128156200Y-84881430D02*
X128227630Y-84738570D01*
X128156200Y-85238570D02*
X128156200Y-84881430D01*
X128227630Y-84738570D02*
X128299060Y-84667140D01*
X128227630Y-85381430D02*
X128156200Y-85238570D01*
X128227630Y-86024290D02*
X128441910Y-86024290D01*
X128299060Y-84667140D02*
X128441910Y-84595710D01*
X128299060Y-85452860D02*
X128227630Y-85381430D01*
X128441910Y-84595710D02*
X128799060Y-84595710D01*
X128441910Y-86024290D02*
X128727630Y-86095710D01*
X128727630Y-77815720D02*
X128727630Y-77101430D01*
X128727630Y-86095710D02*
X128870490Y-86167140D01*
X128799060Y-84595710D02*
X128941910Y-84667140D01*
X128870490Y-86167140D02*
X129013340Y-86310000D01*
X128941910Y-84667140D02*
X129013340Y-84738570D01*
X129013340Y-84738570D02*
X129084770Y-84881430D01*
X129013340Y-85381430D02*
X128941910Y-85452860D01*
X129013340Y-86310000D02*
X129084770Y-86524290D01*
X129084770Y-84881430D02*
X129084770Y-85238570D01*
X129084770Y-85238570D02*
X129013340Y-85381430D01*
X129084770Y-86524290D02*
X129084770Y-86881430D01*
X129084770Y-86881430D02*
X127584770Y-86881430D01*
X129156200Y-75672860D02*
X129156200Y-76530000D01*
X129156200Y-76101430D02*
X127656200Y-76101430D01*
X129156200Y-77958570D02*
X127656200Y-77458570D01*
X130124770Y-84595710D02*
X130696200Y-85095710D01*
X130124770Y-85524290D02*
X130124770Y-84595710D01*
X130124770Y-86524290D02*
X130196200Y-86310000D01*
X130124770Y-86881430D02*
X130124770Y-86524290D01*
X130196200Y-75958570D02*
X130267630Y-75815720D01*
X130196200Y-76315720D02*
X130196200Y-75958570D01*
X130196200Y-77458570D02*
X131696200Y-76958570D01*
X130196200Y-86310000D02*
X130339060Y-86167140D01*
X130267630Y-75815720D02*
X130339060Y-75744290D01*
X130267630Y-76458570D02*
X130196200Y-76315720D01*
X130339060Y-75744290D02*
X130481920Y-75672860D01*
X130339060Y-76530000D02*
X130267630Y-76458570D01*
X130339060Y-86167140D02*
X130481910Y-86095710D01*
X130481910Y-86095710D02*
X130767630Y-86024290D01*
X130481920Y-75672860D02*
X130624770Y-75672860D01*
X130624770Y-75672860D02*
X130839060Y-75744290D01*
X130696200Y-84881430D02*
X130767630Y-84738570D01*
X130696200Y-85095710D02*
X130696200Y-84881430D01*
X130767630Y-84738570D02*
X130839060Y-84667140D01*
X130767630Y-86024290D02*
X130981910Y-86024290D01*
X130839060Y-75744290D02*
X131696200Y-76601430D01*
X130839060Y-84667140D02*
X130981910Y-84595710D01*
X130981910Y-84595710D02*
X131339060Y-84595710D01*
X130981910Y-86024290D02*
X131267630Y-86095710D01*
X131267630Y-77815720D02*
X131267630Y-77101430D01*
X131267630Y-86095710D02*
X131410490Y-86167140D01*
X131339060Y-84595710D02*
X131481910Y-84667140D01*
X131410490Y-86167140D02*
X131553340Y-86310000D01*
X131481910Y-84667140D02*
X131553340Y-84738570D01*
X131553340Y-84738570D02*
X131624770Y-84881430D01*
X131553340Y-85452860D02*
X131481910Y-85524290D01*
X131553340Y-86310000D02*
X131624770Y-86524290D01*
X131624770Y-84881430D02*
X131624770Y-85310000D01*
X131624770Y-85310000D02*
X131553340Y-85452860D01*
X131624770Y-86524290D02*
X131624770Y-86881430D01*
X131624770Y-86881430D02*
X130124770Y-86881430D01*
X131696200Y-76601430D02*
X131696200Y-75672860D01*
X131696200Y-77958570D02*
X130196200Y-77458570D01*
X132593340Y-85095710D02*
X133664770Y-85452860D01*
X132664770Y-86524290D02*
X132736200Y-86310000D01*
X132664770Y-86881430D02*
X132664770Y-86524290D01*
X132736200Y-75672860D02*
X133307630Y-76172860D01*
X132736200Y-76601430D02*
X132736200Y-75672860D01*
X132736200Y-77458570D02*
X134236200Y-76958570D01*
X132736200Y-86310000D02*
X132879060Y-86167140D01*
X132879060Y-86167140D02*
X133021910Y-86095710D01*
X133021910Y-86095710D02*
X133307630Y-86024290D01*
X133164770Y-84738570D02*
X134164770Y-84738570D01*
X133307630Y-75958570D02*
X133379060Y-75815720D01*
X133307630Y-76172860D02*
X133307630Y-75958570D01*
X133307630Y-86024290D02*
X133521910Y-86024290D01*
X133379060Y-75815720D02*
X133450490Y-75744290D01*
X133450490Y-75744290D02*
X133593340Y-75672860D01*
X133521910Y-86024290D02*
X133807630Y-86095710D01*
X133593340Y-75672860D02*
X133950490Y-75672860D01*
X133664770Y-85452860D02*
X133664770Y-84524290D01*
X133807630Y-77815720D02*
X133807630Y-77101430D01*
X133807630Y-86095710D02*
X133950490Y-86167140D01*
X133950490Y-75672860D02*
X134093340Y-75744290D01*
X133950490Y-86167140D02*
X134093340Y-86310000D01*
X134093340Y-75744290D02*
X134164770Y-75815720D01*
X134093340Y-86310000D02*
X134164770Y-86524290D01*
X134164770Y-75815720D02*
X134236200Y-75958570D01*
X134164770Y-76530000D02*
X134093340Y-76601430D01*
X134164770Y-86524290D02*
X134164770Y-86881430D01*
X134164770Y-86881430D02*
X132664770Y-86881430D01*
X134236200Y-75958570D02*
X134236200Y-76387140D01*
X134236200Y-76387140D02*
X134164770Y-76530000D01*
X134236200Y-77958570D02*
X132736200Y-77458570D01*
X134556200Y-85452860D02*
X134556200Y-84310000D01*
X134556200Y-87024290D02*
X134556200Y-85452860D01*
X134556200Y-87738570D02*
X134556200Y-87024290D01*
X134627630Y-71244290D02*
X134627630Y-69887140D01*
X134627630Y-72744290D02*
X134627630Y-71244290D01*
X134627630Y-74315720D02*
X134627630Y-72744290D01*
X134627630Y-75815720D02*
X134627630Y-74315720D01*
X134627630Y-77387140D02*
X134627630Y-75815720D01*
X134627630Y-78101430D02*
X134627630Y-77387140D01*
X135204770Y-85310000D02*
X135204770Y-84452860D01*
X135204770Y-86667140D02*
X136704770Y-85810000D01*
X135276200Y-70887140D02*
X135276200Y-70172860D01*
X135276200Y-71744290D02*
X135276200Y-71958570D01*
X135276200Y-71958570D02*
X135347630Y-72172860D01*
X135276200Y-73387140D02*
X135347630Y-73244290D01*
X135276200Y-73672860D02*
X135276200Y-73387140D01*
X135276200Y-74887140D02*
X135347630Y-74744290D01*
X135276200Y-75458570D02*
X135276200Y-74887140D01*
X135276200Y-76458570D02*
X135347630Y-76315720D01*
X135276200Y-76744290D02*
X135276200Y-76458570D01*
X135347630Y-71601430D02*
X135276200Y-71744290D01*
X135347630Y-72172860D02*
X135490490Y-72315720D01*
X135347630Y-73244290D02*
X135490490Y-73101430D01*
X135347630Y-73815720D02*
X135276200Y-73672860D01*
X135347630Y-74744290D02*
X135419060Y-74672860D01*
X135347630Y-76315720D02*
X135490490Y-76172860D01*
X135347630Y-76887140D02*
X135276200Y-76744290D01*
X135419060Y-74672860D02*
X135561920Y-74601430D01*
X135490490Y-72315720D02*
X135633340Y-72387140D01*
X135490490Y-73101430D02*
X135776200Y-73030000D01*
X135490490Y-73958570D02*
X135347630Y-73815720D01*
X135490490Y-76172860D02*
X135776200Y-76101430D01*
X135490490Y-77030000D02*
X135347630Y-76887140D01*
X135561920Y-74601430D02*
X135776200Y-74601430D01*
X135633340Y-72387140D02*
X135919060Y-72458570D01*
X135776200Y-73030000D02*
X136276200Y-73030000D01*
X135776200Y-74030000D02*
X135490490Y-73958570D01*
X135776200Y-74601430D02*
X135919060Y-74672860D01*
X135776200Y-76101430D02*
X136276200Y-76101430D01*
X135776200Y-77101430D02*
X135490490Y-77030000D01*
X135919060Y-72458570D02*
X136133340Y-72458570D01*
X135919060Y-74672860D02*
X135990490Y-74744290D01*
X135990490Y-70887140D02*
X135990490Y-70387140D01*
X135990490Y-74744290D02*
X136061920Y-74887140D01*
X136061920Y-74887140D02*
X136061920Y-75458570D01*
X136133340Y-71530000D02*
X136133340Y-71815720D01*
X136133340Y-72458570D02*
X136419060Y-72387140D01*
X136276200Y-73030000D02*
X136561920Y-73101430D01*
X136276200Y-74030000D02*
X135776200Y-74030000D01*
X136276200Y-76101430D02*
X136561920Y-76172860D01*
X136276200Y-77101430D02*
X135776200Y-77101430D01*
X136419060Y-72387140D02*
X136561920Y-72315720D01*
X136419060Y-73601430D02*
X136419060Y-73744290D01*
X136490490Y-73458570D02*
X136419060Y-73601430D01*
X136561920Y-72315720D02*
X136704770Y-72172860D01*
X136561920Y-73101430D02*
X136704770Y-73244290D01*
X136561920Y-73958570D02*
X136276200Y-74030000D01*
X136561920Y-76172860D02*
X136704770Y-76315720D01*
X136561920Y-77030000D02*
X136276200Y-77101430D01*
X136633340Y-71530000D02*
X136133340Y-71530000D01*
X136704770Y-71601430D02*
X136633340Y-71530000D01*
X136704770Y-72172860D02*
X136776200Y-71958570D01*
X136704770Y-73244290D02*
X136490490Y-73458570D01*
X136704770Y-73244290D02*
X136776200Y-73387140D01*
X136704770Y-73815720D02*
X136561920Y-73958570D01*
X136704770Y-76315720D02*
X136776200Y-76458570D01*
X136704770Y-76887140D02*
X136561920Y-77030000D01*
X136704770Y-84881430D02*
X135204770Y-84881430D01*
X136704770Y-85810000D02*
X135204770Y-85810000D01*
X136704770Y-86667140D02*
X135204770Y-86667140D01*
X136704770Y-87381430D02*
X135204770Y-87381430D01*
X136776200Y-70172860D02*
X136776200Y-70887140D01*
X136776200Y-70887140D02*
X135276200Y-70887140D01*
X136776200Y-71815720D02*
X136704770Y-71601430D01*
X136776200Y-71958570D02*
X136776200Y-71815720D01*
X136776200Y-73387140D02*
X136776200Y-73672860D01*
X136776200Y-73672860D02*
X136704770Y-73815720D01*
X136776200Y-74601430D02*
X136061920Y-75101430D01*
X136776200Y-75458570D02*
X135276200Y-75458570D01*
X136776200Y-76458570D02*
X136776200Y-76744290D01*
X136776200Y-76744290D02*
X136704770Y-76887140D01*
X136776200Y-77744290D02*
X135276200Y-77744290D01*
X136847630Y-73101430D02*
X136704770Y-73244290D01*
X136919060Y-72958570D02*
X136847630Y-73101430D01*
X137096200Y-85024290D02*
X137096200Y-84310000D01*
X137096200Y-86738570D02*
X137096200Y-85024290D01*
X137096200Y-88310000D02*
X137096200Y-86738570D01*
X137744770Y-85381430D02*
X139244770Y-85381430D01*
X137744770Y-86381430D02*
X138816200Y-85881430D01*
X137744770Y-87952860D02*
X139244770Y-87095710D01*
X137816200Y-74315720D02*
X137887630Y-74101430D01*
X137816200Y-74672860D02*
X137816200Y-74315720D01*
X137816200Y-76244290D02*
X139316200Y-75387140D01*
X137816200Y-77101430D02*
X137816200Y-77315720D01*
X137816200Y-77315720D02*
X137887630Y-77530000D01*
X137887630Y-74101430D02*
X138030490Y-73958570D01*
X137887630Y-76958570D02*
X137816200Y-77101430D01*
X137887630Y-77530000D02*
X138030490Y-77672860D01*
X138030490Y-73958570D02*
X138173340Y-73887140D01*
X138030490Y-77672860D02*
X138173340Y-77744290D01*
X138173340Y-73887140D02*
X138459060Y-73815720D01*
X138173340Y-77744290D02*
X138459060Y-77815720D01*
X138459060Y-73815720D02*
X138673340Y-73815720D01*
X138459060Y-77815720D02*
X138673340Y-77815720D01*
X138673340Y-73815720D02*
X138959060Y-73887140D01*
X138673340Y-76887140D02*
X138673340Y-77172860D01*
X138673340Y-77815720D02*
X138959060Y-77744290D01*
X138816200Y-85881430D02*
X137744770Y-85381430D01*
X138959060Y-73887140D02*
X139101920Y-73958570D01*
X138959060Y-77744290D02*
X139101920Y-77672860D01*
X139101920Y-73958570D02*
X139244770Y-74101430D01*
X139101920Y-77672860D02*
X139244770Y-77530000D01*
X139173340Y-76887140D02*
X138673340Y-76887140D01*
X139244770Y-74101430D02*
X139316200Y-74315720D01*
X139244770Y-76958570D02*
X139173340Y-76887140D01*
X139244770Y-77530000D02*
X139316200Y-77315720D01*
X139244770Y-84667140D02*
X137744770Y-84667140D01*
X139244770Y-86381430D02*
X137744770Y-86381430D01*
X139244770Y-87095710D02*
X137744770Y-87095710D01*
X139244770Y-87952860D02*
X137744770Y-87952860D01*
X139316200Y-74315720D02*
X139316200Y-74672860D01*
X139316200Y-74672860D02*
X137816200Y-74672860D01*
X139316200Y-75387140D02*
X137816200Y-75387140D01*
X139316200Y-76244290D02*
X137816200Y-76244290D01*
X139316200Y-77172860D02*
X139244770Y-76958570D01*
X139316200Y-77315720D02*
X139316200Y-77172860D01*
X139636200Y-85452860D02*
X139636200Y-84310000D01*
X139636200Y-86667140D02*
X139636200Y-85452860D01*
X139636200Y-87952860D02*
X139636200Y-86667140D01*
X139636200Y-89524290D02*
X139636200Y-87952860D01*
X139707630Y-69244290D02*
X139707630Y-67815720D01*
X139707630Y-70958570D02*
X139707630Y-69244290D01*
X139707630Y-72530000D02*
X139707630Y-70958570D01*
X139707630Y-74030000D02*
X139707630Y-72530000D01*
X139707630Y-75172860D02*
X139707630Y-74030000D01*
X139707630Y-76530000D02*
X139707630Y-75172860D01*
X139707630Y-78101430D02*
X139707630Y-76530000D01*
X140284770Y-85310000D02*
X140284770Y-84452860D01*
X140284770Y-87310000D02*
X141784770Y-86810000D01*
X140356200Y-68387140D02*
X140427630Y-68244290D01*
X140356200Y-68744290D02*
X140356200Y-68387140D01*
X140356200Y-69601430D02*
X141856200Y-69601430D01*
X140356200Y-70601430D02*
X141427630Y-70101430D01*
X140356200Y-71601430D02*
X140427630Y-71458570D01*
X140356200Y-71887140D02*
X140356200Y-71601430D01*
X140356200Y-73101430D02*
X140427630Y-72958570D01*
X140356200Y-73672860D02*
X140356200Y-73101430D01*
X140356200Y-76172860D02*
X140356200Y-75458570D01*
X140356200Y-77172860D02*
X140427630Y-77030000D01*
X140356200Y-77458570D02*
X140356200Y-77172860D01*
X140427630Y-68244290D02*
X140499060Y-68172860D01*
X140427630Y-68887140D02*
X140356200Y-68744290D01*
X140427630Y-71458570D02*
X140570490Y-71315720D01*
X140427630Y-72030000D02*
X140356200Y-71887140D01*
X140427630Y-72958570D02*
X140499060Y-72887140D01*
X140427630Y-77030000D02*
X140570490Y-76887140D01*
X140427630Y-77601430D02*
X140356200Y-77458570D01*
X140499060Y-68172860D02*
X140641920Y-68101430D01*
X140499060Y-68958570D02*
X140427630Y-68887140D01*
X140499060Y-72887140D02*
X140641920Y-72815720D01*
X140570490Y-71315720D02*
X140856200Y-71244290D01*
X140570490Y-72172860D02*
X140427630Y-72030000D01*
X140570490Y-76887140D02*
X140856200Y-76815720D01*
X140570490Y-77744290D02*
X140427630Y-77601430D01*
X140641920Y-68101430D02*
X140784770Y-68101430D01*
X140641920Y-72815720D02*
X140856200Y-72815720D01*
X140784770Y-68101430D02*
X140999060Y-68172860D01*
X140856200Y-71244290D02*
X141356200Y-71244290D01*
X140856200Y-72244290D02*
X140570490Y-72172860D01*
X140856200Y-72815720D02*
X140999060Y-72887140D01*
X140856200Y-76815720D02*
X141356200Y-76815720D01*
X140856200Y-77815720D02*
X140570490Y-77744290D01*
X140999060Y-68172860D02*
X141856200Y-69030000D01*
X140999060Y-72887140D02*
X141070490Y-72958570D01*
X140999060Y-89167140D02*
X140999060Y-88310000D01*
X141070490Y-72958570D02*
X141141920Y-73101430D01*
X141070490Y-76172860D02*
X141070490Y-75672860D01*
X141141920Y-73101430D02*
X141141920Y-73672860D01*
X141356200Y-71244290D02*
X141641920Y-71315720D01*
X141356200Y-72244290D02*
X140856200Y-72244290D01*
X141356200Y-76815720D02*
X141641920Y-76887140D01*
X141356200Y-77815720D02*
X140856200Y-77815720D01*
X141356200Y-87667140D02*
X141356200Y-86952860D01*
X141427630Y-70101430D02*
X140356200Y-69601430D01*
X141641920Y-71315720D02*
X141784770Y-71458570D01*
X141641920Y-72172860D02*
X141356200Y-72244290D01*
X141641920Y-76887140D02*
X141784770Y-77030000D01*
X141641920Y-77744290D02*
X141356200Y-77815720D01*
X141784770Y-71458570D02*
X141856200Y-71601430D01*
X141784770Y-72030000D02*
X141641920Y-72172860D01*
X141784770Y-77030000D02*
X141856200Y-77172860D01*
X141784770Y-77601430D02*
X141641920Y-77744290D01*
X141784770Y-84881430D02*
X140284770Y-84881430D01*
X141784770Y-85595710D02*
X141784770Y-86310000D01*
X141784770Y-86310000D02*
X140284770Y-86310000D01*
X141784770Y-87810000D02*
X140284770Y-87310000D01*
X141784770Y-88310000D02*
X140284770Y-88310000D01*
X141784770Y-89167140D02*
X140284770Y-89167140D01*
X141856200Y-69030000D02*
X141856200Y-68101430D01*
X141856200Y-70601430D02*
X140356200Y-70601430D01*
X141856200Y-71601430D02*
X141856200Y-71887140D01*
X141856200Y-71887140D02*
X141784770Y-72030000D01*
X141856200Y-72815720D02*
X141141920Y-73315720D01*
X141856200Y-73672860D02*
X140356200Y-73672860D01*
X141856200Y-75458570D02*
X141856200Y-76172860D01*
X141856200Y-76172860D02*
X140356200Y-76172860D01*
X141856200Y-77172860D02*
X141856200Y-77458570D01*
X141856200Y-77458570D02*
X141784770Y-77601430D01*
X141999060Y-75172860D02*
X141999060Y-74030000D01*
X142176200Y-85881430D02*
X142176200Y-84310000D01*
X142176200Y-87238570D02*
X142176200Y-85881430D01*
X142176200Y-88738570D02*
X142176200Y-87238570D01*
X142176200Y-90452860D02*
X142176200Y-88738570D01*
X142247630Y-78101430D02*
X142247630Y-76815720D01*
X142824770Y-84952860D02*
X142896200Y-84810000D01*
X142824770Y-85238570D02*
X142824770Y-84952860D01*
X142824770Y-86881430D02*
X142824770Y-86167140D01*
X142824770Y-87810000D02*
X142896200Y-87667140D01*
X142824770Y-88381430D02*
X142824770Y-87810000D01*
X142824770Y-89095710D02*
X144324770Y-89095710D01*
X142824770Y-90095710D02*
X143896200Y-89595710D01*
X142896200Y-77958570D02*
X143681920Y-77458570D01*
X142896200Y-84810000D02*
X143039060Y-84667140D01*
X142896200Y-85381430D02*
X142824770Y-85238570D01*
X142896200Y-87667140D02*
X142967630Y-87595710D01*
X142967630Y-87595710D02*
X143110490Y-87524290D01*
X143039060Y-84667140D02*
X143324770Y-84595710D01*
X143039060Y-85524290D02*
X142896200Y-85381430D01*
X143110490Y-87524290D02*
X143324770Y-87524290D01*
X143324770Y-84595710D02*
X143824770Y-84595710D01*
X143324770Y-85595710D02*
X143039060Y-85524290D01*
X143324770Y-87524290D02*
X143467630Y-87595710D01*
X143467630Y-87595710D02*
X143539060Y-87667140D01*
X143539060Y-86881430D02*
X143539060Y-86381430D01*
X143539060Y-87667140D02*
X143610490Y-87810000D01*
X143610490Y-87810000D02*
X143610490Y-88381430D01*
X143681920Y-77458570D02*
X142896200Y-76958570D01*
X143681920Y-77458570D02*
X144396200Y-77458570D01*
X143824770Y-84595710D02*
X144110490Y-84667140D01*
X143824770Y-85595710D02*
X143324770Y-85595710D01*
X143896200Y-89595710D02*
X142824770Y-89095710D01*
X143967630Y-85167140D02*
X143967630Y-85310000D01*
X144039060Y-85024290D02*
X143967630Y-85167140D01*
X144110490Y-84667140D02*
X144253340Y-84810000D01*
X144110490Y-85524290D02*
X143824770Y-85595710D01*
X144253340Y-84810000D02*
X144039060Y-85024290D01*
X144253340Y-84810000D02*
X144324770Y-84952860D01*
X144253340Y-85381430D02*
X144110490Y-85524290D01*
X144324770Y-84952860D02*
X144324770Y-85238570D01*
X144324770Y-85238570D02*
X144253340Y-85381430D01*
X144324770Y-86167140D02*
X144324770Y-86881430D01*
X144324770Y-86881430D02*
X142824770Y-86881430D01*
X144324770Y-87524290D02*
X143610490Y-88024290D01*
X144324770Y-88381430D02*
X142824770Y-88381430D01*
X144324770Y-90095710D02*
X142824770Y-90095710D01*
X144396200Y-84667140D02*
X144253340Y-84810000D01*
X144467630Y-84524290D02*
X144396200Y-84667140D01*
X144716200Y-85881430D02*
X144716200Y-84310000D01*
X144716200Y-87381430D02*
X144716200Y-85881430D01*
X144716200Y-88952860D02*
X144716200Y-87381430D01*
X144716200Y-89667140D02*
X144716200Y-88952860D01*
X145364770Y-84952860D02*
X145436200Y-84810000D01*
X145364770Y-85238570D02*
X145364770Y-84952860D01*
X145364770Y-86452860D02*
X145436200Y-86310000D01*
X145364770Y-87024290D02*
X145364770Y-86452860D01*
X145364770Y-88024290D02*
X145436200Y-87881430D01*
X145364770Y-88310000D02*
X145364770Y-88024290D01*
X145436200Y-77958570D02*
X146936200Y-77458570D01*
X145436200Y-84810000D02*
X145579060Y-84667140D01*
X145436200Y-85381430D02*
X145364770Y-85238570D01*
X145436200Y-86310000D02*
X145507630Y-86238570D01*
X145436200Y-87881430D02*
X145579060Y-87738570D01*
X145436200Y-88452860D02*
X145364770Y-88310000D01*
X145507630Y-86238570D02*
X145650490Y-86167140D01*
X145579060Y-84667140D02*
X145864770Y-84595710D01*
X145579060Y-85524290D02*
X145436200Y-85381430D01*
X145579060Y-87738570D02*
X145864770Y-87667140D01*
X145579060Y-88595710D02*
X145436200Y-88452860D01*
X145650490Y-86167140D02*
X145864770Y-86167140D01*
X145864770Y-84595710D02*
X146364770Y-84595710D01*
X145864770Y-85595710D02*
X145579060Y-85524290D01*
X145864770Y-86167140D02*
X146007630Y-86238570D01*
X145864770Y-87667140D02*
X146364770Y-87667140D01*
X145864770Y-88667140D02*
X145579060Y-88595710D01*
X146007630Y-86238570D02*
X146079060Y-86310000D01*
X146079060Y-86310000D02*
X146150490Y-86452860D01*
X146150490Y-86452860D02*
X146150490Y-87024290D01*
X146364770Y-84595710D02*
X146650490Y-84667140D01*
X146364770Y-85595710D02*
X145864770Y-85595710D01*
X146364770Y-87667140D02*
X146650490Y-87738570D01*
X146364770Y-88667140D02*
X145864770Y-88667140D01*
X146507630Y-85167140D02*
X146507630Y-85310000D01*
X146579060Y-85024290D02*
X146507630Y-85167140D01*
X146650490Y-84667140D02*
X146793340Y-84810000D01*
X146650490Y-85524290D02*
X146364770Y-85595710D01*
X146650490Y-87738570D02*
X146793340Y-87881430D01*
X146650490Y-88595710D02*
X146364770Y-88667140D01*
X146793340Y-84810000D02*
X146579060Y-85024290D01*
X146793340Y-84810000D02*
X146864770Y-84952860D01*
X146793340Y-85381430D02*
X146650490Y-85524290D01*
X146793340Y-87881430D02*
X146864770Y-88024290D01*
X146793340Y-88452860D02*
X146650490Y-88595710D01*
X146864770Y-84952860D02*
X146864770Y-85238570D01*
X146864770Y-85238570D02*
X146793340Y-85381430D01*
X146864770Y-86167140D02*
X146150490Y-86667140D01*
X146864770Y-87024290D02*
X145364770Y-87024290D01*
X146864770Y-88024290D02*
X146864770Y-88310000D01*
X146864770Y-88310000D02*
X146793340Y-88452860D01*
X146864770Y-89310000D02*
X145364770Y-89310000D01*
X146936200Y-77458570D02*
X145436200Y-76958570D01*
X146936200Y-84667140D02*
X146793340Y-84810000D01*
X147007630Y-84524290D02*
X146936200Y-84667140D01*
X147256200Y-85810000D02*
X147256200Y-84310000D01*
X147256200Y-87310000D02*
X147256200Y-85810000D01*
X147904770Y-85095710D02*
X147976200Y-84881430D01*
X147904770Y-85452860D02*
X147904770Y-85095710D01*
X147904770Y-86381430D02*
X147976200Y-86238570D01*
X147904770Y-86952860D02*
X147904770Y-86381430D01*
X147976200Y-77744290D02*
X149190490Y-77744290D01*
X147976200Y-84881430D02*
X148119060Y-84738570D01*
X147976200Y-86238570D02*
X148047630Y-86167140D01*
X148047630Y-86167140D02*
X148190490Y-86095710D01*
X148119060Y-84738570D02*
X148261910Y-84667140D01*
X148190490Y-86095710D02*
X148404770Y-86095710D01*
X148261910Y-84667140D02*
X148547630Y-84595710D01*
X148404770Y-86095710D02*
X148547630Y-86167140D01*
X148547630Y-84595710D02*
X148761910Y-84595710D01*
X148547630Y-86167140D02*
X148619060Y-86238570D01*
X148619060Y-86238570D02*
X148690490Y-86381430D01*
X148690490Y-86381430D02*
X148690490Y-86952860D01*
X148761910Y-84595710D02*
X149047630Y-84667140D01*
X149047630Y-84667140D02*
X149190490Y-84738570D01*
X149190490Y-76887140D02*
X147976200Y-76887140D01*
X149190490Y-77744290D02*
X149333340Y-77672860D01*
X149190490Y-84738570D02*
X149333340Y-84881430D01*
X149333340Y-76958570D02*
X149190490Y-76887140D01*
X149333340Y-77672860D02*
X149404770Y-77601430D01*
X149333340Y-84881430D02*
X149404770Y-85095710D01*
X149404770Y-77030000D02*
X149333340Y-76958570D01*
X149404770Y-77601430D02*
X149476200Y-77458570D01*
X149404770Y-85095710D02*
X149404770Y-85452860D01*
X149404770Y-85452860D02*
X147904770Y-85452860D01*
X149404770Y-86095710D02*
X148690490Y-86595710D01*
X149404770Y-86952860D02*
X147904770Y-86952860D01*
X149476200Y-77172860D02*
X149404770Y-77030000D01*
X149476200Y-77458570D02*
X149476200Y-77172860D01*
X149796200Y-85810000D02*
X149796200Y-84310000D01*
X149796200Y-87524290D02*
X149796200Y-85810000D01*
X149867630Y-72101430D02*
X149867630Y-70530000D01*
X149867630Y-73601430D02*
X149867630Y-72101430D01*
X149867630Y-75030000D02*
X149867630Y-73601430D01*
X149867630Y-76601430D02*
X149867630Y-75030000D01*
X149867630Y-78101430D02*
X149867630Y-76601430D01*
X150444770Y-84881430D02*
X150516200Y-84738570D01*
X150444770Y-85452860D02*
X150444770Y-84881430D01*
X150444770Y-87310000D02*
X151944770Y-86952860D01*
X150516200Y-71172860D02*
X150587630Y-71030000D01*
X150516200Y-71458570D02*
X150516200Y-71172860D01*
X150516200Y-72672860D02*
X150587630Y-72530000D01*
X150516200Y-73244290D02*
X150516200Y-72672860D01*
X150516200Y-74101430D02*
X150587630Y-73887140D01*
X150516200Y-74458570D02*
X150516200Y-74101430D01*
X150516200Y-76244290D02*
X151730490Y-76244290D01*
X150516200Y-77244290D02*
X150587630Y-77101430D01*
X150516200Y-77744290D02*
X150516200Y-77244290D01*
X150516200Y-84738570D02*
X150587630Y-84667140D01*
X150587630Y-71030000D02*
X150730490Y-70887140D01*
X150587630Y-71601430D02*
X150516200Y-71458570D01*
X150587630Y-72530000D02*
X150659060Y-72458570D01*
X150587630Y-74601430D02*
X150516200Y-74458570D01*
X150587630Y-77101430D02*
X150659060Y-77030000D01*
X150587630Y-84667140D02*
X150730490Y-84595710D01*
X150659060Y-72458570D02*
X150801920Y-72387140D01*
X150659060Y-74672860D02*
X150587630Y-74601430D01*
X150659060Y-77030000D02*
X150801920Y-76958570D01*
X150730490Y-70887140D02*
X151016200Y-70815720D01*
X150730490Y-71744290D02*
X150587630Y-71601430D01*
X150730490Y-84595710D02*
X150944770Y-84595710D01*
X150801920Y-72387140D02*
X151016200Y-72387140D01*
X150801920Y-74744290D02*
X150659060Y-74672860D01*
X150801920Y-76958570D02*
X150944770Y-76958570D01*
X150873340Y-86667140D02*
X151944770Y-86381430D01*
X150944770Y-74744290D02*
X150801920Y-74744290D01*
X150944770Y-76958570D02*
X151087630Y-77030000D01*
X150944770Y-84595710D02*
X151087630Y-84667140D01*
X151016200Y-70815720D02*
X151516200Y-70815720D01*
X151016200Y-71815720D02*
X150730490Y-71744290D01*
X151016200Y-72387140D02*
X151159060Y-72458570D01*
X151087630Y-74672860D02*
X150944770Y-74744290D01*
X151087630Y-77030000D02*
X151159060Y-77101430D01*
X151087630Y-84667140D02*
X151159060Y-84738570D01*
X151159060Y-72458570D02*
X151230490Y-72530000D01*
X151159060Y-74601430D02*
X151087630Y-74672860D01*
X151159060Y-77101430D02*
X151230490Y-77244290D01*
X151159060Y-84738570D02*
X151230490Y-84881430D01*
X151230490Y-72530000D02*
X151301920Y-72672860D01*
X151230490Y-74458570D02*
X151159060Y-74601430D01*
X151230490Y-77244290D02*
X151230490Y-77744290D01*
X151230490Y-77244290D02*
X151301920Y-77030000D01*
X151230490Y-84881430D02*
X151230490Y-85452860D01*
X151301920Y-72672860D02*
X151301920Y-73244290D01*
X151301920Y-74172860D02*
X151230490Y-74458570D01*
X151301920Y-77030000D02*
X151373340Y-76958570D01*
X151373340Y-74030000D02*
X151301920Y-74172860D01*
X151373340Y-76958570D02*
X151516200Y-76887140D01*
X151444770Y-73958570D02*
X151373340Y-74030000D01*
X151516200Y-70815720D02*
X151801920Y-70887140D01*
X151516200Y-71815720D02*
X151016200Y-71815720D01*
X151516200Y-76887140D02*
X151730490Y-76887140D01*
X151587630Y-73887140D02*
X151444770Y-73958570D01*
X151659060Y-71387140D02*
X151659060Y-71530000D01*
X151730490Y-71244290D02*
X151659060Y-71387140D01*
X151730490Y-73887140D02*
X151587630Y-73887140D01*
X151730490Y-75387140D02*
X150516200Y-75387140D01*
X151730490Y-76244290D02*
X151873340Y-76172860D01*
X151730490Y-76887140D02*
X151873340Y-76958570D01*
X151801920Y-70887140D02*
X151944770Y-71030000D01*
X151801920Y-71744290D02*
X151516200Y-71815720D01*
X151873340Y-73958570D02*
X151730490Y-73887140D01*
X151873340Y-75458570D02*
X151730490Y-75387140D01*
X151873340Y-76172860D02*
X151944770Y-76101430D01*
X151873340Y-76958570D02*
X151944770Y-77030000D01*
X151944770Y-71030000D02*
X151730490Y-71244290D01*
X151944770Y-71030000D02*
X152016200Y-71172860D01*
X151944770Y-71601430D02*
X151801920Y-71744290D01*
X151944770Y-74030000D02*
X151873340Y-73958570D01*
X151944770Y-74744290D02*
X152016200Y-74530000D01*
X151944770Y-75530000D02*
X151873340Y-75458570D01*
X151944770Y-76101430D02*
X152016200Y-75958570D01*
X151944770Y-77030000D02*
X152016200Y-77172860D01*
X151944770Y-84595710D02*
X151230490Y-85095710D01*
X151944770Y-85452860D02*
X150444770Y-85452860D01*
X151944770Y-86381430D02*
X150444770Y-86024290D01*
X151944770Y-86952860D02*
X150873340Y-86667140D01*
X152016200Y-71172860D02*
X152016200Y-71458570D01*
X152016200Y-71458570D02*
X151944770Y-71601430D01*
X152016200Y-72387140D02*
X151301920Y-72887140D01*
X152016200Y-73244290D02*
X150516200Y-73244290D01*
X152016200Y-74172860D02*
X151944770Y-74030000D01*
X152016200Y-74530000D02*
X152016200Y-74172860D01*
X152016200Y-75672860D02*
X151944770Y-75530000D01*
X152016200Y-75958570D02*
X152016200Y-75672860D01*
X152016200Y-77172860D02*
X152016200Y-77744290D01*
X152016200Y-77744290D02*
X150516200Y-77744290D01*
X152087630Y-70887140D02*
X151944770Y-71030000D01*
X152159060Y-70744290D02*
X152087630Y-70887140D01*
X152407630Y-72458570D02*
X152407630Y-71315720D01*
X152407630Y-73815720D02*
X152407630Y-72458570D01*
X152407630Y-75244290D02*
X152407630Y-73815720D01*
X152407630Y-76601430D02*
X152407630Y-75244290D01*
X152407630Y-78101430D02*
X152407630Y-76601430D01*
X152984770Y-85452860D02*
X154484770Y-84952860D01*
X152984770Y-85952860D02*
X152984770Y-86667140D01*
X152984770Y-86667140D02*
X153699060Y-86738570D01*
X153056200Y-72315720D02*
X153056200Y-71458570D01*
X153056200Y-73458570D02*
X153056200Y-72744290D01*
X153056200Y-74315720D02*
X153127630Y-74101430D01*
X153056200Y-74672860D02*
X153056200Y-74315720D01*
X153056200Y-76244290D02*
X153056200Y-75530000D01*
X153056200Y-77172860D02*
X153127630Y-77030000D01*
X153056200Y-77744290D02*
X153056200Y-77172860D01*
X153127630Y-74815720D02*
X153056200Y-74672860D01*
X153127630Y-77030000D02*
X153199060Y-76958570D01*
X153199060Y-74887140D02*
X153127630Y-74815720D01*
X153199060Y-76958570D02*
X153341920Y-76887140D01*
X153341920Y-74958570D02*
X153199060Y-74887140D01*
X153341920Y-76887140D02*
X153556200Y-76887140D01*
X153484770Y-74958570D02*
X153341920Y-74958570D01*
X153556200Y-76887140D02*
X153699060Y-76958570D01*
X153556200Y-86167140D02*
X153627630Y-86024290D01*
X153556200Y-86524290D02*
X153556200Y-86167140D01*
X153627630Y-74887140D02*
X153484770Y-74958570D01*
X153627630Y-86024290D02*
X153699060Y-85952860D01*
X153627630Y-86667140D02*
X153556200Y-86524290D01*
X153699060Y-74815720D02*
X153627630Y-74887140D01*
X153699060Y-76958570D02*
X153770490Y-77030000D01*
X153699060Y-85952860D02*
X153841910Y-85881430D01*
X153699060Y-86738570D02*
X153627630Y-86667140D01*
X153770490Y-73458570D02*
X153770490Y-72958570D01*
X153770490Y-74672860D02*
X153699060Y-74815720D01*
X153770490Y-76244290D02*
X153770490Y-75744290D01*
X153770490Y-77030000D02*
X153841920Y-77172860D01*
X153841910Y-85881430D02*
X154199060Y-85881430D01*
X153841920Y-74387140D02*
X153770490Y-74672860D01*
X153841920Y-77172860D02*
X153841920Y-77744290D01*
X153913340Y-74244290D02*
X153841920Y-74387140D01*
X153913340Y-88524290D02*
X153913340Y-87381430D01*
X153984770Y-74172860D02*
X153913340Y-74244290D01*
X154127630Y-74101430D02*
X153984770Y-74172860D01*
X154199060Y-85881430D02*
X154341910Y-85952860D01*
X154270490Y-74101430D02*
X154127630Y-74101430D01*
X154341910Y-85952860D02*
X154413340Y-86024290D01*
X154413340Y-74172860D02*
X154270490Y-74101430D01*
X154413340Y-86024290D02*
X154484770Y-86167140D01*
X154413340Y-86667140D02*
X154341910Y-86738570D01*
X154484770Y-74244290D02*
X154413340Y-74172860D01*
X154484770Y-74958570D02*
X154556200Y-74744290D01*
X154484770Y-84952860D02*
X152984770Y-84452860D01*
X154484770Y-86167140D02*
X154484770Y-86524290D01*
X154484770Y-86524290D02*
X154413340Y-86667140D01*
X154556200Y-71887140D02*
X153056200Y-71887140D01*
X154556200Y-72744290D02*
X154556200Y-73458570D01*
X154556200Y-73458570D02*
X153056200Y-73458570D01*
X154556200Y-74387140D02*
X154484770Y-74244290D01*
X154556200Y-74744290D02*
X154556200Y-74387140D01*
X154556200Y-75530000D02*
X154556200Y-76244290D01*
X154556200Y-76244290D02*
X153056200Y-76244290D01*
X154556200Y-76887140D02*
X153841920Y-77387140D01*
X154556200Y-77744290D02*
X153056200Y-77744290D01*
X154876200Y-85452860D02*
X154876200Y-84310000D01*
X154876200Y-86167140D02*
X154876200Y-85452860D01*
X154876200Y-87452860D02*
X154876200Y-86167140D01*
X154876200Y-89167140D02*
X154876200Y-87452860D01*
X155524770Y-85310000D02*
X155524770Y-84452860D01*
X155524770Y-86810000D02*
X157024770Y-86310000D01*
X155524770Y-88952860D02*
X157024770Y-88595710D01*
X155596200Y-75601430D02*
X157096200Y-76244290D01*
X155596200Y-76601430D02*
X155596200Y-75601430D01*
X155596200Y-77458570D02*
X157096200Y-76958570D01*
X155953340Y-88310000D02*
X157024770Y-88024290D01*
X156596200Y-87167140D02*
X156596200Y-86452860D01*
X156667630Y-77815720D02*
X156667630Y-77101430D01*
X157024770Y-84881430D02*
X155524770Y-84881430D01*
X157024770Y-85810000D02*
X155524770Y-85810000D01*
X157024770Y-87310000D02*
X155524770Y-86810000D01*
X157024770Y-88024290D02*
X155524770Y-87667140D01*
X157024770Y-88595710D02*
X155953340Y-88310000D01*
X157096200Y-77958570D02*
X155596200Y-77458570D01*
X158064770Y-85452860D02*
X159564770Y-84952860D01*
X158064770Y-86167140D02*
X158136200Y-86024290D01*
X158064770Y-86524290D02*
X158064770Y-86167140D01*
X158064770Y-87738570D02*
X158279060Y-87881430D01*
X158136200Y-75815720D02*
X158136200Y-76101430D01*
X158136200Y-76101430D02*
X158207630Y-76244290D01*
X158136200Y-77458570D02*
X159636200Y-76958570D01*
X158136200Y-86024290D02*
X158207630Y-85952860D01*
X158136200Y-86667140D02*
X158064770Y-86524290D01*
X158207630Y-76244290D02*
X158279060Y-76315720D01*
X158207630Y-85952860D02*
X158350490Y-85881430D01*
X158207630Y-86738570D02*
X158136200Y-86667140D01*
X158279060Y-76315720D02*
X158493340Y-76458570D01*
X158279060Y-87881430D02*
X158421910Y-88024290D01*
X158350490Y-85881430D02*
X158493340Y-85881430D01*
X158421910Y-88024290D02*
X158493340Y-88167140D01*
X158493340Y-76458570D02*
X158779060Y-76530000D01*
X158493340Y-85881430D02*
X158707630Y-85952860D01*
X158707630Y-75958570D02*
X158707630Y-76244290D01*
X158707630Y-76244290D02*
X158779060Y-76387140D01*
X158707630Y-85952860D02*
X159564770Y-86810000D01*
X158779060Y-75815720D02*
X158707630Y-75958570D01*
X158779060Y-76387140D02*
X158850490Y-76458570D01*
X158779060Y-76530000D02*
X159350490Y-76530000D01*
X158850490Y-75744290D02*
X158779060Y-75815720D01*
X158850490Y-76458570D02*
X158993340Y-76530000D01*
X158993340Y-75672860D02*
X158850490Y-75744290D01*
X158993340Y-89952860D02*
X158993340Y-88810000D01*
X159207630Y-77815720D02*
X159207630Y-77101430D01*
X159350490Y-75672860D02*
X158993340Y-75672860D01*
X159350490Y-76530000D02*
X159493340Y-76458570D01*
X159493340Y-75744290D02*
X159350490Y-75672860D01*
X159493340Y-76458570D02*
X159564770Y-76387140D01*
X159564770Y-75815720D02*
X159493340Y-75744290D01*
X159564770Y-76387140D02*
X159636200Y-76244290D01*
X159564770Y-84952860D02*
X158064770Y-84452860D01*
X159564770Y-86810000D02*
X159564770Y-85881430D01*
X159564770Y-87310000D02*
X159564770Y-88167140D01*
X159564770Y-87738570D02*
X158064770Y-87738570D01*
X159564770Y-89381430D02*
X158421910Y-89381430D01*
X159636200Y-75958570D02*
X159564770Y-75815720D01*
X159636200Y-76244290D02*
X159636200Y-75958570D01*
X159636200Y-77958570D02*
X158136200Y-77458570D01*
X160604770Y-84881430D02*
X160676200Y-84667140D01*
X160604770Y-85024290D02*
X160604770Y-84881430D01*
X160604770Y-86452860D02*
X162104770Y-85952860D01*
X160604770Y-88238570D02*
X162104770Y-87738570D01*
X160604770Y-88952860D02*
X160676200Y-88810000D01*
X160604770Y-89310000D02*
X160604770Y-88952860D01*
X160604770Y-90524290D02*
X160819060Y-90667140D01*
X160676200Y-75744290D02*
X160676200Y-76458570D01*
X160676200Y-76458570D02*
X161390490Y-76530000D01*
X160676200Y-77458570D02*
X162176200Y-76958570D01*
X160676200Y-84667140D02*
X160747630Y-84595710D01*
X160676200Y-85238570D02*
X160604770Y-85024290D01*
X160676200Y-88810000D02*
X160747630Y-88738570D01*
X160676200Y-89452860D02*
X160604770Y-89310000D01*
X160747630Y-88738570D02*
X160890490Y-88667140D01*
X160747630Y-89524290D02*
X160676200Y-89452860D01*
X160819060Y-85381430D02*
X160676200Y-85238570D01*
X160819060Y-90667140D02*
X160961910Y-90810000D01*
X160890490Y-88667140D02*
X161033340Y-88667140D01*
X160961910Y-85452860D02*
X160819060Y-85381430D01*
X160961910Y-90810000D02*
X161033340Y-90952860D01*
X161033340Y-88667140D02*
X161247630Y-88738570D01*
X161247630Y-75958570D02*
X161319060Y-75815720D01*
X161247630Y-76315720D02*
X161247630Y-75958570D01*
X161247630Y-85524290D02*
X160961910Y-85452860D01*
X161247630Y-88738570D02*
X162104770Y-89595710D01*
X161319060Y-75815720D02*
X161390490Y-75744290D01*
X161319060Y-76458570D02*
X161247630Y-76315720D01*
X161390490Y-75744290D02*
X161533340Y-75672860D01*
X161390490Y-76530000D02*
X161319060Y-76458570D01*
X161461910Y-85524290D02*
X161247630Y-85524290D01*
X161533340Y-75672860D02*
X161890490Y-75672860D01*
X161676200Y-86810000D02*
X161676200Y-86095710D01*
X161747630Y-77815720D02*
X161747630Y-77101430D01*
X161747630Y-85452860D02*
X161461910Y-85524290D01*
X161890490Y-75672860D02*
X162033340Y-75744290D01*
X161890490Y-85381430D02*
X161747630Y-85452860D01*
X161961910Y-84595710D02*
X162033340Y-84667140D01*
X162033340Y-75744290D02*
X162104770Y-75815720D01*
X162033340Y-84667140D02*
X162104770Y-84881430D01*
X162033340Y-85238570D02*
X161890490Y-85381430D01*
X162104770Y-75815720D02*
X162176200Y-75958570D01*
X162104770Y-76458570D02*
X162033340Y-76530000D01*
X162104770Y-84881430D02*
X162104770Y-85024290D01*
X162104770Y-85024290D02*
X162033340Y-85238570D01*
X162104770Y-86952860D02*
X160604770Y-86452860D01*
X162104770Y-87738570D02*
X160604770Y-87238570D01*
X162104770Y-89595710D02*
X162104770Y-88667140D01*
X162104770Y-90095710D02*
X162104770Y-90952860D01*
X162104770Y-90524290D02*
X160604770Y-90524290D01*
X162176200Y-75958570D02*
X162176200Y-76315720D01*
X162176200Y-76315720D02*
X162104770Y-76458570D01*
X162176200Y-77958570D02*
X160676200Y-77458570D01*
X162496200Y-85738570D02*
X162496200Y-84310000D01*
X162496200Y-87452860D02*
X162496200Y-85738570D01*
X163144770Y-76172860D02*
X164216200Y-76530000D01*
X163144770Y-85024290D02*
X163359060Y-85167140D01*
X163144770Y-86095710D02*
X164644770Y-86095710D01*
X163144770Y-87095710D02*
X164216200Y-86595710D01*
X163216200Y-77458570D02*
X164716200Y-76958570D01*
X163359060Y-85167140D02*
X163501910Y-85310000D01*
X163501910Y-85310000D02*
X163573340Y-85452860D01*
X163716200Y-75815720D02*
X164716200Y-75815720D01*
X164216200Y-76530000D02*
X164216200Y-75601430D01*
X164216200Y-86595710D02*
X163144770Y-86095710D01*
X164287630Y-77815720D02*
X164287630Y-77101430D01*
X164644770Y-84595710D02*
X164644770Y-85452860D01*
X164644770Y-85024290D02*
X163144770Y-85024290D01*
X164644770Y-87095710D02*
X163144770Y-87095710D01*
X164716200Y-77958570D02*
X163216200Y-77458570D01*
X165036200Y-85881430D02*
X165036200Y-84310000D01*
X165036200Y-87310000D02*
X165036200Y-85881430D01*
X165036200Y-88595710D02*
X165036200Y-87310000D01*
X165036200Y-90095710D02*
X165036200Y-88595710D01*
X165107630Y-71815720D02*
X165107630Y-70387140D01*
X165107630Y-73315720D02*
X165107630Y-71815720D01*
X165107630Y-75030000D02*
X165107630Y-73315720D01*
X165107630Y-76601430D02*
X165107630Y-75030000D01*
X165107630Y-78101430D02*
X165107630Y-76601430D01*
X165684770Y-86381430D02*
X165756200Y-86167140D01*
X165684770Y-86738570D02*
X165684770Y-86381430D01*
X165684770Y-88238570D02*
X165684770Y-87524290D01*
X165684770Y-89167140D02*
X165756200Y-89024290D01*
X165684770Y-89738570D02*
X165684770Y-89167140D01*
X165756200Y-70887140D02*
X165827630Y-70672860D01*
X165756200Y-71244290D02*
X165756200Y-70887140D01*
X165756200Y-72387140D02*
X165827630Y-72172860D01*
X165756200Y-72530000D02*
X165756200Y-72387140D01*
X165756200Y-73672860D02*
X167256200Y-73672860D01*
X165756200Y-74672860D02*
X166827630Y-74172860D01*
X165756200Y-75672860D02*
X165827630Y-75530000D01*
X165756200Y-75958570D02*
X165756200Y-75672860D01*
X165756200Y-77172860D02*
X165827630Y-77030000D01*
X165756200Y-77744290D02*
X165756200Y-77172860D01*
X165756200Y-86881430D02*
X165684770Y-86738570D01*
X165756200Y-89024290D02*
X165827630Y-88952860D01*
X165827630Y-71387140D02*
X165756200Y-71244290D01*
X165827630Y-72172860D02*
X165899060Y-72101430D01*
X165827630Y-72744290D02*
X165756200Y-72530000D01*
X165827630Y-75530000D02*
X165970490Y-75387140D01*
X165827630Y-76101430D02*
X165756200Y-75958570D01*
X165827630Y-77030000D02*
X165899060Y-76958570D01*
X165827630Y-86952860D02*
X165756200Y-86881430D01*
X165827630Y-88952860D02*
X165970490Y-88881430D01*
X165899060Y-71458570D02*
X165827630Y-71387140D01*
X165899060Y-76958570D02*
X166041920Y-76887140D01*
X165970490Y-72887140D02*
X165827630Y-72744290D01*
X165970490Y-75387140D02*
X166256200Y-75315720D01*
X165970490Y-76244290D02*
X165827630Y-76101430D01*
X165970490Y-87024290D02*
X165827630Y-86952860D01*
X165970490Y-88881430D02*
X166184770Y-88881430D01*
X166041920Y-71530000D02*
X165899060Y-71458570D01*
X166041920Y-76887140D02*
X166256200Y-76887140D01*
X166113340Y-72958570D02*
X165970490Y-72887140D01*
X166113340Y-87024290D02*
X165970490Y-87024290D01*
X166184770Y-71530000D02*
X166041920Y-71530000D01*
X166184770Y-88881430D02*
X166327630Y-88952860D01*
X166256200Y-75315720D02*
X166756200Y-75315720D01*
X166256200Y-76315720D02*
X165970490Y-76244290D01*
X166256200Y-76887140D02*
X166399060Y-76958570D01*
X166256200Y-86952860D02*
X166113340Y-87024290D01*
X166327630Y-71458570D02*
X166184770Y-71530000D01*
X166327630Y-86881430D02*
X166256200Y-86952860D01*
X166327630Y-88952860D02*
X166399060Y-89024290D01*
X166399060Y-71387140D02*
X166327630Y-71458570D01*
X166399060Y-73030000D02*
X166113340Y-72958570D01*
X166399060Y-76958570D02*
X166470490Y-77030000D01*
X166399060Y-85524290D02*
X166399060Y-84667140D01*
X166399060Y-86738570D02*
X166327630Y-86881430D01*
X166399060Y-87738570D02*
X166399060Y-88238570D01*
X166399060Y-89024290D02*
X166470490Y-89167140D01*
X166470490Y-71244290D02*
X166399060Y-71387140D01*
X166470490Y-77030000D02*
X166541920Y-77172860D01*
X166470490Y-86452860D02*
X166399060Y-86738570D01*
X166470490Y-89167140D02*
X166470490Y-89738570D01*
X166541910Y-86310000D02*
X166470490Y-86452860D01*
X166541920Y-70958570D02*
X166470490Y-71244290D01*
X166541920Y-77172860D02*
X166541920Y-77744290D01*
X166613340Y-70815720D02*
X166541920Y-70958570D01*
X166613340Y-73030000D02*
X166399060Y-73030000D01*
X166613340Y-86238570D02*
X166541910Y-86310000D01*
X166684770Y-70744290D02*
X166613340Y-70815720D01*
X166756200Y-75315720D02*
X167041920Y-75387140D01*
X166756200Y-76315720D02*
X166256200Y-76315720D01*
X166756200Y-86167140D02*
X166613340Y-86238570D01*
X166827630Y-70672860D02*
X166684770Y-70744290D01*
X166827630Y-74172860D02*
X165756200Y-73672860D01*
X166899060Y-72958570D02*
X166613340Y-73030000D01*
X166899060Y-86167140D02*
X166756200Y-86167140D01*
X166970490Y-70672860D02*
X166827630Y-70672860D01*
X167041910Y-86238570D02*
X166899060Y-86167140D01*
X167041920Y-72887140D02*
X166899060Y-72958570D01*
X167041920Y-75387140D02*
X167184770Y-75530000D01*
X167041920Y-76244290D02*
X166756200Y-76315720D01*
X167113340Y-70744290D02*
X166970490Y-70672860D01*
X167113340Y-72101430D02*
X167184770Y-72172860D01*
X167113340Y-86310000D02*
X167041910Y-86238570D01*
X167113340Y-87024290D02*
X167184770Y-86810000D01*
X167184770Y-70815720D02*
X167113340Y-70744290D01*
X167184770Y-71530000D02*
X167256200Y-71315720D01*
X167184770Y-72172860D02*
X167256200Y-72387140D01*
X167184770Y-72744290D02*
X167041920Y-72887140D01*
X167184770Y-75530000D02*
X167256200Y-75672860D01*
X167184770Y-76101430D02*
X167041920Y-76244290D01*
X167184770Y-84667140D02*
X165684770Y-84667140D01*
X167184770Y-85524290D02*
X165684770Y-85524290D01*
X167184770Y-86452860D02*
X167113340Y-86310000D01*
X167184770Y-86810000D02*
X167184770Y-86452860D01*
X167184770Y-88238570D02*
X165684770Y-88238570D01*
X167184770Y-88881430D02*
X166470490Y-89381430D01*
X167184770Y-89738570D02*
X165684770Y-89738570D01*
X167256200Y-70958570D02*
X167184770Y-70815720D01*
X167256200Y-71315720D02*
X167256200Y-70958570D01*
X167256200Y-72387140D02*
X167256200Y-72530000D01*
X167256200Y-72530000D02*
X167184770Y-72744290D01*
X167256200Y-74672860D02*
X165756200Y-74672860D01*
X167256200Y-75672860D02*
X167256200Y-75958570D01*
X167256200Y-75958570D02*
X167184770Y-76101430D01*
X167256200Y-76887140D02*
X166541920Y-77387140D01*
X167256200Y-77744290D02*
X165756200Y-77744290D01*
X167647630Y-70815720D02*
X167647630Y-69315720D01*
X167647630Y-72315720D02*
X167647630Y-70815720D01*
X167647630Y-73601430D02*
X167647630Y-72315720D01*
X167647630Y-75030000D02*
X167647630Y-73601430D01*
X167647630Y-76601430D02*
X167647630Y-75030000D01*
X167647630Y-78101430D02*
X167647630Y-76601430D01*
X168224770Y-84881430D02*
X168296200Y-84738570D01*
X168224770Y-85167140D02*
X168224770Y-84881430D01*
X168224770Y-86381430D02*
X169724770Y-85881430D01*
X168296200Y-69601430D02*
X169153340Y-70458570D01*
X168296200Y-71387140D02*
X168367630Y-71172860D01*
X168296200Y-71530000D02*
X168296200Y-71387140D01*
X168296200Y-72958570D02*
X169796200Y-72458570D01*
X168296200Y-74101430D02*
X168367630Y-73887140D01*
X168296200Y-74458570D02*
X168296200Y-74101430D01*
X168296200Y-76244290D02*
X169510490Y-76244290D01*
X168296200Y-77244290D02*
X168367630Y-77101430D01*
X168296200Y-77744290D02*
X168296200Y-77244290D01*
X168296200Y-84738570D02*
X168367630Y-84667140D01*
X168296200Y-85310000D02*
X168224770Y-85167140D01*
X168367630Y-71172860D02*
X168439060Y-71101430D01*
X168367630Y-71744290D02*
X168296200Y-71530000D01*
X168367630Y-74601430D02*
X168296200Y-74458570D01*
X168367630Y-77101430D02*
X168439060Y-77030000D01*
X168367630Y-84667140D02*
X168510490Y-84595710D01*
X168367630Y-85381430D02*
X168296200Y-85310000D01*
X168439060Y-74672860D02*
X168367630Y-74601430D01*
X168439060Y-77030000D02*
X168581920Y-76958570D01*
X168510490Y-71887140D02*
X168367630Y-71744290D01*
X168510490Y-84595710D02*
X168581910Y-84595710D01*
X168510490Y-85452860D02*
X168367630Y-85381430D01*
X168581910Y-84595710D02*
X168724770Y-84667140D01*
X168581910Y-85452860D02*
X168510490Y-85452860D01*
X168581920Y-74744290D02*
X168439060Y-74672860D01*
X168581920Y-76958570D02*
X168724770Y-76958570D01*
X168653340Y-71958570D02*
X168510490Y-71887140D01*
X168724770Y-74744290D02*
X168581920Y-74744290D01*
X168724770Y-76958570D02*
X168867630Y-77030000D01*
X168724770Y-84667140D02*
X168796200Y-84738570D01*
X168724770Y-85381430D02*
X168581910Y-85452860D01*
X168796200Y-84738570D02*
X168867630Y-84881430D01*
X168796200Y-85310000D02*
X168724770Y-85381430D01*
X168867630Y-74672860D02*
X168724770Y-74744290D01*
X168867630Y-77030000D02*
X168939060Y-77101430D01*
X168867630Y-84881430D02*
X168867630Y-85167140D01*
X168867630Y-85167140D02*
X168796200Y-85310000D01*
X168867630Y-85167140D02*
X168939060Y-85310000D01*
X168939060Y-72030000D02*
X168653340Y-71958570D01*
X168939060Y-74601430D02*
X168867630Y-74672860D01*
X168939060Y-77101430D02*
X169010490Y-77244290D01*
X168939060Y-84738570D02*
X168867630Y-84881430D01*
X168939060Y-85310000D02*
X169010490Y-85381430D01*
X169010490Y-74458570D02*
X168939060Y-74601430D01*
X169010490Y-77244290D02*
X169010490Y-77744290D01*
X169010490Y-77244290D02*
X169081920Y-77030000D01*
X169010490Y-84667140D02*
X168939060Y-84738570D01*
X169010490Y-85381430D02*
X169153340Y-85452860D01*
X169081920Y-74172860D02*
X169010490Y-74458570D01*
X169081920Y-77030000D02*
X169153340Y-76958570D01*
X169153340Y-72030000D02*
X168939060Y-72030000D01*
X169153340Y-74030000D02*
X169081920Y-74172860D01*
X169153340Y-76958570D02*
X169296200Y-76887140D01*
X169153340Y-84595710D02*
X169010490Y-84667140D01*
X169153340Y-85452860D02*
X169439060Y-85452860D01*
X169224770Y-73958570D02*
X169153340Y-74030000D01*
X169296200Y-76887140D02*
X169510490Y-76887140D01*
X169296200Y-86738570D02*
X169296200Y-86024290D01*
X169367630Y-73315720D02*
X169367630Y-72601430D01*
X169367630Y-73887140D02*
X169224770Y-73958570D01*
X169439060Y-71958570D02*
X169153340Y-72030000D01*
X169439060Y-84595710D02*
X169153340Y-84595710D01*
X169439060Y-85452860D02*
X169581910Y-85381430D01*
X169510490Y-73887140D02*
X169367630Y-73887140D01*
X169510490Y-75387140D02*
X168296200Y-75387140D01*
X169510490Y-76244290D02*
X169653340Y-76172860D01*
X169510490Y-76887140D02*
X169653340Y-76958570D01*
X169581910Y-84667140D02*
X169439060Y-84595710D01*
X169581910Y-85381430D02*
X169653340Y-85310000D01*
X169581920Y-71887140D02*
X169439060Y-71958570D01*
X169653340Y-71101430D02*
X169724770Y-71172860D01*
X169653340Y-73958570D02*
X169510490Y-73887140D01*
X169653340Y-75458570D02*
X169510490Y-75387140D01*
X169653340Y-76172860D02*
X169724770Y-76101430D01*
X169653340Y-76958570D02*
X169724770Y-77030000D01*
X169653340Y-84738570D02*
X169581910Y-84667140D01*
X169653340Y-85310000D02*
X169724770Y-85167140D01*
X169724770Y-71172860D02*
X169796200Y-71387140D01*
X169724770Y-71744290D02*
X169581920Y-71887140D01*
X169724770Y-74030000D02*
X169653340Y-73958570D01*
X169724770Y-74744290D02*
X169796200Y-74530000D01*
X169724770Y-75530000D02*
X169653340Y-75458570D01*
X169724770Y-76101430D02*
X169796200Y-75958570D01*
X169724770Y-77030000D02*
X169796200Y-77172860D01*
X169724770Y-84881430D02*
X169653340Y-84738570D01*
X169724770Y-85167140D02*
X169724770Y-84881430D01*
X169724770Y-86881430D02*
X168224770Y-86381430D01*
X169796200Y-69601430D02*
X168939060Y-70244290D01*
X169796200Y-70458570D02*
X168296200Y-70458570D01*
X169796200Y-71387140D02*
X169796200Y-71530000D01*
X169796200Y-71530000D02*
X169724770Y-71744290D01*
X169796200Y-73458570D02*
X168296200Y-72958570D01*
X169796200Y-74172860D02*
X169724770Y-74030000D01*
X169796200Y-74530000D02*
X169796200Y-74172860D01*
X169796200Y-75672860D02*
X169724770Y-75530000D01*
X169796200Y-75958570D02*
X169796200Y-75672860D01*
X169796200Y-77172860D02*
X169796200Y-77744290D01*
X169796200Y-77744290D02*
X168296200Y-77744290D01*
X170764770Y-84952860D02*
X170836200Y-84810000D01*
X170764770Y-85095710D02*
X170764770Y-84952860D01*
X170764770Y-86452860D02*
X170979060Y-86595710D01*
X170764770Y-87810000D02*
X172264770Y-87310000D01*
X170836200Y-75958570D02*
X170836200Y-76244290D01*
X170836200Y-76244290D02*
X170907630Y-76387140D01*
X170836200Y-77458570D02*
X172336200Y-76958570D01*
X170836200Y-84810000D02*
X170907630Y-84738570D01*
X170836200Y-85238570D02*
X170764770Y-85095710D01*
X170907630Y-75815720D02*
X170836200Y-75958570D01*
X170907630Y-76387140D02*
X170979060Y-76458570D01*
X170907630Y-84738570D02*
X171050490Y-84667140D01*
X170907630Y-85310000D02*
X170836200Y-85238570D01*
X170979060Y-75744290D02*
X170907630Y-75815720D01*
X170979060Y-76458570D02*
X171121920Y-76530000D01*
X170979060Y-86595710D02*
X171121910Y-86738570D01*
X171050490Y-84667140D02*
X171336200Y-84595710D01*
X171050490Y-85381430D02*
X170907630Y-85310000D01*
X171121910Y-86738570D02*
X171193340Y-86881430D01*
X171121920Y-75672860D02*
X170979060Y-75744290D01*
X171121920Y-76530000D02*
X171479060Y-76530000D01*
X171336200Y-84595710D02*
X171693340Y-84595710D01*
X171336200Y-85452860D02*
X171050490Y-85381430D01*
X171479060Y-76530000D02*
X171621920Y-76458570D01*
X171621920Y-75744290D02*
X171479060Y-75672860D01*
X171621920Y-76458570D02*
X171693340Y-76387140D01*
X171693340Y-75672860D02*
X171121920Y-75672860D01*
X171693340Y-75815720D02*
X171621920Y-75744290D01*
X171693340Y-76387140D02*
X171764770Y-76244290D01*
X171693340Y-84595710D02*
X171979060Y-84667140D01*
X171693340Y-85452860D02*
X171336200Y-85452860D01*
X171764770Y-75958570D02*
X171693340Y-75815720D01*
X171764770Y-76244290D02*
X171764770Y-75958570D01*
X171836200Y-88167140D02*
X171836200Y-87452860D01*
X171907630Y-77815720D02*
X171907630Y-77101430D01*
X171979060Y-75744290D02*
X171693340Y-75672860D01*
X171979060Y-84667140D02*
X172121910Y-84738570D01*
X171979060Y-85381430D02*
X171693340Y-85452860D01*
X172121910Y-84738570D02*
X172193340Y-84810000D01*
X172121910Y-85310000D02*
X171979060Y-85381430D01*
X172193340Y-75887140D02*
X171979060Y-75744290D01*
X172193340Y-84810000D02*
X172264770Y-84952860D01*
X172193340Y-85238570D02*
X172121910Y-85310000D01*
X172264770Y-75958570D02*
X172193340Y-75887140D01*
X172264770Y-84952860D02*
X172264770Y-85095710D01*
X172264770Y-85095710D02*
X172193340Y-85238570D01*
X172264770Y-86024290D02*
X172264770Y-86881430D01*
X172264770Y-86452860D02*
X170764770Y-86452860D01*
X172264770Y-88310000D02*
X170764770Y-87810000D01*
X172336200Y-76101430D02*
X172264770Y-75958570D01*
X172336200Y-76387140D02*
X172336200Y-76101430D01*
X172336200Y-77958570D02*
X170836200Y-77458570D01*
X173304770Y-85310000D02*
X173304770Y-84452860D01*
X173304770Y-86452860D02*
X173304770Y-85738570D01*
X173304770Y-87310000D02*
X173376200Y-87095710D01*
X173304770Y-87667140D02*
X173304770Y-87310000D01*
X173304770Y-89238570D02*
X173304770Y-88524290D01*
X173304770Y-90167140D02*
X173376200Y-90024290D01*
X173304770Y-90738570D02*
X173304770Y-90167140D01*
X173376200Y-74672860D02*
X173590490Y-74815720D01*
X173376200Y-76101430D02*
X173590490Y-76244290D01*
X173376200Y-77458570D02*
X174876200Y-76958570D01*
X173376200Y-87810000D02*
X173304770Y-87667140D01*
X173376200Y-90024290D02*
X173447630Y-89952860D01*
X173447630Y-87881430D02*
X173376200Y-87810000D01*
X173447630Y-89952860D02*
X173590490Y-89881430D01*
X173590490Y-74815720D02*
X173733340Y-74958570D01*
X173590490Y-76244290D02*
X173733340Y-76387140D01*
X173590490Y-87952860D02*
X173447630Y-87881430D01*
X173590490Y-89881430D02*
X173804770Y-89881430D01*
X173733340Y-74958570D02*
X173804770Y-75101430D01*
X173733340Y-76387140D02*
X173804770Y-76530000D01*
X173733340Y-87952860D02*
X173590490Y-87952860D01*
X173804770Y-89881430D02*
X173947630Y-89952860D01*
X173876200Y-87881430D02*
X173733340Y-87952860D01*
X173947630Y-87810000D02*
X173876200Y-87881430D01*
X173947630Y-89952860D02*
X174019060Y-90024290D01*
X174019060Y-86452860D02*
X174019060Y-85952860D01*
X174019060Y-87667140D02*
X173947630Y-87810000D01*
X174019060Y-89238570D02*
X174019060Y-88738570D01*
X174019060Y-90024290D02*
X174090490Y-90167140D01*
X174090490Y-87381430D02*
X174019060Y-87667140D01*
X174090490Y-90167140D02*
X174090490Y-90738570D01*
X174161910Y-87238570D02*
X174090490Y-87381430D01*
X174233340Y-87167140D02*
X174161910Y-87238570D01*
X174376200Y-87095710D02*
X174233340Y-87167140D01*
X174447630Y-77815720D02*
X174447630Y-77101430D01*
X174519060Y-87095710D02*
X174376200Y-87095710D01*
X174661910Y-87167140D02*
X174519060Y-87095710D01*
X174733340Y-87238570D02*
X174661910Y-87167140D01*
X174733340Y-87952860D02*
X174804770Y-87738570D01*
X174804770Y-84881430D02*
X173304770Y-84881430D01*
X174804770Y-85738570D02*
X174804770Y-86452860D01*
X174804770Y-86452860D02*
X173304770Y-86452860D01*
X174804770Y-87381430D02*
X174733340Y-87238570D01*
X174804770Y-87738570D02*
X174804770Y-87381430D01*
X174804770Y-88524290D02*
X174804770Y-89238570D01*
X174804770Y-89238570D02*
X173304770Y-89238570D01*
X174804770Y-89881430D02*
X174090490Y-90381430D01*
X174804770Y-90738570D02*
X173304770Y-90738570D01*
X174876200Y-74244290D02*
X174876200Y-75101430D01*
X174876200Y-74672860D02*
X173376200Y-74672860D01*
X174876200Y-75672860D02*
X174876200Y-76530000D01*
X174876200Y-76101430D02*
X173376200Y-76101430D01*
X174876200Y-77958570D02*
X173376200Y-77458570D01*
D11*
X175336200Y-78740000D02*
X175336200Y-83820000D01*
X175336200Y-83820000D02*
X106716200Y-83820000D01*
D10*
%TO.C,S1*%
X96440000Y-103180000D02*
X96440000Y-103180000D01*
D14*
X96640000Y-101480000D02*
X96640000Y-98480000D01*
D10*
X96640000Y-103180000D02*
X96640000Y-103180000D01*
D14*
X98740000Y-97380000D02*
X99740000Y-97380000D01*
X98740000Y-102580000D02*
X99740000Y-102580000D01*
X101840000Y-101480000D02*
X101840000Y-98480000D01*
D10*
X96440000Y-103180000D02*
G75*
G02*
X96640000Y-103180000I100000J0D01*
G01*
X96640000Y-103180000D02*
G75*
G02*
X96440000Y-103180000I-100000J0D01*
G01*
D15*
%TO.C,R1*%
X98265436Y-105810000D02*
X99719564Y-105810000D01*
X98265436Y-107630000D02*
X99719564Y-107630000D01*
D16*
%TO.C,kibuzzard-65E37D50*%
G36*
X139461578Y-98625305D02*
G01*
X138961575Y-98625305D01*
X138961575Y-98125302D01*
X139461578Y-98125302D01*
X139461578Y-98625305D01*
G37*
G36*
X156712595Y-99375615D02*
G01*
X156212592Y-99375615D01*
X156212592Y-98125302D01*
X156712595Y-98125302D01*
X156712595Y-99375615D01*
G37*
G36*
X167964187Y-99375615D02*
G01*
X167464184Y-99375615D01*
X167464184Y-98625305D01*
X167964187Y-98625305D01*
X167964187Y-99375615D01*
G37*
G36*
X171464818Y-99375615D02*
G01*
X170964815Y-99375615D01*
X170964815Y-98125302D01*
X171464818Y-98125302D01*
X171464818Y-99375615D01*
G37*
G36*
X173215134Y-98625305D02*
G01*
X172715131Y-98625305D01*
X172715131Y-98125302D01*
X173215134Y-98125302D01*
X173215134Y-98625305D01*
G37*
G36*
X179215779Y-99375615D02*
G01*
X178715776Y-99375615D01*
X178715776Y-97625299D01*
X179215779Y-97625299D01*
X179215779Y-99375615D01*
G37*
G36*
X181715794Y-99375615D02*
G01*
X181215791Y-99375615D01*
X181215791Y-97625299D01*
X181715794Y-97625299D01*
X181715794Y-99375615D01*
G37*
G36*
X183466110Y-99375615D02*
G01*
X182966107Y-99375615D01*
X182966107Y-97625299D01*
X183466110Y-97625299D01*
X183466110Y-99375615D01*
G37*
G36*
X137711263Y-99125308D02*
G01*
X137211260Y-99125308D01*
X137211260Y-98125302D01*
X137711263Y-98125302D01*
X137711263Y-99125308D01*
G37*
G36*
X166213872Y-99125308D02*
G01*
X165713869Y-99125308D01*
X165713869Y-98125302D01*
X166213872Y-98125302D01*
X166213872Y-99125308D01*
G37*
G36*
X185008040Y-100916934D02*
G01*
X183966112Y-100916934D01*
X182715800Y-100916934D01*
X180965484Y-100916934D01*
X179966089Y-100916934D01*
X178465470Y-100916934D01*
X177465464Y-100916934D01*
X176965461Y-100916934D01*
X174965449Y-100916934D01*
X173965443Y-100916934D01*
X172464824Y-100916934D01*
X171464818Y-100916934D01*
X168714497Y-100916934D01*
X167964187Y-100916934D01*
X165713869Y-100916934D01*
X163463550Y-100916934D01*
X161713235Y-100916934D01*
X159462916Y-100916934D01*
X157962908Y-100916934D01*
X155962285Y-100916934D01*
X154962890Y-100916934D01*
X153462271Y-100916934D01*
X150712560Y-100916934D01*
X149462858Y-100916934D01*
X149213162Y-100916934D01*
X147213150Y-100916934D01*
X146713147Y-100916934D01*
X145712531Y-100916934D01*
X144712525Y-100916934D01*
X143712519Y-100916934D01*
X142462206Y-100916934D01*
X140461584Y-100916934D01*
X138711268Y-100916934D01*
X137211260Y-100916934D01*
X135210637Y-100916934D01*
X132460927Y-100916934D01*
X130710611Y-100916934D01*
X123417121Y-100916934D01*
X122041960Y-100916934D01*
X123104543Y-97374993D01*
X130710611Y-97374993D01*
X130710611Y-97625299D01*
X131710617Y-97625299D01*
X131710617Y-98125302D01*
X131460310Y-98125302D01*
X131460310Y-98374999D01*
X131210614Y-98374999D01*
X131210614Y-98625305D01*
X130960307Y-98625305D01*
X130960307Y-98875612D01*
X130710611Y-98875612D01*
X130710611Y-99625311D01*
X132210620Y-99625311D01*
X132210620Y-99375615D01*
X131210614Y-99375615D01*
X131210614Y-98875612D01*
X131460310Y-98875612D01*
X131460310Y-98625305D01*
X131710617Y-98625305D01*
X131710617Y-98374999D01*
X131960924Y-98374999D01*
X131960924Y-98125302D01*
X132210620Y-98125302D01*
X132210620Y-97374993D01*
X132460927Y-97374993D01*
X132460927Y-98374999D01*
X132710623Y-98374999D01*
X132710623Y-98625305D01*
X132460927Y-98625305D01*
X132460927Y-99625311D01*
X132960930Y-99625311D01*
X132960930Y-98625305D01*
X133460932Y-98625305D01*
X133460932Y-99625311D01*
X133960935Y-99625311D01*
X133960935Y-99375615D01*
X134960941Y-99375615D01*
X135210637Y-99375615D01*
X135210637Y-99625311D01*
X136211254Y-99625311D01*
X136211254Y-99375615D01*
X136460950Y-99375615D01*
X136460950Y-98625305D01*
X136211254Y-98625305D01*
X136211254Y-98374999D01*
X135460944Y-98374999D01*
X135460944Y-97625299D01*
X135960947Y-97625299D01*
X135960947Y-97874996D01*
X136460950Y-97874996D01*
X136711257Y-97874996D01*
X136711257Y-99875007D01*
X137211260Y-99875007D01*
X137211260Y-99375615D01*
X137961569Y-99375615D01*
X138461572Y-99375615D01*
X138711268Y-99375615D01*
X138711268Y-99625311D01*
X139711885Y-99625311D01*
X139711885Y-99375615D01*
X139961581Y-99375615D01*
X140211888Y-99375615D01*
X140461584Y-99375615D01*
X140461584Y-99625311D01*
X141462200Y-99625311D01*
X141462200Y-99375615D01*
X141711897Y-99375615D01*
X141711897Y-98875612D01*
X141211894Y-98875612D01*
X141211894Y-99375615D01*
X140711891Y-99375615D01*
X140711891Y-98125302D01*
X141211894Y-98125302D01*
X141211894Y-98625305D01*
X141711897Y-98625305D01*
X141711897Y-98374999D01*
X141962203Y-98374999D01*
X142211900Y-98374999D01*
X142211900Y-99375615D01*
X142462206Y-99375615D01*
X142462206Y-99625311D01*
X143212516Y-99625311D01*
X143212516Y-99375615D01*
X142711902Y-99375615D01*
X142711902Y-98374999D01*
X143462212Y-98374999D01*
X143462212Y-98125302D01*
X142711902Y-98125302D01*
X142711902Y-97874996D01*
X143712519Y-97874996D01*
X143712519Y-99625311D01*
X144212522Y-99625311D01*
X144212522Y-98125302D01*
X144712525Y-98125302D01*
X144712525Y-98625305D01*
X145212528Y-98625305D01*
X145212528Y-98125302D01*
X144962831Y-98125302D01*
X144962831Y-97874996D01*
X145462834Y-97874996D01*
X145462834Y-99375615D01*
X145712531Y-99375615D01*
X145712531Y-99625311D01*
X146462840Y-99625311D01*
X146462840Y-99375615D01*
X146713147Y-99375615D01*
X146713147Y-99625311D01*
X146962843Y-99625311D01*
X147213150Y-99625311D01*
X147713153Y-99625311D01*
X147713153Y-98374999D01*
X147962849Y-98374999D01*
X147962849Y-99625311D01*
X148213156Y-99625311D01*
X148213156Y-98374999D01*
X148463462Y-98374999D01*
X148463462Y-99625311D01*
X148963465Y-99625311D01*
X149213162Y-99625311D01*
X149213162Y-99875007D01*
X149462858Y-99875007D01*
X149462858Y-99625311D01*
X149213162Y-99625311D01*
X148963465Y-99625311D01*
X148963465Y-98875612D01*
X149213162Y-98875612D01*
X149213162Y-99375615D01*
X149462858Y-99375615D01*
X149462858Y-99625311D01*
X149713164Y-99625311D01*
X150712560Y-99625311D01*
X152212569Y-99625311D01*
X152212569Y-99375615D01*
X153212574Y-99375615D01*
X153462271Y-99375615D01*
X153462271Y-99625311D01*
X154462887Y-99625311D01*
X154462887Y-99375615D01*
X154712583Y-99375615D01*
X154712583Y-98625305D01*
X154462887Y-98625305D01*
X154462887Y-98374999D01*
X153712577Y-98374999D01*
X153712577Y-97625299D01*
X154212580Y-97625299D01*
X154212580Y-97874996D01*
X154712583Y-97874996D01*
X154712583Y-97625299D01*
X154462887Y-97625299D01*
X154462887Y-97374993D01*
X154962890Y-97374993D01*
X154962890Y-99625311D01*
X155462893Y-99625311D01*
X155462893Y-99375615D01*
X155712589Y-99375615D01*
X155962285Y-99375615D01*
X155962285Y-99625311D01*
X156962902Y-99625311D01*
X156962902Y-99375615D01*
X157212598Y-99375615D01*
X157212598Y-98374999D01*
X157462905Y-98374999D01*
X157712601Y-98374999D01*
X157712601Y-99375615D01*
X157962908Y-99375615D01*
X157962908Y-99625311D01*
X158713217Y-99625311D01*
X158713217Y-99375615D01*
X159213220Y-99375615D01*
X159462916Y-99375615D01*
X159462916Y-99625311D01*
X160463533Y-99625311D01*
X160463533Y-99375615D01*
X160713229Y-99375615D01*
X160713229Y-98875612D01*
X160463533Y-98875612D01*
X160463533Y-98625305D01*
X159713223Y-98625305D01*
X159713223Y-98125302D01*
X160213226Y-98125302D01*
X160213226Y-98374999D01*
X160713229Y-98374999D01*
X160713229Y-98125302D01*
X160463533Y-98125302D01*
X160463533Y-97874996D01*
X159462916Y-97874996D01*
X159462916Y-98125302D01*
X159213220Y-98125302D01*
X159213220Y-98625305D01*
X159462916Y-98625305D01*
X159462916Y-98875612D01*
X160213226Y-98875612D01*
X160213226Y-99375615D01*
X159713223Y-99375615D01*
X159713223Y-99125308D01*
X159213220Y-99125308D01*
X159213220Y-99375615D01*
X158713217Y-99375615D01*
X158212604Y-99375615D01*
X158212604Y-98374999D01*
X158962913Y-98374999D01*
X158962913Y-98125302D01*
X158212604Y-98125302D01*
X158212604Y-97625299D01*
X157712601Y-97625299D01*
X157712601Y-98125302D01*
X157462905Y-98125302D01*
X157462905Y-98374999D01*
X157212598Y-98374999D01*
X157212598Y-98125302D01*
X156962902Y-98125302D01*
X156962902Y-97874996D01*
X155962285Y-97874996D01*
X155962285Y-98125302D01*
X155712589Y-98125302D01*
X155712589Y-99375615D01*
X155462893Y-99375615D01*
X155462893Y-97374993D01*
X161713235Y-97374993D01*
X161713235Y-99625311D01*
X163213244Y-99625311D01*
X163213244Y-99375615D01*
X162213238Y-99375615D01*
X162213238Y-98625305D01*
X162963547Y-98625305D01*
X162963547Y-98374999D01*
X162213238Y-98374999D01*
X162213238Y-97874996D01*
X163463550Y-97874996D01*
X163463550Y-98625305D01*
X163713247Y-98625305D01*
X163713247Y-98875612D01*
X163463550Y-98875612D01*
X163463550Y-99625311D01*
X163963553Y-99625311D01*
X163963553Y-98875612D01*
X164463556Y-98875612D01*
X164463556Y-99625311D01*
X164963559Y-99625311D01*
X164963559Y-98875612D01*
X164713863Y-98875612D01*
X164713863Y-98625305D01*
X164963559Y-98625305D01*
X164963559Y-97874996D01*
X165213866Y-97874996D01*
X165213866Y-99875007D01*
X165713869Y-99875007D01*
X165713869Y-99375615D01*
X166464178Y-99375615D01*
X166964181Y-99375615D01*
X167213878Y-99375615D01*
X167213878Y-99625311D01*
X167964187Y-99625311D01*
X167964187Y-99375615D01*
X168214494Y-99375615D01*
X168214494Y-99625311D01*
X168464190Y-99625311D01*
X168464190Y-98125302D01*
X168214494Y-98125302D01*
X168214494Y-97874996D01*
X168714497Y-97874996D01*
X168714497Y-99625311D01*
X169214500Y-99625311D01*
X169214500Y-98125302D01*
X169714503Y-98125302D01*
X169714503Y-99625311D01*
X170214506Y-99625311D01*
X170214506Y-99375615D01*
X170464812Y-99375615D01*
X170714509Y-99375615D01*
X170714509Y-99625311D01*
X171464818Y-99625311D01*
X171464818Y-99375615D01*
X171715125Y-99375615D01*
X171715125Y-99625311D01*
X171964821Y-99625311D01*
X171964821Y-99375615D01*
X172215128Y-99375615D01*
X172464824Y-99375615D01*
X172464824Y-99625311D01*
X173465440Y-99625311D01*
X173465440Y-99375615D01*
X173715137Y-99375615D01*
X173715137Y-99125308D01*
X173215134Y-99125308D01*
X173215134Y-99375615D01*
X172715131Y-99375615D01*
X172715131Y-98875612D01*
X173715137Y-98875612D01*
X173715137Y-98125302D01*
X173465440Y-98125302D01*
X173465440Y-97874996D01*
X173965443Y-97874996D01*
X173965443Y-99625311D01*
X174465446Y-99625311D01*
X174465446Y-98125302D01*
X174965449Y-98125302D01*
X174965449Y-98625305D01*
X175465452Y-98625305D01*
X175465452Y-98125302D01*
X175215756Y-98125302D01*
X175215756Y-97874996D01*
X176465458Y-97874996D01*
X176465458Y-99125308D01*
X176715154Y-99125308D01*
X176715154Y-99375615D01*
X176965461Y-99375615D01*
X176965461Y-99625311D01*
X177465464Y-99625311D01*
X177465464Y-99375615D01*
X177215157Y-99375615D01*
X177215157Y-99125308D01*
X176965461Y-99125308D01*
X176965461Y-97874996D01*
X177465464Y-97874996D01*
X177465464Y-99375615D01*
X177715771Y-99375615D01*
X178215774Y-99375615D01*
X178465470Y-99375615D01*
X178465470Y-99625311D01*
X179466086Y-99625311D01*
X179466086Y-99375615D01*
X179715782Y-99375615D01*
X179715782Y-99125308D01*
X179966089Y-99125308D01*
X179966089Y-99625311D01*
X180466092Y-99625311D01*
X180466092Y-99375615D01*
X180715788Y-99375615D01*
X180965484Y-99375615D01*
X180965484Y-99625311D01*
X181966101Y-99625311D01*
X181966101Y-99375615D01*
X182215797Y-99375615D01*
X182466104Y-99375615D01*
X182715800Y-99375615D01*
X182715800Y-99625311D01*
X183716416Y-99625311D01*
X183716416Y-99375615D01*
X183966112Y-99375615D01*
X183966112Y-97625299D01*
X183716416Y-97625299D01*
X183716416Y-97374993D01*
X182715800Y-97374993D01*
X182715800Y-97625299D01*
X182466104Y-97625299D01*
X182466104Y-99375615D01*
X182215797Y-99375615D01*
X182215797Y-97625299D01*
X181966101Y-97625299D01*
X181966101Y-97374993D01*
X180965484Y-97374993D01*
X180965484Y-97625299D01*
X180715788Y-97625299D01*
X180715788Y-99375615D01*
X180466092Y-99375615D01*
X180466092Y-99125308D01*
X179966089Y-99125308D01*
X179715782Y-99125308D01*
X179715782Y-97625299D01*
X179466086Y-97625299D01*
X179466086Y-97374993D01*
X178465470Y-97374993D01*
X178465470Y-97625299D01*
X178215774Y-97625299D01*
X178215774Y-99375615D01*
X177715771Y-99375615D01*
X177715771Y-99125308D01*
X177965467Y-99125308D01*
X177965467Y-97874996D01*
X177465464Y-97874996D01*
X176965461Y-97874996D01*
X176465458Y-97874996D01*
X175215756Y-97874996D01*
X174465446Y-97874996D01*
X174465446Y-98125302D01*
X174215140Y-98125302D01*
X174215140Y-97874996D01*
X173965443Y-97874996D01*
X173465440Y-97874996D01*
X172464824Y-97874996D01*
X172464824Y-98125302D01*
X172215128Y-98125302D01*
X172215128Y-99375615D01*
X171964821Y-99375615D01*
X171964821Y-97374993D01*
X171464818Y-97374993D01*
X171464818Y-97874996D01*
X170714509Y-97874996D01*
X170714509Y-98125302D01*
X170464812Y-98125302D01*
X170464812Y-99375615D01*
X170214506Y-99375615D01*
X170214506Y-98125302D01*
X169964809Y-98125302D01*
X169964809Y-97874996D01*
X168714497Y-97874996D01*
X168214494Y-97874996D01*
X167213878Y-97874996D01*
X167213878Y-98125302D01*
X167964187Y-98125302D01*
X167964187Y-98374999D01*
X167213878Y-98374999D01*
X167213878Y-98625305D01*
X166964181Y-98625305D01*
X166964181Y-99375615D01*
X166464178Y-99375615D01*
X166464178Y-99125308D01*
X166713875Y-99125308D01*
X166713875Y-98125302D01*
X166464178Y-98125302D01*
X166464178Y-97874996D01*
X165713869Y-97874996D01*
X165713869Y-98125302D01*
X165463562Y-98125302D01*
X165463562Y-97874996D01*
X165213866Y-97874996D01*
X164963559Y-97874996D01*
X164463556Y-97874996D01*
X164463556Y-98625305D01*
X163963553Y-98625305D01*
X163963553Y-97874996D01*
X163463550Y-97874996D01*
X162213238Y-97874996D01*
X162213238Y-97625299D01*
X163213244Y-97625299D01*
X163213244Y-97374993D01*
X161713235Y-97374993D01*
X155462893Y-97374993D01*
X154962890Y-97374993D01*
X154462887Y-97374993D01*
X153462271Y-97374993D01*
X153462271Y-97625299D01*
X153212574Y-97625299D01*
X153212574Y-98374999D01*
X153462271Y-98374999D01*
X153462271Y-98625305D01*
X154212580Y-98625305D01*
X154212580Y-99375615D01*
X153712577Y-99375615D01*
X153712577Y-99125308D01*
X153212574Y-99125308D01*
X153212574Y-99375615D01*
X152212569Y-99375615D01*
X152212569Y-99125308D01*
X151712566Y-99125308D01*
X151712566Y-99375615D01*
X151212563Y-99375615D01*
X151212563Y-98625305D01*
X151962872Y-98625305D01*
X151962872Y-98374999D01*
X152212569Y-98374999D01*
X152212569Y-97625299D01*
X151962872Y-97625299D01*
X151962872Y-97374993D01*
X150962256Y-97374993D01*
X150962256Y-97625299D01*
X150712560Y-97625299D01*
X150712560Y-98125302D01*
X151212563Y-98125302D01*
X151212563Y-97625299D01*
X151712566Y-97625299D01*
X151712566Y-98374999D01*
X150962256Y-98374999D01*
X150962256Y-98625305D01*
X150712560Y-98625305D01*
X150712560Y-99625311D01*
X149713164Y-99625311D01*
X149713164Y-98875612D01*
X149213162Y-98875612D01*
X148963465Y-98875612D01*
X148963465Y-98125302D01*
X148713159Y-98125302D01*
X148713159Y-97874996D01*
X148213156Y-97874996D01*
X148213156Y-98125302D01*
X147962849Y-98125302D01*
X147962849Y-97874996D01*
X147462846Y-97874996D01*
X147462846Y-98125302D01*
X147213150Y-98125302D01*
X147213150Y-99625311D01*
X146962843Y-99625311D01*
X146962843Y-97874996D01*
X146462840Y-97874996D01*
X146462840Y-99375615D01*
X145962837Y-99375615D01*
X145962837Y-97874996D01*
X145462834Y-97874996D01*
X144962831Y-97874996D01*
X144212522Y-97874996D01*
X144212522Y-98125302D01*
X143962215Y-98125302D01*
X143962215Y-97874996D01*
X143712519Y-97874996D01*
X142711902Y-97874996D01*
X142711902Y-97625299D01*
X142211900Y-97625299D01*
X142211900Y-98125302D01*
X141962203Y-98125302D01*
X141962203Y-98374999D01*
X141711897Y-98374999D01*
X141711897Y-98125302D01*
X141462200Y-98125302D01*
X141462200Y-97874996D01*
X140461584Y-97874996D01*
X140461584Y-98125302D01*
X140211888Y-98125302D01*
X140211888Y-99375615D01*
X139961581Y-99375615D01*
X139961581Y-99125308D01*
X139461578Y-99125308D01*
X139461578Y-99375615D01*
X138961575Y-99375615D01*
X138961575Y-98875612D01*
X139961581Y-98875612D01*
X139961581Y-98125302D01*
X139711885Y-98125302D01*
X139711885Y-97874996D01*
X138711268Y-97874996D01*
X138711268Y-98125302D01*
X138461572Y-98125302D01*
X138461572Y-99375615D01*
X137961569Y-99375615D01*
X137961569Y-99125308D01*
X138211266Y-99125308D01*
X138211266Y-98125302D01*
X137961569Y-98125302D01*
X137961569Y-97874996D01*
X137211260Y-97874996D01*
X137211260Y-98125302D01*
X136960953Y-98125302D01*
X136960953Y-97874996D01*
X136711257Y-97874996D01*
X136460950Y-97874996D01*
X136460950Y-97625299D01*
X136211254Y-97625299D01*
X136211254Y-97374993D01*
X135210637Y-97374993D01*
X135210637Y-97625299D01*
X134960941Y-97625299D01*
X134960941Y-98374999D01*
X135210637Y-98374999D01*
X135210637Y-98625305D01*
X135960947Y-98625305D01*
X135960947Y-99375615D01*
X135460944Y-99375615D01*
X135460944Y-99125308D01*
X134960941Y-99125308D01*
X134960941Y-99375615D01*
X133960935Y-99375615D01*
X133960935Y-98625305D01*
X133711239Y-98625305D01*
X133711239Y-98374999D01*
X133960935Y-98374999D01*
X133960935Y-97374993D01*
X133460932Y-97374993D01*
X133460932Y-98374999D01*
X132960930Y-98374999D01*
X132960930Y-97374993D01*
X132460927Y-97374993D01*
X132210620Y-97374993D01*
X130710611Y-97374993D01*
X123104543Y-97374993D01*
X123417121Y-96333066D01*
X130710611Y-96333066D01*
X183966112Y-96333066D01*
X185008040Y-96333066D01*
X185008040Y-100916934D01*
G37*
D11*
%TO.C,J2*%
X104216200Y-115570000D02*
X175336200Y-115570000D01*
X104216200Y-118110000D02*
X104216200Y-115570000D01*
X104216200Y-119310000D02*
X104216200Y-120640000D01*
D13*
X104724770Y-111574290D02*
X105796200Y-111931430D01*
X104724770Y-121497140D02*
X104724770Y-122211430D01*
X104724770Y-122211430D02*
X105439060Y-122282860D01*
X104724770Y-123282860D02*
X104939060Y-123425710D01*
X104724770Y-124640000D02*
X106224770Y-124140000D01*
X104796200Y-112931430D02*
X105010490Y-113074290D01*
X104796200Y-114288570D02*
X106296200Y-113788570D01*
X104939060Y-123425710D02*
X105081910Y-123568570D01*
X105010490Y-113074290D02*
X105153340Y-113217140D01*
X105081910Y-123568570D02*
X105153340Y-123711430D01*
X105153340Y-113217140D02*
X105224770Y-113360000D01*
X105296200Y-111217140D02*
X106296200Y-111217140D01*
X105296200Y-121711430D02*
X105367630Y-121568570D01*
X105296200Y-122068570D02*
X105296200Y-121711430D01*
X105367630Y-121568570D02*
X105439060Y-121497140D01*
X105367630Y-122211430D02*
X105296200Y-122068570D01*
X105439060Y-121497140D02*
X105581910Y-121425710D01*
X105439060Y-122282860D02*
X105367630Y-122211430D01*
X105581910Y-121425710D02*
X105939060Y-121425710D01*
D11*
X105681200Y-120640000D02*
X104216200Y-120640000D01*
D13*
X105796200Y-111931430D02*
X105796200Y-111002860D01*
X105796200Y-124997140D02*
X105796200Y-124282860D01*
X105867630Y-114645720D02*
X105867630Y-113931430D01*
X105939060Y-121425710D02*
X106081910Y-121497140D01*
X106081910Y-121497140D02*
X106153340Y-121568570D01*
X106153340Y-121568570D02*
X106224770Y-121711430D01*
X106153340Y-122211430D02*
X106081910Y-122282860D01*
X106224770Y-121711430D02*
X106224770Y-122068570D01*
X106224770Y-122068570D02*
X106153340Y-122211430D01*
X106224770Y-122854290D02*
X106224770Y-123711430D01*
X106224770Y-123282860D02*
X104724770Y-123282860D01*
X106224770Y-125140000D02*
X104724770Y-124640000D01*
X106296200Y-112502860D02*
X106296200Y-113360000D01*
X106296200Y-112931430D02*
X104796200Y-112931430D01*
X106296200Y-114788570D02*
X104796200Y-114288570D01*
D11*
X106716200Y-118110000D02*
X104216200Y-118110000D01*
X106716200Y-120640000D02*
X106716200Y-118110000D01*
D13*
X107264770Y-121425710D02*
X107836200Y-121925710D01*
X107264770Y-122354290D02*
X107264770Y-121425710D01*
X107264770Y-123282860D02*
X107479060Y-123425710D01*
X107264770Y-124640000D02*
X108764770Y-124140000D01*
X107336200Y-111360000D02*
X107407630Y-111217140D01*
X107336200Y-111717140D02*
X107336200Y-111360000D01*
X107336200Y-112931430D02*
X107550490Y-113074290D01*
X107336200Y-114288570D02*
X108836200Y-113788570D01*
X107407630Y-111217140D02*
X107479060Y-111145720D01*
X107407630Y-111860000D02*
X107336200Y-111717140D01*
X107479060Y-111145720D02*
X107621920Y-111074290D01*
X107479060Y-111931430D02*
X107407630Y-111860000D01*
X107479060Y-123425710D02*
X107621910Y-123568570D01*
X107550490Y-113074290D02*
X107693340Y-113217140D01*
X107621910Y-123568570D02*
X107693340Y-123711430D01*
X107621920Y-111074290D02*
X107764770Y-111074290D01*
X107693340Y-113217140D02*
X107764770Y-113360000D01*
X107764770Y-111074290D02*
X107979060Y-111145720D01*
X107836200Y-121711430D02*
X107907630Y-121568570D01*
X107836200Y-121925710D02*
X107836200Y-121711430D01*
X107907630Y-121568570D02*
X107979060Y-121497140D01*
X107979060Y-111145720D02*
X108836200Y-112002860D01*
X107979060Y-121497140D02*
X108121910Y-121425710D01*
X108121910Y-121425710D02*
X108479060Y-121425710D01*
X108336200Y-124997140D02*
X108336200Y-124282860D01*
X108407630Y-114645720D02*
X108407630Y-113931430D01*
X108479060Y-121425710D02*
X108621910Y-121497140D01*
X108621910Y-121497140D02*
X108693340Y-121568570D01*
X108693340Y-121568570D02*
X108764770Y-121711430D01*
X108693340Y-122282860D02*
X108621910Y-122354290D01*
X108764770Y-121711430D02*
X108764770Y-122140000D01*
X108764770Y-122140000D02*
X108693340Y-122282860D01*
X108764770Y-122854290D02*
X108764770Y-123711430D01*
X108764770Y-123282860D02*
X107264770Y-123282860D01*
X108764770Y-125140000D02*
X107264770Y-124640000D01*
X108836200Y-112002860D02*
X108836200Y-111074290D01*
X108836200Y-112502860D02*
X108836200Y-113360000D01*
X108836200Y-112931430D02*
X107336200Y-112931430D01*
X108836200Y-114788570D02*
X107336200Y-114288570D01*
X109804770Y-121354290D02*
X111304770Y-121997140D01*
X109804770Y-122354290D02*
X109804770Y-121354290D01*
X109804770Y-123354290D02*
X109876200Y-123140000D01*
X109804770Y-123711430D02*
X109804770Y-123354290D01*
X109876200Y-111502860D02*
X111376200Y-111002860D01*
X109876200Y-112002860D02*
X109876200Y-112717140D01*
X109876200Y-112717140D02*
X110590490Y-112788570D01*
X109876200Y-123140000D02*
X110019060Y-122997140D01*
X110019060Y-122997140D02*
X110161910Y-122925710D01*
X110161910Y-122925710D02*
X110447630Y-122854290D01*
X110447630Y-112217140D02*
X110519060Y-112074290D01*
X110447630Y-112574290D02*
X110447630Y-112217140D01*
X110447630Y-122854290D02*
X110661910Y-122854290D01*
X110519060Y-112074290D02*
X110590490Y-112002860D01*
X110519060Y-112717140D02*
X110447630Y-112574290D01*
X110590490Y-112002860D02*
X110733340Y-111931430D01*
X110590490Y-112788570D02*
X110519060Y-112717140D01*
X110661910Y-122854290D02*
X110947630Y-122925710D01*
X110733340Y-111931430D02*
X111090490Y-111931430D01*
X110804770Y-114574290D02*
X110804770Y-113431430D01*
X110947630Y-122925710D02*
X111090490Y-122997140D01*
X111090490Y-111931430D02*
X111233340Y-112002860D01*
X111090490Y-122997140D02*
X111233340Y-123140000D01*
X111233340Y-112002860D02*
X111304770Y-112074290D01*
X111233340Y-123140000D02*
X111304770Y-123354290D01*
X111304770Y-112074290D02*
X111376200Y-112217140D01*
X111304770Y-112717140D02*
X111233340Y-112788570D01*
X111304770Y-123354290D02*
X111304770Y-123711430D01*
X111304770Y-123711430D02*
X109804770Y-123711430D01*
X111376200Y-111002860D02*
X109876200Y-110502860D01*
X111376200Y-112217140D02*
X111376200Y-112574290D01*
X111376200Y-112574290D02*
X111304770Y-112717140D01*
X111376200Y-114002860D02*
X110233340Y-114002860D01*
X111696200Y-122568570D02*
X111696200Y-121140000D01*
X111696200Y-124282860D02*
X111696200Y-122568570D01*
X111696200Y-125854290D02*
X111696200Y-124282860D01*
X111696200Y-127354290D02*
X111696200Y-125854290D01*
X111696200Y-128497140D02*
X111696200Y-127354290D01*
X111696200Y-129854290D02*
X111696200Y-128497140D01*
X111696200Y-131425710D02*
X111696200Y-129854290D01*
X112344770Y-121854290D02*
X112559060Y-121997140D01*
X112344770Y-122925710D02*
X113844770Y-122925710D01*
X112344770Y-123925710D02*
X113416200Y-123425710D01*
X112344770Y-124925710D02*
X112416200Y-124782860D01*
X112344770Y-125211430D02*
X112344770Y-124925710D01*
X112344770Y-126425710D02*
X112416200Y-126282860D01*
X112344770Y-126997140D02*
X112344770Y-126425710D01*
X112344770Y-129497140D02*
X112344770Y-128782860D01*
X112344770Y-130497140D02*
X112416200Y-130354290D01*
X112344770Y-130782860D02*
X112344770Y-130497140D01*
X112416200Y-111502860D02*
X113916200Y-111002860D01*
X112416200Y-112217140D02*
X112416200Y-112502860D01*
X112416200Y-112502860D02*
X112487630Y-112645720D01*
X112416200Y-124782860D02*
X112559060Y-124640000D01*
X112416200Y-125354290D02*
X112344770Y-125211430D01*
X112416200Y-126282860D02*
X112487630Y-126211430D01*
X112416200Y-130354290D02*
X112559060Y-130211430D01*
X112416200Y-130925710D02*
X112344770Y-130782860D01*
X112487630Y-112074290D02*
X112416200Y-112217140D01*
X112487630Y-112645720D02*
X112559060Y-112717140D01*
X112487630Y-126211430D02*
X112630490Y-126140000D01*
X112559060Y-112002860D02*
X112487630Y-112074290D01*
X112559060Y-112717140D02*
X112701920Y-112788570D01*
X112559060Y-121997140D02*
X112701910Y-122140000D01*
X112559060Y-124640000D02*
X112844770Y-124568570D01*
X112559060Y-125497140D02*
X112416200Y-125354290D01*
X112559060Y-130211430D02*
X112844770Y-130140000D01*
X112559060Y-131068570D02*
X112416200Y-130925710D01*
X112630490Y-126140000D02*
X112844770Y-126140000D01*
X112701910Y-122140000D02*
X112773340Y-122282860D01*
X112701920Y-111931430D02*
X112559060Y-112002860D01*
X112701920Y-112788570D02*
X113059060Y-112788570D01*
X112844770Y-124568570D02*
X113344770Y-124568570D01*
X112844770Y-125568570D02*
X112559060Y-125497140D01*
X112844770Y-126140000D02*
X112987630Y-126211430D01*
X112844770Y-130140000D02*
X113344770Y-130140000D01*
X112844770Y-131140000D02*
X112559060Y-131068570D01*
X112987630Y-126211430D02*
X113059060Y-126282860D01*
X113059060Y-112788570D02*
X113201920Y-112717140D01*
X113059060Y-126282860D02*
X113130490Y-126425710D01*
X113059060Y-129497140D02*
X113059060Y-128997140D01*
X113130490Y-126425710D02*
X113130490Y-126997140D01*
X113201920Y-112002860D02*
X113059060Y-111931430D01*
X113201920Y-112717140D02*
X113273340Y-112645720D01*
X113273340Y-111931430D02*
X112701920Y-111931430D01*
X113273340Y-112074290D02*
X113201920Y-112002860D01*
X113273340Y-112645720D02*
X113344770Y-112502860D01*
X113344770Y-112217140D02*
X113273340Y-112074290D01*
X113344770Y-112502860D02*
X113344770Y-112217140D01*
X113344770Y-114574290D02*
X113344770Y-113431430D01*
X113344770Y-124568570D02*
X113630490Y-124640000D01*
X113344770Y-125568570D02*
X112844770Y-125568570D01*
X113344770Y-130140000D02*
X113630490Y-130211430D01*
X113344770Y-131140000D02*
X112844770Y-131140000D01*
X113416200Y-123425710D02*
X112344770Y-122925710D01*
X113559060Y-112002860D02*
X113273340Y-111931430D01*
X113630490Y-124640000D02*
X113773340Y-124782860D01*
X113630490Y-125497140D02*
X113344770Y-125568570D01*
X113630490Y-130211430D02*
X113773340Y-130354290D01*
X113630490Y-131068570D02*
X113344770Y-131140000D01*
X113773340Y-112145720D02*
X113559060Y-112002860D01*
X113773340Y-124782860D02*
X113844770Y-124925710D01*
X113773340Y-125354290D02*
X113630490Y-125497140D01*
X113773340Y-130354290D02*
X113844770Y-130497140D01*
X113773340Y-130925710D02*
X113630490Y-131068570D01*
X113844770Y-112217140D02*
X113773340Y-112145720D01*
X113844770Y-121425710D02*
X113844770Y-122282860D01*
X113844770Y-121854290D02*
X112344770Y-121854290D01*
X113844770Y-123925710D02*
X112344770Y-123925710D01*
X113844770Y-124925710D02*
X113844770Y-125211430D01*
X113844770Y-125211430D02*
X113773340Y-125354290D01*
X113844770Y-126140000D02*
X113130490Y-126640000D01*
X113844770Y-126997140D02*
X112344770Y-126997140D01*
X113844770Y-128782860D02*
X113844770Y-129497140D01*
X113844770Y-129497140D02*
X112344770Y-129497140D01*
X113844770Y-130497140D02*
X113844770Y-130782860D01*
X113844770Y-130782860D02*
X113773340Y-130925710D01*
X113916200Y-111002860D02*
X112416200Y-110502860D01*
X113916200Y-112360000D02*
X113844770Y-112217140D01*
X113916200Y-112645720D02*
X113916200Y-112360000D01*
X113916200Y-114002860D02*
X112773340Y-114002860D01*
X113987630Y-128497140D02*
X113987630Y-127354290D01*
D11*
X114817200Y-121645000D02*
X114817200Y-131455000D01*
X114888630Y-104606430D02*
X114888630Y-114416430D01*
D13*
X115741910Y-121972430D02*
X115813340Y-122043860D01*
X115741910Y-121972430D02*
X115884770Y-121972430D01*
X115741910Y-123115290D02*
X115813340Y-123186710D01*
X115741910Y-123115290D02*
X115884770Y-123115290D01*
X115741910Y-124258140D02*
X115813340Y-124329570D01*
X115741910Y-124258140D02*
X115884770Y-124258140D01*
X115741910Y-125401000D02*
X115813340Y-125472430D01*
X115741910Y-125401000D02*
X115884770Y-125401000D01*
X115741910Y-126543860D02*
X115813340Y-126615290D01*
X115741910Y-126543860D02*
X115884770Y-126543860D01*
X115741910Y-127686710D02*
X115813340Y-127758140D01*
X115741910Y-127686710D02*
X115884770Y-127686710D01*
X115741910Y-128829570D02*
X115813340Y-128901000D01*
X115741910Y-128829570D02*
X115884770Y-128829570D01*
X115741910Y-129972430D02*
X115813340Y-130043860D01*
X115741910Y-129972430D02*
X115884770Y-129972430D01*
X115741910Y-131115290D02*
X115813340Y-131186710D01*
X115741910Y-131115290D02*
X115884770Y-131115290D01*
X115813340Y-104955140D02*
X115884770Y-105026570D01*
X115813340Y-104955140D02*
X115956200Y-104955140D01*
X115813340Y-106098000D02*
X115884770Y-106169430D01*
X115813340Y-106098000D02*
X115956200Y-106098000D01*
X115813340Y-107240860D02*
X115884770Y-107312290D01*
X115813340Y-107240860D02*
X115956200Y-107240860D01*
X115813340Y-108383720D02*
X115884770Y-108455140D01*
X115813340Y-108383720D02*
X115956200Y-108383720D01*
X115813340Y-109526570D02*
X115884770Y-109598000D01*
X115813340Y-109526570D02*
X115956200Y-109526570D01*
X115813340Y-110669430D02*
X115884770Y-110740860D01*
X115813340Y-110669430D02*
X115956200Y-110669430D01*
X115813340Y-111812290D02*
X115884770Y-111883720D01*
X115813340Y-111812290D02*
X115956200Y-111812290D01*
X115813340Y-112955140D02*
X115884770Y-113026570D01*
X115813340Y-112955140D02*
X115956200Y-112955140D01*
X115813340Y-114098000D02*
X115884770Y-114169430D01*
X115813340Y-114098000D02*
X115956200Y-114098000D01*
X115813340Y-121901000D02*
X115741910Y-121972430D01*
X115813340Y-122043860D02*
X115884770Y-121972430D01*
X115813340Y-123043860D02*
X115741910Y-123115290D01*
X115813340Y-123186710D02*
X115884770Y-123115290D01*
X115813340Y-124186710D02*
X115741910Y-124258140D01*
X115813340Y-124329570D02*
X115884770Y-124258140D01*
X115813340Y-125329570D02*
X115741910Y-125401000D01*
X115813340Y-125472430D02*
X115884770Y-125401000D01*
X115813340Y-126472430D02*
X115741910Y-126543860D01*
X115813340Y-126615290D02*
X115884770Y-126543860D01*
X115813340Y-127615290D02*
X115741910Y-127686710D01*
X115813340Y-127758140D02*
X115884770Y-127686710D01*
X115813340Y-128758140D02*
X115741910Y-128829570D01*
X115813340Y-128901000D02*
X115884770Y-128829570D01*
X115813340Y-129901000D02*
X115741910Y-129972430D01*
X115813340Y-130043860D02*
X115884770Y-129972430D01*
X115813340Y-131043860D02*
X115741910Y-131115290D01*
X115813340Y-131186710D02*
X115884770Y-131115290D01*
X115884770Y-104883720D02*
X115813340Y-104955140D01*
X115884770Y-105026570D02*
X115956200Y-104955140D01*
X115884770Y-106026570D02*
X115813340Y-106098000D01*
X115884770Y-106169430D02*
X115956200Y-106098000D01*
X115884770Y-107169430D02*
X115813340Y-107240860D01*
X115884770Y-107312290D02*
X115956200Y-107240860D01*
X115884770Y-108312290D02*
X115813340Y-108383720D01*
X115884770Y-108455140D02*
X115956200Y-108383720D01*
X115884770Y-109455140D02*
X115813340Y-109526570D01*
X115884770Y-109598000D02*
X115956200Y-109526570D01*
X115884770Y-110598000D02*
X115813340Y-110669430D01*
X115884770Y-110740860D02*
X115956200Y-110669430D01*
X115884770Y-111740860D02*
X115813340Y-111812290D01*
X115884770Y-111883720D02*
X115956200Y-111812290D01*
X115884770Y-112883720D02*
X115813340Y-112955140D01*
X115884770Y-113026570D02*
X115956200Y-112955140D01*
X115884770Y-114026570D02*
X115813340Y-114098000D01*
X115884770Y-114169430D02*
X115956200Y-114098000D01*
X115884770Y-121972430D02*
X115813340Y-121901000D01*
X115884770Y-123115290D02*
X115813340Y-123043860D01*
X115884770Y-124258140D02*
X115813340Y-124186710D01*
X115884770Y-125401000D02*
X115813340Y-125329570D01*
X115884770Y-126543860D02*
X115813340Y-126472430D01*
X115884770Y-127686710D02*
X115813340Y-127615290D01*
X115884770Y-128829570D02*
X115813340Y-128758140D01*
X115884770Y-129972430D02*
X115813340Y-129901000D01*
X115884770Y-131115290D02*
X115813340Y-131043860D01*
X115956200Y-104955140D02*
X115884770Y-104883720D01*
X115956200Y-106098000D02*
X115884770Y-106026570D01*
X115956200Y-107240860D02*
X115884770Y-107169430D01*
X115956200Y-108383720D02*
X115884770Y-108312290D01*
X115956200Y-109526570D02*
X115884770Y-109455140D01*
X115956200Y-110669430D02*
X115884770Y-110598000D01*
X115956200Y-111812290D02*
X115884770Y-111740860D01*
X115956200Y-112955140D02*
X115884770Y-112883720D01*
X115956200Y-114098000D02*
X115884770Y-114026570D01*
D11*
X116595200Y-121645000D02*
X116595200Y-131455000D01*
X116666630Y-104606430D02*
X116666630Y-114416430D01*
D13*
X117424770Y-121782860D02*
X117496200Y-121640000D01*
X117424770Y-121925710D02*
X117424770Y-121782860D01*
X117424770Y-123354290D02*
X117496200Y-123140000D01*
X117424770Y-123711430D02*
X117424770Y-123354290D01*
X117496200Y-111145720D02*
X117567630Y-110931430D01*
X117496200Y-111502860D02*
X117496200Y-111145720D01*
X117496200Y-113074290D02*
X118996200Y-112217140D01*
X117496200Y-113931430D02*
X117496200Y-114145720D01*
X117496200Y-114145720D02*
X117567630Y-114360000D01*
X117496200Y-121640000D02*
X117567630Y-121568570D01*
X117496200Y-122068570D02*
X117424770Y-121925710D01*
X117496200Y-123140000D02*
X117639060Y-122997140D01*
X117567630Y-110931430D02*
X117710490Y-110788570D01*
X117567630Y-113788570D02*
X117496200Y-113931430D01*
X117567630Y-114360000D02*
X117710490Y-114502860D01*
X117567630Y-121568570D02*
X117710490Y-121497140D01*
X117567630Y-122140000D02*
X117496200Y-122068570D01*
X117639060Y-122997140D02*
X117781910Y-122925710D01*
X117710490Y-110788570D02*
X117853340Y-110717140D01*
X117710490Y-114502860D02*
X117853340Y-114574290D01*
X117710490Y-121497140D02*
X117996200Y-121425710D01*
X117710490Y-122211430D02*
X117567630Y-122140000D01*
X117781910Y-122925710D02*
X118067630Y-122854290D01*
X117853340Y-110717140D02*
X118139060Y-110645720D01*
X117853340Y-114574290D02*
X118139060Y-114645720D01*
X117996200Y-121425710D02*
X118353340Y-121425710D01*
X117996200Y-122282860D02*
X117710490Y-122211430D01*
X118067630Y-122854290D02*
X118281910Y-122854290D01*
X118139060Y-110645720D02*
X118353340Y-110645720D01*
X118139060Y-114645720D02*
X118353340Y-114645720D01*
X118281910Y-122854290D02*
X118567630Y-122925710D01*
X118353340Y-110645720D02*
X118639060Y-110717140D01*
X118353340Y-113717140D02*
X118353340Y-114002860D01*
X118353340Y-114645720D02*
X118639060Y-114574290D01*
X118353340Y-121425710D02*
X118639060Y-121497140D01*
X118353340Y-122282860D02*
X117996200Y-122282860D01*
X118567630Y-122925710D02*
X118710490Y-122997140D01*
X118639060Y-110717140D02*
X118781920Y-110788570D01*
X118639060Y-114574290D02*
X118781920Y-114502860D01*
X118639060Y-121497140D02*
X118781910Y-121568570D01*
X118639060Y-122211430D02*
X118353340Y-122282860D01*
X118710490Y-122997140D02*
X118853340Y-123140000D01*
X118781910Y-121568570D02*
X118853340Y-121640000D01*
X118781910Y-122140000D02*
X118639060Y-122211430D01*
X118781920Y-110788570D02*
X118924770Y-110931430D01*
X118781920Y-114502860D02*
X118924770Y-114360000D01*
X118853340Y-113717140D02*
X118353340Y-113717140D01*
X118853340Y-121640000D02*
X118924770Y-121782860D01*
X118853340Y-122068570D02*
X118781910Y-122140000D01*
X118853340Y-123140000D02*
X118924770Y-123354290D01*
X118924770Y-110931430D02*
X118996200Y-111145720D01*
X118924770Y-113788570D02*
X118853340Y-113717140D01*
X118924770Y-114360000D02*
X118996200Y-114145720D01*
X118924770Y-121782860D02*
X118924770Y-121925710D01*
X118924770Y-121925710D02*
X118853340Y-122068570D01*
X118924770Y-123354290D02*
X118924770Y-123711430D01*
X118924770Y-123711430D02*
X117424770Y-123711430D01*
X118996200Y-111145720D02*
X118996200Y-111502860D01*
X118996200Y-111502860D02*
X117496200Y-111502860D01*
X118996200Y-112217140D02*
X117496200Y-112217140D01*
X118996200Y-113074290D02*
X117496200Y-113074290D01*
X118996200Y-114002860D02*
X118924770Y-113788570D01*
X118996200Y-114145720D02*
X118996200Y-114002860D01*
X119964770Y-121854290D02*
X120179060Y-121997140D01*
X119964770Y-123354290D02*
X120036200Y-123140000D01*
X119964770Y-123711430D02*
X119964770Y-123354290D01*
X120036200Y-111145720D02*
X120107630Y-110931430D01*
X120036200Y-111502860D02*
X120036200Y-111145720D01*
X120036200Y-113074290D02*
X121536200Y-112217140D01*
X120036200Y-113931430D02*
X120036200Y-114145720D01*
X120036200Y-114145720D02*
X120107630Y-114360000D01*
X120036200Y-123140000D02*
X120179060Y-122997140D01*
X120107630Y-110931430D02*
X120250490Y-110788570D01*
X120107630Y-113788570D02*
X120036200Y-113931430D01*
X120107630Y-114360000D02*
X120250490Y-114502860D01*
X120179060Y-121997140D02*
X120321910Y-122140000D01*
X120179060Y-122997140D02*
X120321910Y-122925710D01*
X120250490Y-110788570D02*
X120393340Y-110717140D01*
X120250490Y-114502860D02*
X120393340Y-114574290D01*
X120321910Y-122140000D02*
X120393340Y-122282860D01*
X120321910Y-122925710D02*
X120607630Y-122854290D01*
X120393340Y-110717140D02*
X120679060Y-110645720D01*
X120393340Y-114574290D02*
X120679060Y-114645720D01*
X120607630Y-122854290D02*
X120821910Y-122854290D01*
X120679060Y-110645720D02*
X120893340Y-110645720D01*
X120679060Y-114645720D02*
X120893340Y-114645720D01*
X120821910Y-122854290D02*
X121107630Y-122925710D01*
X120893340Y-110645720D02*
X121179060Y-110717140D01*
X120893340Y-113717140D02*
X120893340Y-114002860D01*
X120893340Y-114645720D02*
X121179060Y-114574290D01*
X121107630Y-122925710D02*
X121250490Y-122997140D01*
X121179060Y-110717140D02*
X121321920Y-110788570D01*
X121179060Y-114574290D02*
X121321920Y-114502860D01*
X121250490Y-122997140D02*
X121393340Y-123140000D01*
X121321920Y-110788570D02*
X121464770Y-110931430D01*
X121321920Y-114502860D02*
X121464770Y-114360000D01*
X121393340Y-113717140D02*
X120893340Y-113717140D01*
X121393340Y-123140000D02*
X121464770Y-123354290D01*
X121464770Y-110931430D02*
X121536200Y-111145720D01*
X121464770Y-113788570D02*
X121393340Y-113717140D01*
X121464770Y-114360000D02*
X121536200Y-114145720D01*
X121464770Y-121425710D02*
X121464770Y-122282860D01*
X121464770Y-121854290D02*
X119964770Y-121854290D01*
X121464770Y-123354290D02*
X121464770Y-123711430D01*
X121464770Y-123711430D02*
X119964770Y-123711430D01*
X121536200Y-111145720D02*
X121536200Y-111502860D01*
X121536200Y-111502860D02*
X120036200Y-111502860D01*
X121536200Y-112217140D02*
X120036200Y-112217140D01*
X121536200Y-113074290D02*
X120036200Y-113074290D01*
X121536200Y-114002860D02*
X121464770Y-113788570D01*
X121536200Y-114145720D02*
X121536200Y-114002860D01*
X121927630Y-112217140D02*
X121927630Y-110717140D01*
X121927630Y-113431430D02*
X121927630Y-112217140D01*
X121927630Y-114931430D02*
X121927630Y-113431430D01*
X122504770Y-121711430D02*
X122576200Y-121568570D01*
X122504770Y-122068570D02*
X122504770Y-121711430D01*
X122504770Y-123354290D02*
X122576200Y-123140000D01*
X122504770Y-123711430D02*
X122504770Y-123354290D01*
X122576200Y-111002860D02*
X123433340Y-111860000D01*
X122576200Y-114002860D02*
X122647630Y-113788570D01*
X122576200Y-114145720D02*
X122576200Y-114002860D01*
X122576200Y-121568570D02*
X122647630Y-121497140D01*
X122576200Y-122211430D02*
X122504770Y-122068570D01*
X122576200Y-123140000D02*
X122719060Y-122997140D01*
X122647630Y-113788570D02*
X122719060Y-113717140D01*
X122647630Y-114360000D02*
X122576200Y-114145720D01*
X122647630Y-121497140D02*
X122790490Y-121425710D01*
X122647630Y-122282860D02*
X122576200Y-122211430D01*
X122719060Y-122997140D02*
X122861910Y-122925710D01*
X122790490Y-114502860D02*
X122647630Y-114360000D01*
X122790490Y-121425710D02*
X122933340Y-121425710D01*
X122861910Y-122925710D02*
X123147630Y-122854290D01*
X122933340Y-114574290D02*
X122790490Y-114502860D01*
X122933340Y-121425710D02*
X123147630Y-121497140D01*
X123147630Y-121497140D02*
X124004770Y-122354290D01*
X123147630Y-122854290D02*
X123361910Y-122854290D01*
X123219060Y-114645720D02*
X122933340Y-114574290D01*
X123361910Y-122854290D02*
X123647630Y-122925710D01*
X123433340Y-114645720D02*
X123219060Y-114645720D01*
X123647630Y-122925710D02*
X123790490Y-122997140D01*
X123719060Y-114574290D02*
X123433340Y-114645720D01*
X123790490Y-122997140D02*
X123933340Y-123140000D01*
X123861920Y-114502860D02*
X123719060Y-114574290D01*
X123933340Y-113717140D02*
X124004770Y-113788570D01*
X123933340Y-123140000D02*
X124004770Y-123354290D01*
X124004770Y-113788570D02*
X124076200Y-114002860D01*
X124004770Y-114360000D02*
X123861920Y-114502860D01*
X124004770Y-122354290D02*
X124004770Y-121425710D01*
X124004770Y-123354290D02*
X124004770Y-123711430D01*
X124004770Y-123711430D02*
X122504770Y-123711430D01*
X124076200Y-111002860D02*
X123219060Y-111645720D01*
X124076200Y-111860000D02*
X122576200Y-111860000D01*
X124076200Y-112360000D02*
X124076200Y-113074290D01*
X124076200Y-113074290D02*
X122576200Y-113074290D01*
X124076200Y-114002860D02*
X124076200Y-114145720D01*
X124076200Y-114145720D02*
X124004770Y-114360000D01*
X125044770Y-121568570D02*
X125044770Y-121854290D01*
X125044770Y-121854290D02*
X125116200Y-121997140D01*
X125044770Y-123354290D02*
X125116200Y-123140000D01*
X125044770Y-123711430D02*
X125044770Y-123354290D01*
X125116200Y-112860000D02*
X125187630Y-112717140D01*
X125116200Y-113002860D02*
X125116200Y-112860000D01*
X125116200Y-114288570D02*
X126616200Y-113788570D01*
X125116200Y-121997140D02*
X125187630Y-122068570D01*
X125116200Y-123140000D02*
X125259060Y-122997140D01*
X125187630Y-112717140D02*
X125259060Y-112645720D01*
X125187630Y-113145720D02*
X125116200Y-113002860D01*
X125187630Y-122068570D02*
X125401910Y-122211430D01*
X125259060Y-112645720D02*
X125401920Y-112574290D01*
X125259060Y-113217140D02*
X125187630Y-113145720D01*
X125259060Y-122997140D02*
X125401910Y-122925710D01*
X125401910Y-122211430D02*
X125687630Y-122282860D01*
X125401910Y-122925710D02*
X125687630Y-122854290D01*
X125401920Y-112574290D02*
X125687630Y-112502860D01*
X125401920Y-113288570D02*
X125259060Y-113217140D01*
X125616200Y-121711430D02*
X125616200Y-121997140D01*
X125616200Y-121997140D02*
X125687630Y-122140000D01*
X125687630Y-112502860D02*
X126044770Y-112502860D01*
X125687630Y-113360000D02*
X125401920Y-113288570D01*
X125687630Y-121568570D02*
X125616200Y-121711430D01*
X125687630Y-122140000D02*
X125759060Y-122211430D01*
X125687630Y-122282860D02*
X126259060Y-122282860D01*
X125687630Y-122854290D02*
X125901910Y-122854290D01*
X125759060Y-121497140D02*
X125687630Y-121568570D01*
X125759060Y-122211430D02*
X125901910Y-122282860D01*
X125901910Y-121425710D02*
X125759060Y-121497140D01*
X125901910Y-122854290D02*
X126187630Y-122925710D01*
X126044770Y-112502860D02*
X126330490Y-112574290D01*
X126044770Y-113360000D02*
X125687630Y-113360000D01*
X126187630Y-114645720D02*
X126187630Y-113931430D01*
X126187630Y-122925710D02*
X126330490Y-122997140D01*
X126259060Y-121425710D02*
X125901910Y-121425710D01*
X126259060Y-122282860D02*
X126401910Y-122211430D01*
X126330490Y-112574290D02*
X126473340Y-112645720D01*
X126330490Y-113288570D02*
X126044770Y-113360000D01*
X126330490Y-122997140D02*
X126473340Y-123140000D01*
X126401910Y-121497140D02*
X126259060Y-121425710D01*
X126401910Y-122211430D02*
X126473340Y-122140000D01*
X126473340Y-112645720D02*
X126544770Y-112717140D01*
X126473340Y-113217140D02*
X126330490Y-113288570D01*
X126473340Y-121568570D02*
X126401910Y-121497140D01*
X126473340Y-122140000D02*
X126544770Y-121997140D01*
X126473340Y-123140000D02*
X126544770Y-123354290D01*
X126544770Y-112717140D02*
X126616200Y-112860000D01*
X126544770Y-113145720D02*
X126473340Y-113217140D01*
X126544770Y-121711430D02*
X126473340Y-121568570D01*
X126544770Y-121997140D02*
X126544770Y-121711430D01*
X126544770Y-123354290D02*
X126544770Y-123711430D01*
X126544770Y-123711430D02*
X125044770Y-123711430D01*
X126616200Y-112860000D02*
X126616200Y-113002860D01*
X126616200Y-113002860D02*
X126544770Y-113145720D01*
X126616200Y-114788570D02*
X125116200Y-114288570D01*
X127584770Y-121497140D02*
X127584770Y-122211430D01*
X127584770Y-122211430D02*
X128299060Y-122282860D01*
X127584770Y-123354290D02*
X127656200Y-123140000D01*
X127584770Y-123711430D02*
X127584770Y-123354290D01*
X127656200Y-112931430D02*
X127870490Y-113074290D01*
X127656200Y-114288570D02*
X129156200Y-113788570D01*
X127656200Y-123140000D02*
X127799060Y-122997140D01*
X127799060Y-122997140D02*
X127941910Y-122925710D01*
X127870490Y-113074290D02*
X128013340Y-113217140D01*
X127941910Y-122925710D02*
X128227630Y-122854290D01*
X128013340Y-113217140D02*
X128084770Y-113360000D01*
X128156200Y-121711430D02*
X128227630Y-121568570D01*
X128156200Y-122068570D02*
X128156200Y-121711430D01*
X128227630Y-121568570D02*
X128299060Y-121497140D01*
X128227630Y-122211430D02*
X128156200Y-122068570D01*
X128227630Y-122854290D02*
X128441910Y-122854290D01*
X128299060Y-121497140D02*
X128441910Y-121425710D01*
X128299060Y-122282860D02*
X128227630Y-122211430D01*
X128441910Y-121425710D02*
X128799060Y-121425710D01*
X128441910Y-122854290D02*
X128727630Y-122925710D01*
X128727630Y-114645720D02*
X128727630Y-113931430D01*
X128727630Y-122925710D02*
X128870490Y-122997140D01*
X128799060Y-121425710D02*
X128941910Y-121497140D01*
X128870490Y-122997140D02*
X129013340Y-123140000D01*
X128941910Y-121497140D02*
X129013340Y-121568570D01*
X129013340Y-121568570D02*
X129084770Y-121711430D01*
X129013340Y-122211430D02*
X128941910Y-122282860D01*
X129013340Y-123140000D02*
X129084770Y-123354290D01*
X129084770Y-121711430D02*
X129084770Y-122068570D01*
X129084770Y-122068570D02*
X129013340Y-122211430D01*
X129084770Y-123354290D02*
X129084770Y-123711430D01*
X129084770Y-123711430D02*
X127584770Y-123711430D01*
X129156200Y-112502860D02*
X129156200Y-113360000D01*
X129156200Y-112931430D02*
X127656200Y-112931430D01*
X129156200Y-114788570D02*
X127656200Y-114288570D01*
X130124770Y-121425710D02*
X130696200Y-121925710D01*
X130124770Y-122354290D02*
X130124770Y-121425710D01*
X130124770Y-123354290D02*
X130196200Y-123140000D01*
X130124770Y-123711430D02*
X130124770Y-123354290D01*
X130196200Y-112788570D02*
X130267630Y-112645720D01*
X130196200Y-113145720D02*
X130196200Y-112788570D01*
X130196200Y-114288570D02*
X131696200Y-113788570D01*
X130196200Y-123140000D02*
X130339060Y-122997140D01*
X130267630Y-112645720D02*
X130339060Y-112574290D01*
X130267630Y-113288570D02*
X130196200Y-113145720D01*
X130339060Y-112574290D02*
X130481920Y-112502860D01*
X130339060Y-113360000D02*
X130267630Y-113288570D01*
X130339060Y-122997140D02*
X130481910Y-122925710D01*
X130481910Y-122925710D02*
X130767630Y-122854290D01*
X130481920Y-112502860D02*
X130624770Y-112502860D01*
X130624770Y-112502860D02*
X130839060Y-112574290D01*
X130696200Y-121711430D02*
X130767630Y-121568570D01*
X130696200Y-121925710D02*
X130696200Y-121711430D01*
X130767630Y-121568570D02*
X130839060Y-121497140D01*
X130767630Y-122854290D02*
X130981910Y-122854290D01*
X130839060Y-112574290D02*
X131696200Y-113431430D01*
X130839060Y-121497140D02*
X130981910Y-121425710D01*
X130981910Y-121425710D02*
X131339060Y-121425710D01*
X130981910Y-122854290D02*
X131267630Y-122925710D01*
X131267630Y-114645720D02*
X131267630Y-113931430D01*
X131267630Y-122925710D02*
X131410490Y-122997140D01*
X131339060Y-121425710D02*
X131481910Y-121497140D01*
X131410490Y-122997140D02*
X131553340Y-123140000D01*
X131481910Y-121497140D02*
X131553340Y-121568570D01*
X131553340Y-121568570D02*
X131624770Y-121711430D01*
X131553340Y-122282860D02*
X131481910Y-122354290D01*
X131553340Y-123140000D02*
X131624770Y-123354290D01*
X131624770Y-121711430D02*
X131624770Y-122140000D01*
X131624770Y-122140000D02*
X131553340Y-122282860D01*
X131624770Y-123354290D02*
X131624770Y-123711430D01*
X131624770Y-123711430D02*
X130124770Y-123711430D01*
X131696200Y-113431430D02*
X131696200Y-112502860D01*
X131696200Y-114788570D02*
X130196200Y-114288570D01*
X132593340Y-121925710D02*
X133664770Y-122282860D01*
X132664770Y-123354290D02*
X132736200Y-123140000D01*
X132664770Y-123711430D02*
X132664770Y-123354290D01*
X132736200Y-112502860D02*
X133307630Y-113002860D01*
X132736200Y-113431430D02*
X132736200Y-112502860D01*
X132736200Y-114288570D02*
X134236200Y-113788570D01*
X132736200Y-123140000D02*
X132879060Y-122997140D01*
X132879060Y-122997140D02*
X133021910Y-122925710D01*
X133021910Y-122925710D02*
X133307630Y-122854290D01*
X133164770Y-121568570D02*
X134164770Y-121568570D01*
X133307630Y-112788570D02*
X133379060Y-112645720D01*
X133307630Y-113002860D02*
X133307630Y-112788570D01*
X133307630Y-122854290D02*
X133521910Y-122854290D01*
X133379060Y-112645720D02*
X133450490Y-112574290D01*
X133450490Y-112574290D02*
X133593340Y-112502860D01*
X133521910Y-122854290D02*
X133807630Y-122925710D01*
X133593340Y-112502860D02*
X133950490Y-112502860D01*
X133664770Y-122282860D02*
X133664770Y-121354290D01*
X133807630Y-114645720D02*
X133807630Y-113931430D01*
X133807630Y-122925710D02*
X133950490Y-122997140D01*
X133950490Y-112502860D02*
X134093340Y-112574290D01*
X133950490Y-122997140D02*
X134093340Y-123140000D01*
X134093340Y-112574290D02*
X134164770Y-112645720D01*
X134093340Y-123140000D02*
X134164770Y-123354290D01*
X134164770Y-112645720D02*
X134236200Y-112788570D01*
X134164770Y-113360000D02*
X134093340Y-113431430D01*
X134164770Y-123354290D02*
X134164770Y-123711430D01*
X134164770Y-123711430D02*
X132664770Y-123711430D01*
X134236200Y-112788570D02*
X134236200Y-113217140D01*
X134236200Y-113217140D02*
X134164770Y-113360000D01*
X134236200Y-114788570D02*
X132736200Y-114288570D01*
X134556200Y-122282860D02*
X134556200Y-121140000D01*
X134556200Y-123854290D02*
X134556200Y-122282860D01*
X134556200Y-124568570D02*
X134556200Y-123854290D01*
X134627630Y-108074290D02*
X134627630Y-106717140D01*
X134627630Y-109574290D02*
X134627630Y-108074290D01*
X134627630Y-111145720D02*
X134627630Y-109574290D01*
X134627630Y-112645720D02*
X134627630Y-111145720D01*
X134627630Y-114217140D02*
X134627630Y-112645720D01*
X134627630Y-114931430D02*
X134627630Y-114217140D01*
X135204770Y-122140000D02*
X135204770Y-121282860D01*
X135204770Y-123497140D02*
X136704770Y-122640000D01*
X135276200Y-107717140D02*
X135276200Y-107002860D01*
X135276200Y-108574290D02*
X135276200Y-108788570D01*
X135276200Y-108788570D02*
X135347630Y-109002860D01*
X135276200Y-110217140D02*
X135347630Y-110074290D01*
X135276200Y-110502860D02*
X135276200Y-110217140D01*
X135276200Y-111717140D02*
X135347630Y-111574290D01*
X135276200Y-112288570D02*
X135276200Y-111717140D01*
X135276200Y-113288570D02*
X135347630Y-113145720D01*
X135276200Y-113574290D02*
X135276200Y-113288570D01*
X135347630Y-108431430D02*
X135276200Y-108574290D01*
X135347630Y-109002860D02*
X135490490Y-109145720D01*
X135347630Y-110074290D02*
X135490490Y-109931430D01*
X135347630Y-110645720D02*
X135276200Y-110502860D01*
X135347630Y-111574290D02*
X135419060Y-111502860D01*
X135347630Y-113145720D02*
X135490490Y-113002860D01*
X135347630Y-113717140D02*
X135276200Y-113574290D01*
X135419060Y-111502860D02*
X135561920Y-111431430D01*
X135490490Y-109145720D02*
X135633340Y-109217140D01*
X135490490Y-109931430D02*
X135776200Y-109860000D01*
X135490490Y-110788570D02*
X135347630Y-110645720D01*
X135490490Y-113002860D02*
X135776200Y-112931430D01*
X135490490Y-113860000D02*
X135347630Y-113717140D01*
X135561920Y-111431430D02*
X135776200Y-111431430D01*
X135633340Y-109217140D02*
X135919060Y-109288570D01*
X135776200Y-109860000D02*
X136276200Y-109860000D01*
X135776200Y-110860000D02*
X135490490Y-110788570D01*
X135776200Y-111431430D02*
X135919060Y-111502860D01*
X135776200Y-112931430D02*
X136276200Y-112931430D01*
X135776200Y-113931430D02*
X135490490Y-113860000D01*
X135919060Y-109288570D02*
X136133340Y-109288570D01*
X135919060Y-111502860D02*
X135990490Y-111574290D01*
X135990490Y-107717140D02*
X135990490Y-107217140D01*
X135990490Y-111574290D02*
X136061920Y-111717140D01*
X136061920Y-111717140D02*
X136061920Y-112288570D01*
X136133340Y-108360000D02*
X136133340Y-108645720D01*
X136133340Y-109288570D02*
X136419060Y-109217140D01*
X136276200Y-109860000D02*
X136561920Y-109931430D01*
X136276200Y-110860000D02*
X135776200Y-110860000D01*
X136276200Y-112931430D02*
X136561920Y-113002860D01*
X136276200Y-113931430D02*
X135776200Y-113931430D01*
X136419060Y-109217140D02*
X136561920Y-109145720D01*
X136419060Y-110431430D02*
X136419060Y-110574290D01*
X136490490Y-110288570D02*
X136419060Y-110431430D01*
X136561920Y-109145720D02*
X136704770Y-109002860D01*
X136561920Y-109931430D02*
X136704770Y-110074290D01*
X136561920Y-110788570D02*
X136276200Y-110860000D01*
X136561920Y-113002860D02*
X136704770Y-113145720D01*
X136561920Y-113860000D02*
X136276200Y-113931430D01*
X136633340Y-108360000D02*
X136133340Y-108360000D01*
X136704770Y-108431430D02*
X136633340Y-108360000D01*
X136704770Y-109002860D02*
X136776200Y-108788570D01*
X136704770Y-110074290D02*
X136490490Y-110288570D01*
X136704770Y-110074290D02*
X136776200Y-110217140D01*
X136704770Y-110645720D02*
X136561920Y-110788570D01*
X136704770Y-113145720D02*
X136776200Y-113288570D01*
X136704770Y-113717140D02*
X136561920Y-113860000D01*
X136704770Y-121711430D02*
X135204770Y-121711430D01*
X136704770Y-122640000D02*
X135204770Y-122640000D01*
X136704770Y-123497140D02*
X135204770Y-123497140D01*
X136704770Y-124211430D02*
X135204770Y-124211430D01*
X136776200Y-107002860D02*
X136776200Y-107717140D01*
X136776200Y-107717140D02*
X135276200Y-107717140D01*
X136776200Y-108645720D02*
X136704770Y-108431430D01*
X136776200Y-108788570D02*
X136776200Y-108645720D01*
X136776200Y-110217140D02*
X136776200Y-110502860D01*
X136776200Y-110502860D02*
X136704770Y-110645720D01*
X136776200Y-111431430D02*
X136061920Y-111931430D01*
X136776200Y-112288570D02*
X135276200Y-112288570D01*
X136776200Y-113288570D02*
X136776200Y-113574290D01*
X136776200Y-113574290D02*
X136704770Y-113717140D01*
X136776200Y-114574290D02*
X135276200Y-114574290D01*
X136847630Y-109931430D02*
X136704770Y-110074290D01*
X136919060Y-109788570D02*
X136847630Y-109931430D01*
X137096200Y-121854290D02*
X137096200Y-121140000D01*
X137096200Y-123568570D02*
X137096200Y-121854290D01*
X137096200Y-125140000D02*
X137096200Y-123568570D01*
X137744770Y-122211430D02*
X139244770Y-122211430D01*
X137744770Y-123211430D02*
X138816200Y-122711430D01*
X137744770Y-124782860D02*
X139244770Y-123925710D01*
X137816200Y-111145720D02*
X137887630Y-110931430D01*
X137816200Y-111502860D02*
X137816200Y-111145720D01*
X137816200Y-113074290D02*
X139316200Y-112217140D01*
X137816200Y-113931430D02*
X137816200Y-114145720D01*
X137816200Y-114145720D02*
X137887630Y-114360000D01*
X137887630Y-110931430D02*
X138030490Y-110788570D01*
X137887630Y-113788570D02*
X137816200Y-113931430D01*
X137887630Y-114360000D02*
X138030490Y-114502860D01*
X138030490Y-110788570D02*
X138173340Y-110717140D01*
X138030490Y-114502860D02*
X138173340Y-114574290D01*
X138173340Y-110717140D02*
X138459060Y-110645720D01*
X138173340Y-114574290D02*
X138459060Y-114645720D01*
X138459060Y-110645720D02*
X138673340Y-110645720D01*
X138459060Y-114645720D02*
X138673340Y-114645720D01*
X138673340Y-110645720D02*
X138959060Y-110717140D01*
X138673340Y-113717140D02*
X138673340Y-114002860D01*
X138673340Y-114645720D02*
X138959060Y-114574290D01*
X138816200Y-122711430D02*
X137744770Y-122211430D01*
X138959060Y-110717140D02*
X139101920Y-110788570D01*
X138959060Y-114574290D02*
X139101920Y-114502860D01*
X139101920Y-110788570D02*
X139244770Y-110931430D01*
X139101920Y-114502860D02*
X139244770Y-114360000D01*
X139173340Y-113717140D02*
X138673340Y-113717140D01*
X139244770Y-110931430D02*
X139316200Y-111145720D01*
X139244770Y-113788570D02*
X139173340Y-113717140D01*
X139244770Y-114360000D02*
X139316200Y-114145720D01*
X139244770Y-121497140D02*
X137744770Y-121497140D01*
X139244770Y-123211430D02*
X137744770Y-123211430D01*
X139244770Y-123925710D02*
X137744770Y-123925710D01*
X139244770Y-124782860D02*
X137744770Y-124782860D01*
X139316200Y-111145720D02*
X139316200Y-111502860D01*
X139316200Y-111502860D02*
X137816200Y-111502860D01*
X139316200Y-112217140D02*
X137816200Y-112217140D01*
X139316200Y-113074290D02*
X137816200Y-113074290D01*
X139316200Y-114002860D02*
X139244770Y-113788570D01*
X139316200Y-114145720D02*
X139316200Y-114002860D01*
X139636200Y-122282860D02*
X139636200Y-121140000D01*
X139636200Y-123497140D02*
X139636200Y-122282860D01*
X139636200Y-124782860D02*
X139636200Y-123497140D01*
X139636200Y-126354290D02*
X139636200Y-124782860D01*
X139707630Y-106074290D02*
X139707630Y-104645720D01*
X139707630Y-107788570D02*
X139707630Y-106074290D01*
X139707630Y-109360000D02*
X139707630Y-107788570D01*
X139707630Y-110860000D02*
X139707630Y-109360000D01*
X139707630Y-112002860D02*
X139707630Y-110860000D01*
X139707630Y-113360000D02*
X139707630Y-112002860D01*
X139707630Y-114931430D02*
X139707630Y-113360000D01*
X140284770Y-122140000D02*
X140284770Y-121282860D01*
X140284770Y-124140000D02*
X141784770Y-123640000D01*
X140356200Y-105217140D02*
X140427630Y-105074290D01*
X140356200Y-105574290D02*
X140356200Y-105217140D01*
X140356200Y-106431430D02*
X141856200Y-106431430D01*
X140356200Y-107431430D02*
X141427630Y-106931430D01*
X140356200Y-108431430D02*
X140427630Y-108288570D01*
X140356200Y-108717140D02*
X140356200Y-108431430D01*
X140356200Y-109931430D02*
X140427630Y-109788570D01*
X140356200Y-110502860D02*
X140356200Y-109931430D01*
X140356200Y-113002860D02*
X140356200Y-112288570D01*
X140356200Y-114002860D02*
X140427630Y-113860000D01*
X140356200Y-114288570D02*
X140356200Y-114002860D01*
X140427630Y-105074290D02*
X140499060Y-105002860D01*
X140427630Y-105717140D02*
X140356200Y-105574290D01*
X140427630Y-108288570D02*
X140570490Y-108145720D01*
X140427630Y-108860000D02*
X140356200Y-108717140D01*
X140427630Y-109788570D02*
X140499060Y-109717140D01*
X140427630Y-113860000D02*
X140570490Y-113717140D01*
X140427630Y-114431430D02*
X140356200Y-114288570D01*
X140499060Y-105002860D02*
X140641920Y-104931430D01*
X140499060Y-105788570D02*
X140427630Y-105717140D01*
X140499060Y-109717140D02*
X140641920Y-109645720D01*
X140570490Y-108145720D02*
X140856200Y-108074290D01*
X140570490Y-109002860D02*
X140427630Y-108860000D01*
X140570490Y-113717140D02*
X140856200Y-113645720D01*
X140570490Y-114574290D02*
X140427630Y-114431430D01*
X140641920Y-104931430D02*
X140784770Y-104931430D01*
X140641920Y-109645720D02*
X140856200Y-109645720D01*
X140784770Y-104931430D02*
X140999060Y-105002860D01*
X140856200Y-108074290D02*
X141356200Y-108074290D01*
X140856200Y-109074290D02*
X140570490Y-109002860D01*
X140856200Y-109645720D02*
X140999060Y-109717140D01*
X140856200Y-113645720D02*
X141356200Y-113645720D01*
X140856200Y-114645720D02*
X140570490Y-114574290D01*
X140999060Y-105002860D02*
X141856200Y-105860000D01*
X140999060Y-109717140D02*
X141070490Y-109788570D01*
X140999060Y-125997140D02*
X140999060Y-125140000D01*
X141070490Y-109788570D02*
X141141920Y-109931430D01*
X141070490Y-113002860D02*
X141070490Y-112502860D01*
X141141920Y-109931430D02*
X141141920Y-110502860D01*
X141356200Y-108074290D02*
X141641920Y-108145720D01*
X141356200Y-109074290D02*
X140856200Y-109074290D01*
X141356200Y-113645720D02*
X141641920Y-113717140D01*
X141356200Y-114645720D02*
X140856200Y-114645720D01*
X141356200Y-124497140D02*
X141356200Y-123782860D01*
X141427630Y-106931430D02*
X140356200Y-106431430D01*
X141641920Y-108145720D02*
X141784770Y-108288570D01*
X141641920Y-109002860D02*
X141356200Y-109074290D01*
X141641920Y-113717140D02*
X141784770Y-113860000D01*
X141641920Y-114574290D02*
X141356200Y-114645720D01*
X141784770Y-108288570D02*
X141856200Y-108431430D01*
X141784770Y-108860000D02*
X141641920Y-109002860D01*
X141784770Y-113860000D02*
X141856200Y-114002860D01*
X141784770Y-114431430D02*
X141641920Y-114574290D01*
X141784770Y-121711430D02*
X140284770Y-121711430D01*
X141784770Y-122425710D02*
X141784770Y-123140000D01*
X141784770Y-123140000D02*
X140284770Y-123140000D01*
X141784770Y-124640000D02*
X140284770Y-124140000D01*
X141784770Y-125140000D02*
X140284770Y-125140000D01*
X141784770Y-125997140D02*
X140284770Y-125997140D01*
X141856200Y-105860000D02*
X141856200Y-104931430D01*
X141856200Y-107431430D02*
X140356200Y-107431430D01*
X141856200Y-108431430D02*
X141856200Y-108717140D01*
X141856200Y-108717140D02*
X141784770Y-108860000D01*
X141856200Y-109645720D02*
X141141920Y-110145720D01*
X141856200Y-110502860D02*
X140356200Y-110502860D01*
X141856200Y-112288570D02*
X141856200Y-113002860D01*
X141856200Y-113002860D02*
X140356200Y-113002860D01*
X141856200Y-114002860D02*
X141856200Y-114288570D01*
X141856200Y-114288570D02*
X141784770Y-114431430D01*
X141999060Y-112002860D02*
X141999060Y-110860000D01*
X142176200Y-122711430D02*
X142176200Y-121140000D01*
X142176200Y-124068570D02*
X142176200Y-122711430D01*
X142176200Y-125568570D02*
X142176200Y-124068570D01*
X142176200Y-127282860D02*
X142176200Y-125568570D01*
X142247630Y-114931430D02*
X142247630Y-113645720D01*
X142824770Y-121782860D02*
X142896200Y-121640000D01*
X142824770Y-122068570D02*
X142824770Y-121782860D01*
X142824770Y-123711430D02*
X142824770Y-122997140D01*
X142824770Y-124640000D02*
X142896200Y-124497140D01*
X142824770Y-125211430D02*
X142824770Y-124640000D01*
X142824770Y-125925710D02*
X144324770Y-125925710D01*
X142824770Y-126925710D02*
X143896200Y-126425710D01*
X142896200Y-114788570D02*
X143681920Y-114288570D01*
X142896200Y-121640000D02*
X143039060Y-121497140D01*
X142896200Y-122211430D02*
X142824770Y-122068570D01*
X142896200Y-124497140D02*
X142967630Y-124425710D01*
X142967630Y-124425710D02*
X143110490Y-124354290D01*
X143039060Y-121497140D02*
X143324770Y-121425710D01*
X143039060Y-122354290D02*
X142896200Y-122211430D01*
X143110490Y-124354290D02*
X143324770Y-124354290D01*
X143324770Y-121425710D02*
X143824770Y-121425710D01*
X143324770Y-122425710D02*
X143039060Y-122354290D01*
X143324770Y-124354290D02*
X143467630Y-124425710D01*
X143467630Y-124425710D02*
X143539060Y-124497140D01*
X143539060Y-123711430D02*
X143539060Y-123211430D01*
X143539060Y-124497140D02*
X143610490Y-124640000D01*
X143610490Y-124640000D02*
X143610490Y-125211430D01*
X143681920Y-114288570D02*
X142896200Y-113788570D01*
X143681920Y-114288570D02*
X144396200Y-114288570D01*
X143824770Y-121425710D02*
X144110490Y-121497140D01*
X143824770Y-122425710D02*
X143324770Y-122425710D01*
X143896200Y-126425710D02*
X142824770Y-125925710D01*
X143967630Y-121997140D02*
X143967630Y-122140000D01*
X144039060Y-121854290D02*
X143967630Y-121997140D01*
X144110490Y-121497140D02*
X144253340Y-121640000D01*
X144110490Y-122354290D02*
X143824770Y-122425710D01*
X144253340Y-121640000D02*
X144039060Y-121854290D01*
X144253340Y-121640000D02*
X144324770Y-121782860D01*
X144253340Y-122211430D02*
X144110490Y-122354290D01*
X144324770Y-121782860D02*
X144324770Y-122068570D01*
X144324770Y-122068570D02*
X144253340Y-122211430D01*
X144324770Y-122997140D02*
X144324770Y-123711430D01*
X144324770Y-123711430D02*
X142824770Y-123711430D01*
X144324770Y-124354290D02*
X143610490Y-124854290D01*
X144324770Y-125211430D02*
X142824770Y-125211430D01*
X144324770Y-126925710D02*
X142824770Y-126925710D01*
X144396200Y-121497140D02*
X144253340Y-121640000D01*
X144467630Y-121354290D02*
X144396200Y-121497140D01*
X144716200Y-122711430D02*
X144716200Y-121140000D01*
X144716200Y-124211430D02*
X144716200Y-122711430D01*
X144716200Y-125782860D02*
X144716200Y-124211430D01*
X144716200Y-126497140D02*
X144716200Y-125782860D01*
X145364770Y-121782860D02*
X145436200Y-121640000D01*
X145364770Y-122068570D02*
X145364770Y-121782860D01*
X145364770Y-123282860D02*
X145436200Y-123140000D01*
X145364770Y-123854290D02*
X145364770Y-123282860D01*
X145364770Y-124854290D02*
X145436200Y-124711430D01*
X145364770Y-125140000D02*
X145364770Y-124854290D01*
X145436200Y-114788570D02*
X146936200Y-114288570D01*
X145436200Y-121640000D02*
X145579060Y-121497140D01*
X145436200Y-122211430D02*
X145364770Y-122068570D01*
X145436200Y-123140000D02*
X145507630Y-123068570D01*
X145436200Y-124711430D02*
X145579060Y-124568570D01*
X145436200Y-125282860D02*
X145364770Y-125140000D01*
X145507630Y-123068570D02*
X145650490Y-122997140D01*
X145579060Y-121497140D02*
X145864770Y-121425710D01*
X145579060Y-122354290D02*
X145436200Y-122211430D01*
X145579060Y-124568570D02*
X145864770Y-124497140D01*
X145579060Y-125425710D02*
X145436200Y-125282860D01*
X145650490Y-122997140D02*
X145864770Y-122997140D01*
X145864770Y-121425710D02*
X146364770Y-121425710D01*
X145864770Y-122425710D02*
X145579060Y-122354290D01*
X145864770Y-122997140D02*
X146007630Y-123068570D01*
X145864770Y-124497140D02*
X146364770Y-124497140D01*
X145864770Y-125497140D02*
X145579060Y-125425710D01*
X146007630Y-123068570D02*
X146079060Y-123140000D01*
X146079060Y-123140000D02*
X146150490Y-123282860D01*
X146150490Y-123282860D02*
X146150490Y-123854290D01*
X146364770Y-121425710D02*
X146650490Y-121497140D01*
X146364770Y-122425710D02*
X145864770Y-122425710D01*
X146364770Y-124497140D02*
X146650490Y-124568570D01*
X146364770Y-125497140D02*
X145864770Y-125497140D01*
X146507630Y-121997140D02*
X146507630Y-122140000D01*
X146579060Y-121854290D02*
X146507630Y-121997140D01*
X146650490Y-121497140D02*
X146793340Y-121640000D01*
X146650490Y-122354290D02*
X146364770Y-122425710D01*
X146650490Y-124568570D02*
X146793340Y-124711430D01*
X146650490Y-125425710D02*
X146364770Y-125497140D01*
X146793340Y-121640000D02*
X146579060Y-121854290D01*
X146793340Y-121640000D02*
X146864770Y-121782860D01*
X146793340Y-122211430D02*
X146650490Y-122354290D01*
X146793340Y-124711430D02*
X146864770Y-124854290D01*
X146793340Y-125282860D02*
X146650490Y-125425710D01*
X146864770Y-121782860D02*
X146864770Y-122068570D01*
X146864770Y-122068570D02*
X146793340Y-122211430D01*
X146864770Y-122997140D02*
X146150490Y-123497140D01*
X146864770Y-123854290D02*
X145364770Y-123854290D01*
X146864770Y-124854290D02*
X146864770Y-125140000D01*
X146864770Y-125140000D02*
X146793340Y-125282860D01*
X146864770Y-126140000D02*
X145364770Y-126140000D01*
X146936200Y-114288570D02*
X145436200Y-113788570D01*
X146936200Y-121497140D02*
X146793340Y-121640000D01*
X147007630Y-121354290D02*
X146936200Y-121497140D01*
X147256200Y-122640000D02*
X147256200Y-121140000D01*
X147256200Y-124140000D02*
X147256200Y-122640000D01*
X147904770Y-121925710D02*
X147976200Y-121711430D01*
X147904770Y-122282860D02*
X147904770Y-121925710D01*
X147904770Y-123211430D02*
X147976200Y-123068570D01*
X147904770Y-123782860D02*
X147904770Y-123211430D01*
X147976200Y-114574290D02*
X149190490Y-114574290D01*
X147976200Y-121711430D02*
X148119060Y-121568570D01*
X147976200Y-123068570D02*
X148047630Y-122997140D01*
X148047630Y-122997140D02*
X148190490Y-122925710D01*
X148119060Y-121568570D02*
X148261910Y-121497140D01*
X148190490Y-122925710D02*
X148404770Y-122925710D01*
X148261910Y-121497140D02*
X148547630Y-121425710D01*
X148404770Y-122925710D02*
X148547630Y-122997140D01*
X148547630Y-121425710D02*
X148761910Y-121425710D01*
X148547630Y-122997140D02*
X148619060Y-123068570D01*
X148619060Y-123068570D02*
X148690490Y-123211430D01*
X148690490Y-123211430D02*
X148690490Y-123782860D01*
X148761910Y-121425710D02*
X149047630Y-121497140D01*
X149047630Y-121497140D02*
X149190490Y-121568570D01*
X149190490Y-113717140D02*
X147976200Y-113717140D01*
X149190490Y-114574290D02*
X149333340Y-114502860D01*
X149190490Y-121568570D02*
X149333340Y-121711430D01*
X149333340Y-113788570D02*
X149190490Y-113717140D01*
X149333340Y-114502860D02*
X149404770Y-114431430D01*
X149333340Y-121711430D02*
X149404770Y-121925710D01*
X149404770Y-113860000D02*
X149333340Y-113788570D01*
X149404770Y-114431430D02*
X149476200Y-114288570D01*
X149404770Y-121925710D02*
X149404770Y-122282860D01*
X149404770Y-122282860D02*
X147904770Y-122282860D01*
X149404770Y-122925710D02*
X148690490Y-123425710D01*
X149404770Y-123782860D02*
X147904770Y-123782860D01*
X149476200Y-114002860D02*
X149404770Y-113860000D01*
X149476200Y-114288570D02*
X149476200Y-114002860D01*
X149796200Y-122640000D02*
X149796200Y-121140000D01*
X149796200Y-124354290D02*
X149796200Y-122640000D01*
X149867630Y-108931430D02*
X149867630Y-107360000D01*
X149867630Y-110431430D02*
X149867630Y-108931430D01*
X149867630Y-111860000D02*
X149867630Y-110431430D01*
X149867630Y-113431430D02*
X149867630Y-111860000D01*
X149867630Y-114931430D02*
X149867630Y-113431430D01*
X150444770Y-121711430D02*
X150516200Y-121568570D01*
X150444770Y-122282860D02*
X150444770Y-121711430D01*
X150444770Y-124140000D02*
X151944770Y-123782860D01*
X150516200Y-108002860D02*
X150587630Y-107860000D01*
X150516200Y-108288570D02*
X150516200Y-108002860D01*
X150516200Y-109502860D02*
X150587630Y-109360000D01*
X150516200Y-110074290D02*
X150516200Y-109502860D01*
X150516200Y-110931430D02*
X150587630Y-110717140D01*
X150516200Y-111288570D02*
X150516200Y-110931430D01*
X150516200Y-113074290D02*
X151730490Y-113074290D01*
X150516200Y-114074290D02*
X150587630Y-113931430D01*
X150516200Y-114574290D02*
X150516200Y-114074290D01*
X150516200Y-121568570D02*
X150587630Y-121497140D01*
X150587630Y-107860000D02*
X150730490Y-107717140D01*
X150587630Y-108431430D02*
X150516200Y-108288570D01*
X150587630Y-109360000D02*
X150659060Y-109288570D01*
X150587630Y-111431430D02*
X150516200Y-111288570D01*
X150587630Y-113931430D02*
X150659060Y-113860000D01*
X150587630Y-121497140D02*
X150730490Y-121425710D01*
X150659060Y-109288570D02*
X150801920Y-109217140D01*
X150659060Y-111502860D02*
X150587630Y-111431430D01*
X150659060Y-113860000D02*
X150801920Y-113788570D01*
X150730490Y-107717140D02*
X151016200Y-107645720D01*
X150730490Y-108574290D02*
X150587630Y-108431430D01*
X150730490Y-121425710D02*
X150944770Y-121425710D01*
X150801920Y-109217140D02*
X151016200Y-109217140D01*
X150801920Y-111574290D02*
X150659060Y-111502860D01*
X150801920Y-113788570D02*
X150944770Y-113788570D01*
X150873340Y-123497140D02*
X151944770Y-123211430D01*
X150944770Y-111574290D02*
X150801920Y-111574290D01*
X150944770Y-113788570D02*
X151087630Y-113860000D01*
X150944770Y-121425710D02*
X151087630Y-121497140D01*
X151016200Y-107645720D02*
X151516200Y-107645720D01*
X151016200Y-108645720D02*
X150730490Y-108574290D01*
X151016200Y-109217140D02*
X151159060Y-109288570D01*
X151087630Y-111502860D02*
X150944770Y-111574290D01*
X151087630Y-113860000D02*
X151159060Y-113931430D01*
X151087630Y-121497140D02*
X151159060Y-121568570D01*
X151159060Y-109288570D02*
X151230490Y-109360000D01*
X151159060Y-111431430D02*
X151087630Y-111502860D01*
X151159060Y-113931430D02*
X151230490Y-114074290D01*
X151159060Y-121568570D02*
X151230490Y-121711430D01*
X151230490Y-109360000D02*
X151301920Y-109502860D01*
X151230490Y-111288570D02*
X151159060Y-111431430D01*
X151230490Y-114074290D02*
X151230490Y-114574290D01*
X151230490Y-114074290D02*
X151301920Y-113860000D01*
X151230490Y-121711430D02*
X151230490Y-122282860D01*
X151301920Y-109502860D02*
X151301920Y-110074290D01*
X151301920Y-111002860D02*
X151230490Y-111288570D01*
X151301920Y-113860000D02*
X151373340Y-113788570D01*
X151373340Y-110860000D02*
X151301920Y-111002860D01*
X151373340Y-113788570D02*
X151516200Y-113717140D01*
X151444770Y-110788570D02*
X151373340Y-110860000D01*
X151516200Y-107645720D02*
X151801920Y-107717140D01*
X151516200Y-108645720D02*
X151016200Y-108645720D01*
X151516200Y-113717140D02*
X151730490Y-113717140D01*
X151587630Y-110717140D02*
X151444770Y-110788570D01*
X151659060Y-108217140D02*
X151659060Y-108360000D01*
X151730490Y-108074290D02*
X151659060Y-108217140D01*
X151730490Y-110717140D02*
X151587630Y-110717140D01*
X151730490Y-112217140D02*
X150516200Y-112217140D01*
X151730490Y-113074290D02*
X151873340Y-113002860D01*
X151730490Y-113717140D02*
X151873340Y-113788570D01*
X151801920Y-107717140D02*
X151944770Y-107860000D01*
X151801920Y-108574290D02*
X151516200Y-108645720D01*
X151873340Y-110788570D02*
X151730490Y-110717140D01*
X151873340Y-112288570D02*
X151730490Y-112217140D01*
X151873340Y-113002860D02*
X151944770Y-112931430D01*
X151873340Y-113788570D02*
X151944770Y-113860000D01*
X151944770Y-107860000D02*
X151730490Y-108074290D01*
X151944770Y-107860000D02*
X152016200Y-108002860D01*
X151944770Y-108431430D02*
X151801920Y-108574290D01*
X151944770Y-110860000D02*
X151873340Y-110788570D01*
X151944770Y-111574290D02*
X152016200Y-111360000D01*
X151944770Y-112360000D02*
X151873340Y-112288570D01*
X151944770Y-112931430D02*
X152016200Y-112788570D01*
X151944770Y-113860000D02*
X152016200Y-114002860D01*
X151944770Y-121425710D02*
X151230490Y-121925710D01*
X151944770Y-122282860D02*
X150444770Y-122282860D01*
X151944770Y-123211430D02*
X150444770Y-122854290D01*
X151944770Y-123782860D02*
X150873340Y-123497140D01*
X152016200Y-108002860D02*
X152016200Y-108288570D01*
X152016200Y-108288570D02*
X151944770Y-108431430D01*
X152016200Y-109217140D02*
X151301920Y-109717140D01*
X152016200Y-110074290D02*
X150516200Y-110074290D01*
X152016200Y-111002860D02*
X151944770Y-110860000D01*
X152016200Y-111360000D02*
X152016200Y-111002860D01*
X152016200Y-112502860D02*
X151944770Y-112360000D01*
X152016200Y-112788570D02*
X152016200Y-112502860D01*
X152016200Y-114002860D02*
X152016200Y-114574290D01*
X152016200Y-114574290D02*
X150516200Y-114574290D01*
X152087630Y-107717140D02*
X151944770Y-107860000D01*
X152159060Y-107574290D02*
X152087630Y-107717140D01*
X152407630Y-109288570D02*
X152407630Y-108145720D01*
X152407630Y-110645720D02*
X152407630Y-109288570D01*
X152407630Y-112074290D02*
X152407630Y-110645720D01*
X152407630Y-113431430D02*
X152407630Y-112074290D01*
X152407630Y-114931430D02*
X152407630Y-113431430D01*
X152984770Y-122282860D02*
X154484770Y-121782860D01*
X152984770Y-122782860D02*
X152984770Y-123497140D01*
X152984770Y-123497140D02*
X153699060Y-123568570D01*
X153056200Y-109145720D02*
X153056200Y-108288570D01*
X153056200Y-110288570D02*
X153056200Y-109574290D01*
X153056200Y-111145720D02*
X153127630Y-110931430D01*
X153056200Y-111502860D02*
X153056200Y-111145720D01*
X153056200Y-113074290D02*
X153056200Y-112360000D01*
X153056200Y-114002860D02*
X153127630Y-113860000D01*
X153056200Y-114574290D02*
X153056200Y-114002860D01*
X153127630Y-111645720D02*
X153056200Y-111502860D01*
X153127630Y-113860000D02*
X153199060Y-113788570D01*
X153199060Y-111717140D02*
X153127630Y-111645720D01*
X153199060Y-113788570D02*
X153341920Y-113717140D01*
X153341920Y-111788570D02*
X153199060Y-111717140D01*
X153341920Y-113717140D02*
X153556200Y-113717140D01*
X153484770Y-111788570D02*
X153341920Y-111788570D01*
X153556200Y-113717140D02*
X153699060Y-113788570D01*
X153556200Y-122997140D02*
X153627630Y-122854290D01*
X153556200Y-123354290D02*
X153556200Y-122997140D01*
X153627630Y-111717140D02*
X153484770Y-111788570D01*
X153627630Y-122854290D02*
X153699060Y-122782860D01*
X153627630Y-123497140D02*
X153556200Y-123354290D01*
X153699060Y-111645720D02*
X153627630Y-111717140D01*
X153699060Y-113788570D02*
X153770490Y-113860000D01*
X153699060Y-122782860D02*
X153841910Y-122711430D01*
X153699060Y-123568570D02*
X153627630Y-123497140D01*
X153770490Y-110288570D02*
X153770490Y-109788570D01*
X153770490Y-111502860D02*
X153699060Y-111645720D01*
X153770490Y-113074290D02*
X153770490Y-112574290D01*
X153770490Y-113860000D02*
X153841920Y-114002860D01*
X153841910Y-122711430D02*
X154199060Y-122711430D01*
X153841920Y-111217140D02*
X153770490Y-111502860D01*
X153841920Y-114002860D02*
X153841920Y-114574290D01*
X153913340Y-111074290D02*
X153841920Y-111217140D01*
X153913340Y-125354290D02*
X153913340Y-124211430D01*
X153984770Y-111002860D02*
X153913340Y-111074290D01*
X154127630Y-110931430D02*
X153984770Y-111002860D01*
X154199060Y-122711430D02*
X154341910Y-122782860D01*
X154270490Y-110931430D02*
X154127630Y-110931430D01*
X154341910Y-122782860D02*
X154413340Y-122854290D01*
X154413340Y-111002860D02*
X154270490Y-110931430D01*
X154413340Y-122854290D02*
X154484770Y-122997140D01*
X154413340Y-123497140D02*
X154341910Y-123568570D01*
X154484770Y-111074290D02*
X154413340Y-111002860D01*
X154484770Y-111788570D02*
X154556200Y-111574290D01*
X154484770Y-121782860D02*
X152984770Y-121282860D01*
X154484770Y-122997140D02*
X154484770Y-123354290D01*
X154484770Y-123354290D02*
X154413340Y-123497140D01*
X154556200Y-108717140D02*
X153056200Y-108717140D01*
X154556200Y-109574290D02*
X154556200Y-110288570D01*
X154556200Y-110288570D02*
X153056200Y-110288570D01*
X154556200Y-111217140D02*
X154484770Y-111074290D01*
X154556200Y-111574290D02*
X154556200Y-111217140D01*
X154556200Y-112360000D02*
X154556200Y-113074290D01*
X154556200Y-113074290D02*
X153056200Y-113074290D01*
X154556200Y-113717140D02*
X153841920Y-114217140D01*
X154556200Y-114574290D02*
X153056200Y-114574290D01*
X154876200Y-122282860D02*
X154876200Y-121140000D01*
X154876200Y-122997140D02*
X154876200Y-122282860D01*
X154876200Y-124282860D02*
X154876200Y-122997140D01*
X154876200Y-125997140D02*
X154876200Y-124282860D01*
X155524770Y-122140000D02*
X155524770Y-121282860D01*
X155524770Y-123640000D02*
X157024770Y-123140000D01*
X155524770Y-125782860D02*
X157024770Y-125425710D01*
X155596200Y-112431430D02*
X157096200Y-113074290D01*
X155596200Y-113431430D02*
X155596200Y-112431430D01*
X155596200Y-114288570D02*
X157096200Y-113788570D01*
X155953340Y-125140000D02*
X157024770Y-124854290D01*
X156596200Y-123997140D02*
X156596200Y-123282860D01*
X156667630Y-114645720D02*
X156667630Y-113931430D01*
X157024770Y-121711430D02*
X155524770Y-121711430D01*
X157024770Y-122640000D02*
X155524770Y-122640000D01*
X157024770Y-124140000D02*
X155524770Y-123640000D01*
X157024770Y-124854290D02*
X155524770Y-124497140D01*
X157024770Y-125425710D02*
X155953340Y-125140000D01*
X157096200Y-114788570D02*
X155596200Y-114288570D01*
X158064770Y-122282860D02*
X159564770Y-121782860D01*
X158064770Y-122997140D02*
X158136200Y-122854290D01*
X158064770Y-123354290D02*
X158064770Y-122997140D01*
X158064770Y-124568570D02*
X158279060Y-124711430D01*
X158136200Y-112645720D02*
X158136200Y-112931430D01*
X158136200Y-112931430D02*
X158207630Y-113074290D01*
X158136200Y-114288570D02*
X159636200Y-113788570D01*
X158136200Y-122854290D02*
X158207630Y-122782860D01*
X158136200Y-123497140D02*
X158064770Y-123354290D01*
X158207630Y-113074290D02*
X158279060Y-113145720D01*
X158207630Y-122782860D02*
X158350490Y-122711430D01*
X158207630Y-123568570D02*
X158136200Y-123497140D01*
X158279060Y-113145720D02*
X158493340Y-113288570D01*
X158279060Y-124711430D02*
X158421910Y-124854290D01*
X158350490Y-122711430D02*
X158493340Y-122711430D01*
X158421910Y-124854290D02*
X158493340Y-124997140D01*
X158493340Y-113288570D02*
X158779060Y-113360000D01*
X158493340Y-122711430D02*
X158707630Y-122782860D01*
X158707630Y-112788570D02*
X158707630Y-113074290D01*
X158707630Y-113074290D02*
X158779060Y-113217140D01*
X158707630Y-122782860D02*
X159564770Y-123640000D01*
X158779060Y-112645720D02*
X158707630Y-112788570D01*
X158779060Y-113217140D02*
X158850490Y-113288570D01*
X158779060Y-113360000D02*
X159350490Y-113360000D01*
X158850490Y-112574290D02*
X158779060Y-112645720D01*
X158850490Y-113288570D02*
X158993340Y-113360000D01*
X158993340Y-112502860D02*
X158850490Y-112574290D01*
X158993340Y-126782860D02*
X158993340Y-125640000D01*
X159207630Y-114645720D02*
X159207630Y-113931430D01*
X159350490Y-112502860D02*
X158993340Y-112502860D01*
X159350490Y-113360000D02*
X159493340Y-113288570D01*
X159493340Y-112574290D02*
X159350490Y-112502860D01*
X159493340Y-113288570D02*
X159564770Y-113217140D01*
X159564770Y-112645720D02*
X159493340Y-112574290D01*
X159564770Y-113217140D02*
X159636200Y-113074290D01*
X159564770Y-121782860D02*
X158064770Y-121282860D01*
X159564770Y-123640000D02*
X159564770Y-122711430D01*
X159564770Y-124140000D02*
X159564770Y-124997140D01*
X159564770Y-124568570D02*
X158064770Y-124568570D01*
X159564770Y-126211430D02*
X158421910Y-126211430D01*
X159636200Y-112788570D02*
X159564770Y-112645720D01*
X159636200Y-113074290D02*
X159636200Y-112788570D01*
X159636200Y-114788570D02*
X158136200Y-114288570D01*
X160604770Y-121711430D02*
X160676200Y-121497140D01*
X160604770Y-121854290D02*
X160604770Y-121711430D01*
X160604770Y-123282860D02*
X162104770Y-122782860D01*
X160604770Y-125068570D02*
X162104770Y-124568570D01*
X160604770Y-125782860D02*
X160676200Y-125640000D01*
X160604770Y-126140000D02*
X160604770Y-125782860D01*
X160604770Y-127354290D02*
X160819060Y-127497140D01*
X160676200Y-112574290D02*
X160676200Y-113288570D01*
X160676200Y-113288570D02*
X161390490Y-113360000D01*
X160676200Y-114288570D02*
X162176200Y-113788570D01*
X160676200Y-121497140D02*
X160747630Y-121425710D01*
X160676200Y-122068570D02*
X160604770Y-121854290D01*
X160676200Y-125640000D02*
X160747630Y-125568570D01*
X160676200Y-126282860D02*
X160604770Y-126140000D01*
X160747630Y-125568570D02*
X160890490Y-125497140D01*
X160747630Y-126354290D02*
X160676200Y-126282860D01*
X160819060Y-122211430D02*
X160676200Y-122068570D01*
X160819060Y-127497140D02*
X160961910Y-127640000D01*
X160890490Y-125497140D02*
X161033340Y-125497140D01*
X160961910Y-122282860D02*
X160819060Y-122211430D01*
X160961910Y-127640000D02*
X161033340Y-127782860D01*
X161033340Y-125497140D02*
X161247630Y-125568570D01*
X161247630Y-112788570D02*
X161319060Y-112645720D01*
X161247630Y-113145720D02*
X161247630Y-112788570D01*
X161247630Y-122354290D02*
X160961910Y-122282860D01*
X161247630Y-125568570D02*
X162104770Y-126425710D01*
X161319060Y-112645720D02*
X161390490Y-112574290D01*
X161319060Y-113288570D02*
X161247630Y-113145720D01*
X161390490Y-112574290D02*
X161533340Y-112502860D01*
X161390490Y-113360000D02*
X161319060Y-113288570D01*
X161461910Y-122354290D02*
X161247630Y-122354290D01*
X161533340Y-112502860D02*
X161890490Y-112502860D01*
X161676200Y-123640000D02*
X161676200Y-122925710D01*
X161747630Y-114645720D02*
X161747630Y-113931430D01*
X161747630Y-122282860D02*
X161461910Y-122354290D01*
X161890490Y-112502860D02*
X162033340Y-112574290D01*
X161890490Y-122211430D02*
X161747630Y-122282860D01*
X161961910Y-121425710D02*
X162033340Y-121497140D01*
X162033340Y-112574290D02*
X162104770Y-112645720D01*
X162033340Y-121497140D02*
X162104770Y-121711430D01*
X162033340Y-122068570D02*
X161890490Y-122211430D01*
X162104770Y-112645720D02*
X162176200Y-112788570D01*
X162104770Y-113288570D02*
X162033340Y-113360000D01*
X162104770Y-121711430D02*
X162104770Y-121854290D01*
X162104770Y-121854290D02*
X162033340Y-122068570D01*
X162104770Y-123782860D02*
X160604770Y-123282860D01*
X162104770Y-124568570D02*
X160604770Y-124068570D01*
X162104770Y-126425710D02*
X162104770Y-125497140D01*
X162104770Y-126925710D02*
X162104770Y-127782860D01*
X162104770Y-127354290D02*
X160604770Y-127354290D01*
X162176200Y-112788570D02*
X162176200Y-113145720D01*
X162176200Y-113145720D02*
X162104770Y-113288570D01*
X162176200Y-114788570D02*
X160676200Y-114288570D01*
X162496200Y-122568570D02*
X162496200Y-121140000D01*
X162496200Y-124282860D02*
X162496200Y-122568570D01*
X163144770Y-113002860D02*
X164216200Y-113360000D01*
X163144770Y-121854290D02*
X163359060Y-121997140D01*
X163144770Y-122925710D02*
X164644770Y-122925710D01*
X163144770Y-123925710D02*
X164216200Y-123425710D01*
X163216200Y-114288570D02*
X164716200Y-113788570D01*
X163359060Y-121997140D02*
X163501910Y-122140000D01*
X163501910Y-122140000D02*
X163573340Y-122282860D01*
X163716200Y-112645720D02*
X164716200Y-112645720D01*
X164216200Y-113360000D02*
X164216200Y-112431430D01*
X164216200Y-123425710D02*
X163144770Y-122925710D01*
X164287630Y-114645720D02*
X164287630Y-113931430D01*
X164644770Y-121425710D02*
X164644770Y-122282860D01*
X164644770Y-121854290D02*
X163144770Y-121854290D01*
X164644770Y-123925710D02*
X163144770Y-123925710D01*
X164716200Y-114788570D02*
X163216200Y-114288570D01*
X165036200Y-122711430D02*
X165036200Y-121140000D01*
X165036200Y-124140000D02*
X165036200Y-122711430D01*
X165036200Y-125425710D02*
X165036200Y-124140000D01*
X165036200Y-126925710D02*
X165036200Y-125425710D01*
X165107630Y-108645720D02*
X165107630Y-107217140D01*
X165107630Y-110145720D02*
X165107630Y-108645720D01*
X165107630Y-111860000D02*
X165107630Y-110145720D01*
X165107630Y-113431430D02*
X165107630Y-111860000D01*
X165107630Y-114931430D02*
X165107630Y-113431430D01*
X165684770Y-123211430D02*
X165756200Y-122997140D01*
X165684770Y-123568570D02*
X165684770Y-123211430D01*
X165684770Y-125068570D02*
X165684770Y-124354290D01*
X165684770Y-125997140D02*
X165756200Y-125854290D01*
X165684770Y-126568570D02*
X165684770Y-125997140D01*
X165756200Y-107717140D02*
X165827630Y-107502860D01*
X165756200Y-108074290D02*
X165756200Y-107717140D01*
X165756200Y-109217140D02*
X165827630Y-109002860D01*
X165756200Y-109360000D02*
X165756200Y-109217140D01*
X165756200Y-110502860D02*
X167256200Y-110502860D01*
X165756200Y-111502860D02*
X166827630Y-111002860D01*
X165756200Y-112502860D02*
X165827630Y-112360000D01*
X165756200Y-112788570D02*
X165756200Y-112502860D01*
X165756200Y-114002860D02*
X165827630Y-113860000D01*
X165756200Y-114574290D02*
X165756200Y-114002860D01*
X165756200Y-123711430D02*
X165684770Y-123568570D01*
X165756200Y-125854290D02*
X165827630Y-125782860D01*
X165827630Y-108217140D02*
X165756200Y-108074290D01*
X165827630Y-109002860D02*
X165899060Y-108931430D01*
X165827630Y-109574290D02*
X165756200Y-109360000D01*
X165827630Y-112360000D02*
X165970490Y-112217140D01*
X165827630Y-112931430D02*
X165756200Y-112788570D01*
X165827630Y-113860000D02*
X165899060Y-113788570D01*
X165827630Y-123782860D02*
X165756200Y-123711430D01*
X165827630Y-125782860D02*
X165970490Y-125711430D01*
X165899060Y-108288570D02*
X165827630Y-108217140D01*
X165899060Y-113788570D02*
X166041920Y-113717140D01*
X165970490Y-109717140D02*
X165827630Y-109574290D01*
X165970490Y-112217140D02*
X166256200Y-112145720D01*
X165970490Y-113074290D02*
X165827630Y-112931430D01*
X165970490Y-123854290D02*
X165827630Y-123782860D01*
X165970490Y-125711430D02*
X166184770Y-125711430D01*
X166041920Y-108360000D02*
X165899060Y-108288570D01*
X166041920Y-113717140D02*
X166256200Y-113717140D01*
X166113340Y-109788570D02*
X165970490Y-109717140D01*
X166113340Y-123854290D02*
X165970490Y-123854290D01*
X166184770Y-108360000D02*
X166041920Y-108360000D01*
X166184770Y-125711430D02*
X166327630Y-125782860D01*
X166256200Y-112145720D02*
X166756200Y-112145720D01*
X166256200Y-113145720D02*
X165970490Y-113074290D01*
X166256200Y-113717140D02*
X166399060Y-113788570D01*
X166256200Y-123782860D02*
X166113340Y-123854290D01*
X166327630Y-108288570D02*
X166184770Y-108360000D01*
X166327630Y-123711430D02*
X166256200Y-123782860D01*
X166327630Y-125782860D02*
X166399060Y-125854290D01*
X166399060Y-108217140D02*
X166327630Y-108288570D01*
X166399060Y-109860000D02*
X166113340Y-109788570D01*
X166399060Y-113788570D02*
X166470490Y-113860000D01*
X166399060Y-122354290D02*
X166399060Y-121497140D01*
X166399060Y-123568570D02*
X166327630Y-123711430D01*
X166399060Y-124568570D02*
X166399060Y-125068570D01*
X166399060Y-125854290D02*
X166470490Y-125997140D01*
X166470490Y-108074290D02*
X166399060Y-108217140D01*
X166470490Y-113860000D02*
X166541920Y-114002860D01*
X166470490Y-123282860D02*
X166399060Y-123568570D01*
X166470490Y-125997140D02*
X166470490Y-126568570D01*
X166541910Y-123140000D02*
X166470490Y-123282860D01*
X166541920Y-107788570D02*
X166470490Y-108074290D01*
X166541920Y-114002860D02*
X166541920Y-114574290D01*
X166613340Y-107645720D02*
X166541920Y-107788570D01*
X166613340Y-109860000D02*
X166399060Y-109860000D01*
X166613340Y-123068570D02*
X166541910Y-123140000D01*
X166684770Y-107574290D02*
X166613340Y-107645720D01*
X166756200Y-112145720D02*
X167041920Y-112217140D01*
X166756200Y-113145720D02*
X166256200Y-113145720D01*
X166756200Y-122997140D02*
X166613340Y-123068570D01*
X166827630Y-107502860D02*
X166684770Y-107574290D01*
X166827630Y-111002860D02*
X165756200Y-110502860D01*
X166899060Y-109788570D02*
X166613340Y-109860000D01*
X166899060Y-122997140D02*
X166756200Y-122997140D01*
X166970490Y-107502860D02*
X166827630Y-107502860D01*
X167041910Y-123068570D02*
X166899060Y-122997140D01*
X167041920Y-109717140D02*
X166899060Y-109788570D01*
X167041920Y-112217140D02*
X167184770Y-112360000D01*
X167041920Y-113074290D02*
X166756200Y-113145720D01*
X167113340Y-107574290D02*
X166970490Y-107502860D01*
X167113340Y-108931430D02*
X167184770Y-109002860D01*
X167113340Y-123140000D02*
X167041910Y-123068570D01*
X167113340Y-123854290D02*
X167184770Y-123640000D01*
X167184770Y-107645720D02*
X167113340Y-107574290D01*
X167184770Y-108360000D02*
X167256200Y-108145720D01*
X167184770Y-109002860D02*
X167256200Y-109217140D01*
X167184770Y-109574290D02*
X167041920Y-109717140D01*
X167184770Y-112360000D02*
X167256200Y-112502860D01*
X167184770Y-112931430D02*
X167041920Y-113074290D01*
X167184770Y-121497140D02*
X165684770Y-121497140D01*
X167184770Y-122354290D02*
X165684770Y-122354290D01*
X167184770Y-123282860D02*
X167113340Y-123140000D01*
X167184770Y-123640000D02*
X167184770Y-123282860D01*
X167184770Y-125068570D02*
X165684770Y-125068570D01*
X167184770Y-125711430D02*
X166470490Y-126211430D01*
X167184770Y-126568570D02*
X165684770Y-126568570D01*
X167256200Y-107788570D02*
X167184770Y-107645720D01*
X167256200Y-108145720D02*
X167256200Y-107788570D01*
X167256200Y-109217140D02*
X167256200Y-109360000D01*
X167256200Y-109360000D02*
X167184770Y-109574290D01*
X167256200Y-111502860D02*
X165756200Y-111502860D01*
X167256200Y-112502860D02*
X167256200Y-112788570D01*
X167256200Y-112788570D02*
X167184770Y-112931430D01*
X167256200Y-113717140D02*
X166541920Y-114217140D01*
X167256200Y-114574290D02*
X165756200Y-114574290D01*
X167647630Y-107645720D02*
X167647630Y-106145720D01*
X167647630Y-109145720D02*
X167647630Y-107645720D01*
X167647630Y-110431430D02*
X167647630Y-109145720D01*
X167647630Y-111860000D02*
X167647630Y-110431430D01*
X167647630Y-113431430D02*
X167647630Y-111860000D01*
X167647630Y-114931430D02*
X167647630Y-113431430D01*
X168224770Y-121711430D02*
X168296200Y-121568570D01*
X168224770Y-121997140D02*
X168224770Y-121711430D01*
X168224770Y-123211430D02*
X169724770Y-122711430D01*
X168296200Y-106431430D02*
X169153340Y-107288570D01*
X168296200Y-108217140D02*
X168367630Y-108002860D01*
X168296200Y-108360000D02*
X168296200Y-108217140D01*
X168296200Y-109788570D02*
X169796200Y-109288570D01*
X168296200Y-110931430D02*
X168367630Y-110717140D01*
X168296200Y-111288570D02*
X168296200Y-110931430D01*
X168296200Y-113074290D02*
X169510490Y-113074290D01*
X168296200Y-114074290D02*
X168367630Y-113931430D01*
X168296200Y-114574290D02*
X168296200Y-114074290D01*
X168296200Y-121568570D02*
X168367630Y-121497140D01*
X168296200Y-122140000D02*
X168224770Y-121997140D01*
X168367630Y-108002860D02*
X168439060Y-107931430D01*
X168367630Y-108574290D02*
X168296200Y-108360000D01*
X168367630Y-111431430D02*
X168296200Y-111288570D01*
X168367630Y-113931430D02*
X168439060Y-113860000D01*
X168367630Y-121497140D02*
X168510490Y-121425710D01*
X168367630Y-122211430D02*
X168296200Y-122140000D01*
X168439060Y-111502860D02*
X168367630Y-111431430D01*
X168439060Y-113860000D02*
X168581920Y-113788570D01*
X168510490Y-108717140D02*
X168367630Y-108574290D01*
X168510490Y-121425710D02*
X168581910Y-121425710D01*
X168510490Y-122282860D02*
X168367630Y-122211430D01*
X168581910Y-121425710D02*
X168724770Y-121497140D01*
X168581910Y-122282860D02*
X168510490Y-122282860D01*
X168581920Y-111574290D02*
X168439060Y-111502860D01*
X168581920Y-113788570D02*
X168724770Y-113788570D01*
X168653340Y-108788570D02*
X168510490Y-108717140D01*
X168724770Y-111574290D02*
X168581920Y-111574290D01*
X168724770Y-113788570D02*
X168867630Y-113860000D01*
X168724770Y-121497140D02*
X168796200Y-121568570D01*
X168724770Y-122211430D02*
X168581910Y-122282860D01*
X168796200Y-121568570D02*
X168867630Y-121711430D01*
X168796200Y-122140000D02*
X168724770Y-122211430D01*
X168867630Y-111502860D02*
X168724770Y-111574290D01*
X168867630Y-113860000D02*
X168939060Y-113931430D01*
X168867630Y-121711430D02*
X168867630Y-121997140D01*
X168867630Y-121997140D02*
X168796200Y-122140000D01*
X168867630Y-121997140D02*
X168939060Y-122140000D01*
X168939060Y-108860000D02*
X168653340Y-108788570D01*
X168939060Y-111431430D02*
X168867630Y-111502860D01*
X168939060Y-113931430D02*
X169010490Y-114074290D01*
X168939060Y-121568570D02*
X168867630Y-121711430D01*
X168939060Y-122140000D02*
X169010490Y-122211430D01*
X169010490Y-111288570D02*
X168939060Y-111431430D01*
X169010490Y-114074290D02*
X169010490Y-114574290D01*
X169010490Y-114074290D02*
X169081920Y-113860000D01*
X169010490Y-121497140D02*
X168939060Y-121568570D01*
X169010490Y-122211430D02*
X169153340Y-122282860D01*
X169081920Y-111002860D02*
X169010490Y-111288570D01*
X169081920Y-113860000D02*
X169153340Y-113788570D01*
X169153340Y-108860000D02*
X168939060Y-108860000D01*
X169153340Y-110860000D02*
X169081920Y-111002860D01*
X169153340Y-113788570D02*
X169296200Y-113717140D01*
X169153340Y-121425710D02*
X169010490Y-121497140D01*
X169153340Y-122282860D02*
X169439060Y-122282860D01*
X169224770Y-110788570D02*
X169153340Y-110860000D01*
X169296200Y-113717140D02*
X169510490Y-113717140D01*
X169296200Y-123568570D02*
X169296200Y-122854290D01*
X169367630Y-110145720D02*
X169367630Y-109431430D01*
X169367630Y-110717140D02*
X169224770Y-110788570D01*
X169439060Y-108788570D02*
X169153340Y-108860000D01*
X169439060Y-121425710D02*
X169153340Y-121425710D01*
X169439060Y-122282860D02*
X169581910Y-122211430D01*
X169510490Y-110717140D02*
X169367630Y-110717140D01*
X169510490Y-112217140D02*
X168296200Y-112217140D01*
X169510490Y-113074290D02*
X169653340Y-113002860D01*
X169510490Y-113717140D02*
X169653340Y-113788570D01*
X169581910Y-121497140D02*
X169439060Y-121425710D01*
X169581910Y-122211430D02*
X169653340Y-122140000D01*
X169581920Y-108717140D02*
X169439060Y-108788570D01*
X169653340Y-107931430D02*
X169724770Y-108002860D01*
X169653340Y-110788570D02*
X169510490Y-110717140D01*
X169653340Y-112288570D02*
X169510490Y-112217140D01*
X169653340Y-113002860D02*
X169724770Y-112931430D01*
X169653340Y-113788570D02*
X169724770Y-113860000D01*
X169653340Y-121568570D02*
X169581910Y-121497140D01*
X169653340Y-122140000D02*
X169724770Y-121997140D01*
X169724770Y-108002860D02*
X169796200Y-108217140D01*
X169724770Y-108574290D02*
X169581920Y-108717140D01*
X169724770Y-110860000D02*
X169653340Y-110788570D01*
X169724770Y-111574290D02*
X169796200Y-111360000D01*
X169724770Y-112360000D02*
X169653340Y-112288570D01*
X169724770Y-112931430D02*
X169796200Y-112788570D01*
X169724770Y-113860000D02*
X169796200Y-114002860D01*
X169724770Y-121711430D02*
X169653340Y-121568570D01*
X169724770Y-121997140D02*
X169724770Y-121711430D01*
X169724770Y-123711430D02*
X168224770Y-123211430D01*
X169796200Y-106431430D02*
X168939060Y-107074290D01*
X169796200Y-107288570D02*
X168296200Y-107288570D01*
X169796200Y-108217140D02*
X169796200Y-108360000D01*
X169796200Y-108360000D02*
X169724770Y-108574290D01*
X169796200Y-110288570D02*
X168296200Y-109788570D01*
X169796200Y-111002860D02*
X169724770Y-110860000D01*
X169796200Y-111360000D02*
X169796200Y-111002860D01*
X169796200Y-112502860D02*
X169724770Y-112360000D01*
X169796200Y-112788570D02*
X169796200Y-112502860D01*
X169796200Y-114002860D02*
X169796200Y-114574290D01*
X169796200Y-114574290D02*
X168296200Y-114574290D01*
X170764770Y-121782860D02*
X170836200Y-121640000D01*
X170764770Y-121925710D02*
X170764770Y-121782860D01*
X170764770Y-123282860D02*
X170979060Y-123425710D01*
X170764770Y-124640000D02*
X172264770Y-124140000D01*
X170836200Y-112788570D02*
X170836200Y-113074290D01*
X170836200Y-113074290D02*
X170907630Y-113217140D01*
X170836200Y-114288570D02*
X172336200Y-113788570D01*
X170836200Y-121640000D02*
X170907630Y-121568570D01*
X170836200Y-122068570D02*
X170764770Y-121925710D01*
X170907630Y-112645720D02*
X170836200Y-112788570D01*
X170907630Y-113217140D02*
X170979060Y-113288570D01*
X170907630Y-121568570D02*
X171050490Y-121497140D01*
X170907630Y-122140000D02*
X170836200Y-122068570D01*
X170979060Y-112574290D02*
X170907630Y-112645720D01*
X170979060Y-113288570D02*
X171121920Y-113360000D01*
X170979060Y-123425710D02*
X171121910Y-123568570D01*
X171050490Y-121497140D02*
X171336200Y-121425710D01*
X171050490Y-122211430D02*
X170907630Y-122140000D01*
X171121910Y-123568570D02*
X171193340Y-123711430D01*
X171121920Y-112502860D02*
X170979060Y-112574290D01*
X171121920Y-113360000D02*
X171479060Y-113360000D01*
X171336200Y-121425710D02*
X171693340Y-121425710D01*
X171336200Y-122282860D02*
X171050490Y-122211430D01*
X171479060Y-113360000D02*
X171621920Y-113288570D01*
X171621920Y-112574290D02*
X171479060Y-112502860D01*
X171621920Y-113288570D02*
X171693340Y-113217140D01*
X171693340Y-112502860D02*
X171121920Y-112502860D01*
X171693340Y-112645720D02*
X171621920Y-112574290D01*
X171693340Y-113217140D02*
X171764770Y-113074290D01*
X171693340Y-121425710D02*
X171979060Y-121497140D01*
X171693340Y-122282860D02*
X171336200Y-122282860D01*
X171764770Y-112788570D02*
X171693340Y-112645720D01*
X171764770Y-113074290D02*
X171764770Y-112788570D01*
X171836200Y-124997140D02*
X171836200Y-124282860D01*
X171907630Y-114645720D02*
X171907630Y-113931430D01*
X171979060Y-112574290D02*
X171693340Y-112502860D01*
X171979060Y-121497140D02*
X172121910Y-121568570D01*
X171979060Y-122211430D02*
X171693340Y-122282860D01*
X172121910Y-121568570D02*
X172193340Y-121640000D01*
X172121910Y-122140000D02*
X171979060Y-122211430D01*
X172193340Y-112717140D02*
X171979060Y-112574290D01*
X172193340Y-121640000D02*
X172264770Y-121782860D01*
X172193340Y-122068570D02*
X172121910Y-122140000D01*
X172264770Y-112788570D02*
X172193340Y-112717140D01*
X172264770Y-121782860D02*
X172264770Y-121925710D01*
X172264770Y-121925710D02*
X172193340Y-122068570D01*
X172264770Y-122854290D02*
X172264770Y-123711430D01*
X172264770Y-123282860D02*
X170764770Y-123282860D01*
X172264770Y-125140000D02*
X170764770Y-124640000D01*
X172336200Y-112931430D02*
X172264770Y-112788570D01*
X172336200Y-113217140D02*
X172336200Y-112931430D01*
X172336200Y-114788570D02*
X170836200Y-114288570D01*
X173304770Y-122140000D02*
X173304770Y-121282860D01*
X173304770Y-123282860D02*
X173304770Y-122568570D01*
X173304770Y-124140000D02*
X173376200Y-123925710D01*
X173304770Y-124497140D02*
X173304770Y-124140000D01*
X173304770Y-126068570D02*
X173304770Y-125354290D01*
X173304770Y-126997140D02*
X173376200Y-126854290D01*
X173304770Y-127568570D02*
X173304770Y-126997140D01*
X173376200Y-111502860D02*
X173590490Y-111645720D01*
X173376200Y-112931430D02*
X173590490Y-113074290D01*
X173376200Y-114288570D02*
X174876200Y-113788570D01*
X173376200Y-124640000D02*
X173304770Y-124497140D01*
X173376200Y-126854290D02*
X173447630Y-126782860D01*
X173447630Y-124711430D02*
X173376200Y-124640000D01*
X173447630Y-126782860D02*
X173590490Y-126711430D01*
X173590490Y-111645720D02*
X173733340Y-111788570D01*
X173590490Y-113074290D02*
X173733340Y-113217140D01*
X173590490Y-124782860D02*
X173447630Y-124711430D01*
X173590490Y-126711430D02*
X173804770Y-126711430D01*
X173733340Y-111788570D02*
X173804770Y-111931430D01*
X173733340Y-113217140D02*
X173804770Y-113360000D01*
X173733340Y-124782860D02*
X173590490Y-124782860D01*
X173804770Y-126711430D02*
X173947630Y-126782860D01*
X173876200Y-124711430D02*
X173733340Y-124782860D01*
X173947630Y-124640000D02*
X173876200Y-124711430D01*
X173947630Y-126782860D02*
X174019060Y-126854290D01*
X174019060Y-123282860D02*
X174019060Y-122782860D01*
X174019060Y-124497140D02*
X173947630Y-124640000D01*
X174019060Y-126068570D02*
X174019060Y-125568570D01*
X174019060Y-126854290D02*
X174090490Y-126997140D01*
X174090490Y-124211430D02*
X174019060Y-124497140D01*
X174090490Y-126997140D02*
X174090490Y-127568570D01*
X174161910Y-124068570D02*
X174090490Y-124211430D01*
X174233340Y-123997140D02*
X174161910Y-124068570D01*
X174376200Y-123925710D02*
X174233340Y-123997140D01*
X174447630Y-114645720D02*
X174447630Y-113931430D01*
X174519060Y-123925710D02*
X174376200Y-123925710D01*
X174661910Y-123997140D02*
X174519060Y-123925710D01*
X174733340Y-124068570D02*
X174661910Y-123997140D01*
X174733340Y-124782860D02*
X174804770Y-124568570D01*
X174804770Y-121711430D02*
X173304770Y-121711430D01*
X174804770Y-122568570D02*
X174804770Y-123282860D01*
X174804770Y-123282860D02*
X173304770Y-123282860D01*
X174804770Y-124211430D02*
X174733340Y-124068570D01*
X174804770Y-124568570D02*
X174804770Y-124211430D01*
X174804770Y-125354290D02*
X174804770Y-126068570D01*
X174804770Y-126068570D02*
X173304770Y-126068570D01*
X174804770Y-126711430D02*
X174090490Y-127211430D01*
X174804770Y-127568570D02*
X173304770Y-127568570D01*
X174876200Y-111074290D02*
X174876200Y-111931430D01*
X174876200Y-111502860D02*
X173376200Y-111502860D01*
X174876200Y-112502860D02*
X174876200Y-113360000D01*
X174876200Y-112931430D02*
X173376200Y-112931430D01*
X174876200Y-114788570D02*
X173376200Y-114288570D01*
D11*
X175336200Y-115570000D02*
X175336200Y-120650000D01*
X175336200Y-120650000D02*
X106716200Y-120650000D01*
D15*
%TO.C,D1*%
X97646000Y-63302000D02*
X97646000Y-65222000D01*
X97646000Y-65222000D02*
X100331000Y-65222000D01*
X100331000Y-63302000D02*
X97646000Y-63302000D01*
%TO.C,R2*%
X98440436Y-66410000D02*
X99894564Y-66410000D01*
X98440436Y-68230000D02*
X99894564Y-68230000D01*
%TD*%
M02*
