M48
; DRILL file {KiCad 8.0.0} date 2024-03-05T08:56:28+0100
; FORMAT={-:-/ absolute / metric / decimal}
; #@! TF.CreationDate,2024-03-05T08:56:28+01:00
; #@! TF.GenerationSoftware,Kicad,Pcbnew,8.0.0
; #@! TF.FileFunction,Plated,1,2,PTH
FMAT,2
METRIC
; #@! TA.AperFunction,Plated,PTH,ViaDrill
T1C0.400
; #@! TA.AperFunction,Plated,PTH,ComponentDrill
T2C0.762
%
G90
G05
T1
X104.03Y-91.461
X104.038Y-64.008
X104.242Y-129.845
X105.461Y-75.336
X105.48Y-123.79
X105.486Y-110.25
X106.75Y-89.0
X106.832Y-62.636
X106.833Y-131.674
X108.026Y-112.547
X108.052Y-77.165
X108.153Y-122.428
X109.25Y-91.461
X109.372Y-63.957
X109.424Y-129.896
X110.566Y-110.25
X110.642Y-75.387
X110.693Y-123.749
X111.811Y-62.636
X111.811Y-88.849
X111.862Y-131.674
X113.081Y-77.165
X113.106Y-112.547
X113.132Y-122.428
X116.84Y-62.636
X116.84Y-88.849
X118.161Y-122.428
X118.161Y-68.021
X119.38Y-129.946
X119.431Y-64.414
X119.461Y-91.461
X120.65Y-68.021
X120.752Y-124.206
X122.022Y-88.849
X122.022Y-129.947
X122.022Y-62.636
X123.241Y-112.547
X123.241Y-75.438
X123.343Y-122.428
X124.562Y-64.414
X124.612Y-91.38
X124.613Y-131.776
X125.781Y-110.25
X125.832Y-77.267
X125.883Y-124.206
X127.051Y-62.636
X127.152Y-88.748
X127.153Y-129.998
X128.321Y-112.547
X128.372Y-122.428
X128.372Y-75.489
X129.54Y-64.414
X129.57Y-91.359
X129.642Y-131.725
X130.81Y-110.25
X130.861Y-124.206
X130.861Y-77.216
X132.283Y-62.636
X132.283Y-88.798
X132.284Y-129.998
X133.452Y-112.547
X133.502Y-75.489
X133.604Y-122.428
X134.671Y-64.414
X134.701Y-91.41
X134.773Y-131.725
X135.941Y-110.25
X135.992Y-124.206
X135.992Y-77.216
X137.211Y-129.896
X137.211Y-62.636
X137.211Y-88.798
X138.532Y-122.428
X138.532Y-67.97
X139.802Y-64.414
X139.832Y-91.41
X139.853Y-131.725
X141.021Y-110.25
X141.072Y-77.216
X141.123Y-124.206
X142.29Y-88.798
X142.342Y-129.998
X142.392Y-62.636
X143.51Y-112.55
X143.561Y-75.489
X143.713Y-122.428
X144.78Y-64.414
X144.881Y-91.362
X144.933Y-131.725
X146.101Y-110.25
X146.152Y-77.216
X146.26Y-124.19
X147.371Y-62.636
X147.371Y-88.798
X147.46Y-129.908
X148.6Y-112.56
X148.641Y-75.438
X148.692Y-122.428
X149.911Y-64.414
X149.941Y-91.41
X150.013Y-131.674
X151.18Y-110.25
X151.232Y-124.206
X151.232Y-77.165
X152.451Y-62.636
X152.451Y-88.798
X152.502Y-129.947
X153.67Y-112.547
X153.721Y-75.438
X153.772Y-122.428
X155.042Y-64.414
X155.072Y-91.41
X155.093Y-131.674
X156.261Y-110.25
X156.312Y-77.165
X156.363Y-124.206
X157.531Y-62.636
X157.531Y-88.798
X157.633Y-129.947
X158.801Y-112.547
X158.852Y-122.428
X158.852Y-75.438
X160.071Y-131.674
X160.071Y-64.414
X160.101Y-91.41
X161.29Y-77.165
X161.392Y-110.25
X161.392Y-124.206
X162.6Y-62.64
X162.611Y-88.798
X162.662Y-129.998
X163.83Y-112.547
X163.881Y-75.489
X163.932Y-122.428
X165.202Y-64.414
X165.232Y-91.41
X165.304Y-131.674
X166.472Y-110.25
X166.522Y-77.165
X166.523Y-124.206
X167.691Y-62.636
X167.691Y-88.798
X167.793Y-129.998
X168.961Y-112.547
X169.012Y-122.428
X169.012Y-75.489
X170.18Y-64.414
X170.21Y-91.41
X170.333Y-131.725
X171.501Y-124.206
X171.501Y-110.25
X171.552Y-77.216
X172.771Y-62.636
X172.771Y-88.798
X172.822Y-129.998
X173.99Y-112.547
X174.041Y-75.489
X174.092Y-122.428
T2
X105.486Y-80.01
X105.486Y-82.55
X105.486Y-116.84
X105.486Y-119.38
X108.026Y-80.01
X108.026Y-82.55
X108.026Y-116.84
X108.026Y-119.38
X110.566Y-80.01
X110.566Y-82.55
X110.566Y-116.84
X110.566Y-119.38
X113.106Y-80.01
X113.106Y-82.55
X113.106Y-116.84
X113.106Y-119.38
X115.646Y-80.01
X115.646Y-82.55
X115.646Y-116.84
X115.646Y-119.38
X118.186Y-80.01
X118.186Y-82.55
X118.186Y-116.84
X118.186Y-119.38
X120.726Y-80.01
X120.726Y-82.55
X120.726Y-116.84
X120.726Y-119.38
X123.266Y-80.01
X123.266Y-82.55
X123.266Y-116.84
X123.266Y-119.38
X125.806Y-80.01
X125.806Y-82.55
X125.806Y-116.84
X125.806Y-119.38
X128.346Y-80.01
X128.346Y-82.55
X128.346Y-116.84
X128.346Y-119.38
X130.886Y-80.01
X130.886Y-82.55
X130.886Y-116.84
X130.886Y-119.38
X133.426Y-80.01
X133.426Y-82.55
X133.426Y-116.84
X133.426Y-119.38
X135.966Y-80.01
X135.966Y-82.55
X135.966Y-116.84
X135.966Y-119.38
X138.506Y-80.01
X138.506Y-82.55
X138.506Y-116.84
X138.506Y-119.38
X141.046Y-80.01
X141.046Y-82.55
X141.046Y-116.84
X141.046Y-119.38
X143.586Y-80.01
X143.586Y-82.55
X143.586Y-116.84
X143.586Y-119.38
X146.126Y-80.01
X146.126Y-82.55
X146.126Y-116.84
X146.126Y-119.38
X148.666Y-80.01
X148.666Y-82.55
X148.666Y-116.84
X148.666Y-119.38
X151.206Y-80.01
X151.206Y-82.55
X151.206Y-116.84
X151.206Y-119.38
X153.746Y-80.01
X153.746Y-82.55
X153.746Y-116.84
X153.746Y-119.38
X156.286Y-80.01
X156.286Y-82.55
X156.286Y-116.84
X156.286Y-119.38
X158.826Y-80.01
X158.826Y-82.55
X158.826Y-116.84
X158.826Y-119.38
X161.366Y-80.01
X161.366Y-82.55
X161.366Y-116.84
X161.366Y-119.38
X163.906Y-80.01
X163.906Y-82.55
X163.906Y-116.84
X163.906Y-119.38
X166.446Y-80.01
X166.446Y-82.55
X166.446Y-116.84
X166.446Y-119.38
X168.986Y-80.01
X168.986Y-82.55
X168.986Y-116.84
X168.986Y-119.38
X171.526Y-80.01
X171.526Y-82.55
X171.526Y-116.84
X171.526Y-119.38
X174.066Y-80.01
X174.066Y-82.55
X174.066Y-116.84
X174.066Y-119.38
M30
