M48
; DRILL file {KiCad 5.1.12~sunspark9.18} date Thu 23 Nov 2023 01:00:00 AM CET
; FORMAT={-:-/ absolute / metric / decimal}
; #@! TF.CreationDate,2023-11-23T01:00:00+01:00
; #@! TF.GenerationSoftware,Kicad,Pcbnew,5.1.12~sunspark9.18
FMAT,2
METRIC
T1C0.400
T2C0.600
T3C0.700
T4C0.800
T5C0.900
T6C1.000
T7C1.100
T8C3.200
%
G90
G05
T1
X18.0Y-38.0
X18.045Y-99.638
X20.1Y-71.382
X22.045Y-48.94
X22.254Y-79.745
X22.957Y-146.829
X23.022Y-123.535
X23.055Y-115.041
X23.622Y-46.222
X23.639Y-9.238
X23.661Y-87.671
X24.772Y-139.961
X24.862Y-104.567
X24.93Y-15.856
X25.567Y-76.951
X26.0Y-44.0
X26.06Y-140.291
X26.161Y-11.319
X26.209Y-119.782
X27.616Y-8.725
X28.0Y-41.0
X28.04Y-110.235
X28.078Y-67.089
X28.462Y-15.642
X28.538Y-139.066
X29.188Y-147.621
X29.878Y-12.638
X30.45Y-87.91
X30.629Y-116.759
X31.091Y-9.1
X32.928Y-150.379
X33.0Y-10.0
X33.0Y-44.0
X33.269Y-74.671
X33.333Y-113.77
X38.428Y-115.58
X40.753Y-73.874
X40.779Y-107.623
X40.967Y-121.208
X41.239Y-139.068
X41.4Y-10.8
X42.556Y-141.49
X42.6Y-12.4
X43.0Y-42.0
X43.142Y-70.635
X43.343Y-111.594
X45.081Y-146.907
X45.18Y-17.308
X45.657Y-103.885
X45.668Y-68.713
X46.0Y-40.0
X46.386Y-139.006
X46.94Y-147.726
X47.714Y-10.864
X48.0Y-47.0
X48.303Y-66.956
X48.33Y-123.577
X48.928Y-139.937
X50.187Y-141.132
X50.222Y-108.088
X50.268Y-13.71
X50.742Y-88.011
X51.0Y-39.0
X51.459Y-139.207
X52.067Y-147.723
X52.799Y-8.992
X52.807Y-129.475
X53.691Y-103.245
X53.97Y-45.949
X54.769Y-70.974
X57.557Y-142.485
X57.88Y-9.349
X58.593Y-114.021
X58.632Y-82.01
X59.0Y-43.0
X60.343Y-144.533
X60.393Y-13.935
X61.0Y-36.0
X61.038Y-83.284
X61.123Y-126.496
X61.627Y-147.258
X62.886Y-144.084
X62.945Y-17.891
X63.0Y-50.0
X63.078Y-132.428
X63.43Y-119.155
X63.543Y-77.136
X64.171Y-141.206
X64.229Y-88.963
X65.426Y-147.087
X65.486Y-8.635
X66.0Y-40.0
X66.172Y-106.601
X66.505Y-66.818
X66.773Y-91.255
X67.943Y-103.858
X67.972Y-139.549
X68.033Y-71.675
X68.034Y-11.181
X69.0Y-45.0
X69.203Y-113.622
X69.316Y-74.742
X70.498Y-140.07
X70.624Y-13.928
X70.878Y-69.656
X71.0Y-35.0
X71.173Y-121.596
X71.482Y-81.394
X71.769Y-144.384
X71.936Y-85.869
X73.132Y-147.096
X73.207Y-17.843
X73.963Y-90.293
X74.0Y-41.0
X74.298Y-124.993
X74.323Y-107.145
X74.402Y-140.58
X74.967Y-143.647
X76.439Y-37.048
X76.451Y-113.089
X76.933Y-12.361
X77.791Y-147.244
X78.12Y-87.121
X78.209Y-41.28
X78.301Y-8.642
X78.973Y-53.332
X79.005Y-117.672
X79.379Y-71.413
X79.563Y-16.96
X80.236Y-144.383
X80.814Y-13.792
X81.323Y-103.855
X81.328Y-37.72
X81.395Y-67.869
X81.902Y-120.847
X81.933Y-142.018
X82.463Y-144.419
X82.932Y-71.626
X83.206Y-116.689
X83.337Y-9.084
X83.757Y-34.437
X84.127Y-75.668
X84.476Y-144.852
X84.49Y-107.888
X85.071Y-147.785
X85.134Y-80.635
X85.877Y-11.632
X86.319Y-41.6
X86.416Y-112.729
X86.438Y-83.609
X87.003Y-140.875
X87.603Y-144.447
X88.129Y-88.364
X88.276Y-48.241
X88.417Y-17.931
X89.189Y-125.521
X89.495Y-73.493
X89.553Y-142.404
X89.556Y-54.346
X89.705Y-13.506
X90.343Y-145.899
X91.572Y-108.546
X91.582Y-44.455
X92.033Y-75.54
X94.413Y-10.159
T2
X10.325Y-35.0
X11.825Y-35.0
X14.325Y-68.0
X15.825Y-68.0
T3
X7.8Y-68.175
X7.8Y-69.775
X9.0Y-67.375
X9.0Y-68.975
X9.0Y-70.575
T4
X2.325Y-85.0
X2.325Y-87.0
X2.325Y-89.0
X2.525Y-26.38
X2.525Y-34.0
X7.325Y-18.78
X7.325Y-23.78
X12.0Y-73.7
X14.6Y-88.6
X16.125Y-18.78
X16.125Y-23.78
X17.14Y-88.6
X19.62Y-73.7
X19.68Y-88.6
T5
X1.525Y-19.0
X4.065Y-19.0
T6
X7.61Y-59.0
X10.15Y-59.0
X12.69Y-59.0
X22.959Y-23.164
X22.959Y-25.704
X22.959Y-59.164
X22.959Y-61.704
X22.959Y-95.164
X22.959Y-97.704
X22.959Y-131.164
X22.959Y-133.704
X25.499Y-23.164
X25.499Y-25.704
X25.499Y-59.164
X25.499Y-61.704
X25.499Y-95.164
X25.499Y-97.704
X25.499Y-131.164
X25.499Y-133.704
X28.039Y-23.164
X28.039Y-25.704
X28.039Y-59.164
X28.039Y-61.704
X28.039Y-95.164
X28.039Y-97.704
X28.039Y-131.164
X28.039Y-133.704
X30.579Y-23.164
X30.579Y-25.704
X30.579Y-59.164
X30.579Y-61.704
X30.579Y-95.164
X30.579Y-97.704
X30.579Y-131.164
X30.579Y-133.704
X33.119Y-23.164
X33.119Y-25.704
X33.119Y-59.164
X33.119Y-61.704
X33.119Y-95.164
X33.119Y-97.704
X33.119Y-131.164
X33.119Y-133.704
X35.659Y-23.164
X35.659Y-25.704
X35.659Y-59.164
X35.659Y-61.704
X35.659Y-95.164
X35.659Y-97.704
X35.659Y-131.164
X35.659Y-133.704
X38.199Y-23.164
X38.199Y-25.704
X38.199Y-59.164
X38.199Y-61.704
X38.199Y-95.164
X38.199Y-97.704
X38.199Y-131.164
X38.199Y-133.704
X40.739Y-23.164
X40.739Y-25.704
X40.739Y-59.164
X40.739Y-61.704
X40.739Y-95.164
X40.739Y-97.704
X40.739Y-131.164
X40.739Y-133.704
X43.279Y-23.164
X43.279Y-25.704
X43.279Y-59.164
X43.279Y-61.704
X43.279Y-95.164
X43.279Y-97.704
X43.279Y-131.164
X43.279Y-133.704
X45.819Y-23.164
X45.819Y-25.704
X45.819Y-59.164
X45.819Y-61.704
X45.819Y-95.164
X45.819Y-97.704
X45.819Y-131.164
X45.819Y-133.704
X48.359Y-23.164
X48.359Y-25.704
X48.359Y-59.164
X48.359Y-61.704
X48.359Y-95.164
X48.359Y-97.704
X48.359Y-131.164
X48.359Y-133.704
X50.899Y-23.164
X50.899Y-25.704
X50.899Y-59.164
X50.899Y-61.704
X50.899Y-95.164
X50.899Y-97.704
X50.899Y-131.164
X50.899Y-133.704
X53.439Y-23.164
X53.439Y-25.704
X53.439Y-59.164
X53.439Y-61.704
X53.439Y-95.164
X53.439Y-97.704
X53.439Y-131.164
X53.439Y-133.704
X55.979Y-23.164
X55.979Y-25.704
X55.979Y-59.164
X55.979Y-61.704
X55.979Y-95.164
X55.979Y-97.704
X55.979Y-131.164
X55.979Y-133.704
X58.519Y-23.164
X58.519Y-25.704
X58.519Y-59.164
X58.519Y-61.704
X58.519Y-95.164
X58.519Y-97.704
X58.519Y-131.164
X58.519Y-133.704
X61.059Y-23.164
X61.059Y-25.704
X61.059Y-59.164
X61.059Y-61.704
X61.059Y-95.164
X61.059Y-97.704
X61.059Y-131.164
X61.059Y-133.704
X63.599Y-23.164
X63.599Y-25.704
X63.599Y-59.164
X63.599Y-61.704
X63.599Y-95.164
X63.599Y-97.704
X63.599Y-131.164
X63.599Y-133.704
X66.139Y-23.164
X66.139Y-25.704
X66.139Y-59.164
X66.139Y-61.704
X66.139Y-95.164
X66.139Y-97.704
X66.139Y-131.164
X66.139Y-133.704
X68.679Y-23.164
X68.679Y-25.704
X68.679Y-59.164
X68.679Y-61.704
X68.679Y-95.164
X68.679Y-97.704
X68.679Y-131.164
X68.679Y-133.704
X71.219Y-23.164
X71.219Y-25.704
X71.219Y-59.164
X71.219Y-61.704
X71.219Y-95.164
X71.219Y-97.704
X71.219Y-131.164
X71.219Y-133.704
X73.759Y-23.164
X73.759Y-25.704
X73.759Y-59.164
X73.759Y-61.704
X73.759Y-95.164
X73.759Y-97.704
X73.759Y-131.164
X73.759Y-133.704
X76.299Y-23.164
X76.299Y-25.704
X76.299Y-59.164
X76.299Y-61.704
X76.299Y-95.164
X76.299Y-97.704
X76.299Y-131.164
X76.299Y-133.704
X78.839Y-23.164
X78.839Y-25.704
X78.839Y-59.164
X78.839Y-61.704
X78.839Y-95.164
X78.839Y-97.704
X78.839Y-131.164
X78.839Y-133.704
X81.379Y-23.164
X81.379Y-25.704
X81.379Y-59.164
X81.379Y-61.704
X81.379Y-95.164
X81.379Y-97.704
X81.379Y-131.164
X81.379Y-133.704
X83.919Y-23.164
X83.919Y-25.704
X83.919Y-59.164
X83.919Y-61.704
X83.919Y-95.164
X83.919Y-97.704
X83.919Y-131.164
X83.919Y-133.704
X86.459Y-23.164
X86.459Y-25.704
X86.459Y-59.164
X86.459Y-61.704
X86.459Y-95.164
X86.459Y-97.704
X86.459Y-131.164
X86.459Y-133.704
X88.999Y-23.164
X88.999Y-25.704
X88.999Y-59.164
X88.999Y-61.704
X88.999Y-95.164
X88.999Y-97.704
X88.999Y-131.164
X88.999Y-133.704
X91.539Y-23.164
X91.539Y-25.704
X91.539Y-59.164
X91.539Y-61.704
X91.539Y-95.164
X91.539Y-97.704
X91.539Y-131.164
X91.539Y-133.704
T7
X9.7Y-81.0
X12.24Y-81.0
X14.78Y-81.0
T8
X11.0Y-93.0
X17.0Y-118.0
X17.0Y-139.0
X20.0Y-14.0
X56.0Y-78.0
X98.0Y-14.0
X98.0Y-54.0
X98.0Y-108.0
X98.0Y-148.0
T2
G00X1.925Y-82.9
M15
G01X2.725Y-82.9
M16
G05
G00X1.925Y-91.1
M15
G01X2.725Y-91.1
M16
G05
T3
G00X3.35Y-65.325
M15
G01X4.55Y-65.325
M16
G05
G00X3.35Y-72.625
M15
G01X4.55Y-72.625
M16
G05
T4
G00X7.975Y-5.9
M15
G01X7.975Y-8.1
M16
G05
G00X9.675Y-11.8
M15
G01X11.875Y-11.8
M16
G05
G00X13.775Y-5.7
M15
G01X13.775Y-8.3
M16
G05
T0
M30
