%TF.GenerationSoftware,KiCad,Pcbnew,5.1.12~sunspark9.18*%
%TF.CreationDate,2023-11-23T01:00:00+01:00*%
%TF.ProjectId,ZX_Spectrum_Bus_Expander_1.00,5a585f53-7065-4637-9472-756d5f427573,1.00*%
%TF.SameCoordinates,Original*%
%TF.FileFunction,Profile,NP*%
%FSLAX46Y46*%
G04 Gerber Fmt 4.6, Leading zero omitted, Abs format (unit mm)*
G04 Created by KiCad (PCBNEW 5.1.12~sunspark9.18) date 2023-11-23 01:00:00*
%MOMM*%
%LPD*%
G01*
G04 APERTURE LIST*
%TA.AperFunction,Profile*%
%ADD10C,0.150000*%
%TD*%
%TA.AperFunction,Profile*%
%ADD11C,0.100000*%
%TD*%
G04 APERTURE END LIST*
D10*
X17325000Y-152000000D02*
X17325000Y-144500000D01*
X16325000Y-143500000D02*
G75*
G02*
X12325000Y-139500000I0J4000000D01*
G01*
X16325000Y-143500000D02*
G75*
G02*
X17325000Y-144500000I0J-1000000D01*
G01*
X12325000Y-112000000D02*
X0Y-94000000D01*
X0Y-1000000D02*
G75*
G02*
X1000000Y0I1000000J0D01*
G01*
X0Y-94000000D02*
X0Y-1000000D01*
X18325000Y-153000000D02*
G75*
G02*
X17325000Y-152000000I0J1000000D01*
G01*
X102325000Y-152000000D02*
G75*
G02*
X101325000Y-153000000I-1000000J0D01*
G01*
X101325000Y0D02*
G75*
G02*
X102325000Y-1000000I0J-1000000D01*
G01*
X1000000Y0D02*
X32230000Y0D01*
X32230000Y0D02*
X32230000Y-8890000D01*
X32230000Y-8890000D02*
X34008000Y-8890000D01*
X34008000Y-8890000D02*
X34008000Y0D01*
X34008000Y0D02*
X101325000Y0D01*
X102325000Y-1000000D02*
X102325000Y-152000000D01*
X101325000Y-153000000D02*
X18325000Y-153000000D01*
X12325000Y-139500000D02*
X12325000Y-112000000D01*
D11*
X101325000Y-157000000D02*
X18325000Y-157000000D01*
X17325000Y-156000000D02*
X17325000Y-154000000D01*
X18325000Y-153000000D02*
X101325000Y-153000000D01*
X102325000Y-154000000D02*
X102325000Y-156000000D01*
X101325000Y-153000000D02*
G75*
G02*
X102325000Y-154000000I0J-1000000D01*
G01*
X17325000Y-154000000D02*
G75*
G02*
X18325000Y-153000000I1000000J0D01*
G01*
X18325000Y-157000000D02*
G75*
G02*
X17325000Y-156000000I0J1000000D01*
G01*
X102325000Y-156000000D02*
G75*
G02*
X101325000Y-157000000I-1000000J0D01*
G01*
X102325000Y-153000000D02*
X17325000Y-153000000D01*
M02*
